<svg xmlns="http://www.w3.org/2000/svg" xmlns:xlink="http://www.w3.org/1999/xlink" xml:lang="en" height="801.5999999999999pt" width="860.2669999999999pt" viewBox="-63.666999999999994 -454.6 860.2669999999999 801.5999999999999"><path d="M 0.0,-0.0 L 126,-0 L 126,-324 L 0,-324 L 0,-0" style="stroke:black;fill:none;stroke-width:2.0;stroke-dasharray:-;stroke-linecap:round;stroke-linejoin:round;" /><path d="M 0.0,-18.0 L -18,-18" style="stroke:black;fill:none;stroke-width:2.0;stroke-dasharray:-;stroke-linecap:round;stroke-linejoin:round;" /><path d="M 0.0,-162.0 L -18,-162" style="stroke:black;fill:none;stroke-width:2.0;stroke-dasharray:-;stroke-linecap:round;stroke-linejoin:round;" /><path d="M 0.0,-306.0 L -18,-306" style="stroke:black;fill:none;stroke-width:2.0;stroke-dasharray:-;stroke-linecap:round;stroke-linejoin:round;" /><path d="M 126.0,-18.0 L 144,-18" style="stroke:black;fill:none;stroke-width:2.0;stroke-dasharray:-;stroke-linecap:round;stroke-linejoin:round;" /><path d="M 126.0,-59.14285714285714 L 144,-59.143" style="stroke:black;fill:none;stroke-width:2.0;stroke-dasharray:-;stroke-linecap:round;stroke-linejoin:round;" /><path d="M 126.0,-100.28571428571428 L 144,-100.286" style="stroke:black;fill:none;stroke-width:2.0;stroke-dasharray:-;stroke-linecap:round;stroke-linejoin:round;" /><path d="M 126.0,-141.42857142857142 L 144,-141.429" style="stroke:black;fill:none;stroke-width:2.0;stroke-dasharray:-;stroke-linecap:round;stroke-linejoin:round;" /><path d="M 126.0,-182.57142857142856 L 144,-182.571" style="stroke:black;fill:none;stroke-width:2.0;stroke-dasharray:-;stroke-linecap:round;stroke-linejoin:round;" /><path d="M 126.0,-223.7142857142857 L 144,-223.714" style="stroke:black;fill:none;stroke-width:2.0;stroke-dasharray:-;stroke-linecap:round;stroke-linejoin:round;" /><path d="M 126.0,-264.85714285714283 L 144,-264.857" style="stroke:black;fill:none;stroke-width:2.0;stroke-dasharray:-;stroke-linecap:round;stroke-linejoin:round;" /><path d="M 126.0,-306.0 L 144,-306" style="stroke:black;fill:none;stroke-width:2.0;stroke-dasharray:-;stroke-linecap:round;stroke-linejoin:round;" /><path d="M 468.0,-306.0 L 594,-306 L 594,-450 L 468,-450 L 468,-306" style="stroke:black;fill:none;stroke-width:2.0;stroke-dasharray:-;stroke-linecap:round;stroke-linejoin:round;" /><path d="M 468.0,-324.0 L 450,-324" style="stroke:black;fill:none;stroke-width:2.0;stroke-dasharray:-;stroke-linecap:round;stroke-linejoin:round;" /><path d="M 468.0,-351.0 L 450,-351" style="stroke:black;fill:none;stroke-width:2.0;stroke-dasharray:-;stroke-linecap:round;stroke-linejoin:round;" /><path d="M 468.0,-378.0 L 450,-378" style="stroke:black;fill:none;stroke-width:2.0;stroke-dasharray:-;stroke-linecap:round;stroke-linejoin:round;" /><path d="M 468.0,-405.0 L 450,-405" style="stroke:black;fill:none;stroke-width:2.0;stroke-dasharray:-;stroke-linecap:round;stroke-linejoin:round;" /><path d="M 468.0,-432.0 L 450,-432" style="stroke:black;fill:none;stroke-width:2.0;stroke-dasharray:-;stroke-linecap:round;stroke-linejoin:round;" /><path d="M 459.0,-18.0 L 603,-18 L 603,-234 L 459,-234 L 459,-18" style="stroke:black;fill:none;stroke-width:2.0;stroke-dasharray:-;stroke-linecap:round;stroke-linejoin:round;" /><path d="M 459.0,-36.0 L 441,-36" style="stroke:black;fill:none;stroke-width:2.0;stroke-dasharray:-;stroke-linecap:round;stroke-linejoin:round;" /><path d="M 459.0,-72.0 L 441,-72" style="stroke:black;fill:none;stroke-width:2.0;stroke-dasharray:-;stroke-linecap:round;stroke-linejoin:round;" /><path d="M 459.0,-108.0 L 441,-108" style="stroke:black;fill:none;stroke-width:2.0;stroke-dasharray:-;stroke-linecap:round;stroke-linejoin:round;" /><path d="M 459.0,-144.0 L 441,-144" style="stroke:black;fill:none;stroke-width:2.0;stroke-dasharray:-;stroke-linecap:round;stroke-linejoin:round;" /><path d="M 459.0,-180.0 L 441,-180" style="stroke:black;fill:none;stroke-width:2.0;stroke-dasharray:-;stroke-linecap:round;stroke-linejoin:round;" /><path d="M 459.0,-216.0 L 441,-216" style="stroke:black;fill:none;stroke-width:2.0;stroke-dasharray:-;stroke-linecap:round;stroke-linejoin:round;" /><path d="M 603.0,-36.0 L 621,-36" style="stroke:black;fill:none;stroke-width:2.0;stroke-dasharray:-;stroke-linecap:round;stroke-linejoin:round;" /><path d="M 603.0,-96.00000000000001 L 621,-96" style="stroke:black;fill:none;stroke-width:2.0;stroke-dasharray:-;stroke-linecap:round;stroke-linejoin:round;" /><path d="M 603.0,-156.00000000000003 L 621,-156" style="stroke:black;fill:none;stroke-width:2.0;stroke-dasharray:-;stroke-linecap:round;stroke-linejoin:round;" /><path d="M 603.0,-216.0 L 621,-216" style="stroke:black;fill:none;stroke-width:2.0;stroke-dasharray:-;stroke-linecap:round;stroke-linejoin:round;" /><path d="M 459.0,306.0 L 603,306 L 603,90 L 459,90 L 459,306" style="stroke:black;fill:none;stroke-width:2.0;stroke-dasharray:-;stroke-linecap:round;stroke-linejoin:round;" /><path d="M 459.0,288.0 L 441,288" style="stroke:black;fill:none;stroke-width:2.0;stroke-dasharray:-;stroke-linecap:round;stroke-linejoin:round;" /><path d="M 459.0,252.0 L 441,252" style="stroke:black;fill:none;stroke-width:2.0;stroke-dasharray:-;stroke-linecap:round;stroke-linejoin:round;" /><path d="M 459.0,216.0 L 441,216" style="stroke:black;fill:none;stroke-width:2.0;stroke-dasharray:-;stroke-linecap:round;stroke-linejoin:round;" /><path d="M 459.0,180.0 L 441,180" style="stroke:black;fill:none;stroke-width:2.0;stroke-dasharray:-;stroke-linecap:round;stroke-linejoin:round;" /><path d="M 459.0,144.0 L 441,144" style="stroke:black;fill:none;stroke-width:2.0;stroke-dasharray:-;stroke-linecap:round;stroke-linejoin:round;" /><path d="M 459.0,108.0 L 441,108" style="stroke:black;fill:none;stroke-width:2.0;stroke-dasharray:-;stroke-linecap:round;stroke-linejoin:round;" /><path d="M 603.0,288.0 L 621,288" style="stroke:black;fill:none;stroke-width:2.0;stroke-dasharray:-;stroke-linecap:round;stroke-linejoin:round;" /><path d="M 603.0,228.0 L 621,228" style="stroke:black;fill:none;stroke-width:2.0;stroke-dasharray:-;stroke-linecap:round;stroke-linejoin:round;" /><path d="M 603.0,167.99999999999997 L 621,168" style="stroke:black;fill:none;stroke-width:2.0;stroke-dasharray:-;stroke-linecap:round;stroke-linejoin:round;" /><path d="M 603.0,108.0 L 621,108" style="stroke:black;fill:none;stroke-width:2.0;stroke-dasharray:-;stroke-linecap:round;stroke-linejoin:round;" /><path d="M 702.0,-54.0 L 792,-54 L 792,-198 L 702,-198 L 702,-54" style="stroke:black;fill:none;stroke-width:2.0;stroke-dasharray:-;stroke-linecap:round;stroke-linejoin:round;" /><path d="M 702.0,-72.0 L 684,-72" style="stroke:black;fill:none;stroke-width:2.0;stroke-dasharray:-;stroke-linecap:round;stroke-linejoin:round;" /><path d="M 702.0,-108.0 L 684,-108" style="stroke:black;fill:none;stroke-width:2.0;stroke-dasharray:-;stroke-linecap:round;stroke-linejoin:round;" /><path d="M 702.0,-144.0 L 684,-144" style="stroke:black;fill:none;stroke-width:2.0;stroke-dasharray:-;stroke-linecap:round;stroke-linejoin:round;" /><path d="M 702.0,-180.0 L 684,-180" style="stroke:black;fill:none;stroke-width:2.0;stroke-dasharray:-;stroke-linecap:round;stroke-linejoin:round;" /><path d="M 702.0,270.0 L 792,270 L 792,126 L 702,126 L 702,270" style="stroke:black;fill:none;stroke-width:2.0;stroke-dasharray:-;stroke-linecap:round;stroke-linejoin:round;" /><path d="M 702.0,252.0 L 684,252" style="stroke:black;fill:none;stroke-width:2.0;stroke-dasharray:-;stroke-linecap:round;stroke-linejoin:round;" /><path d="M 702.0,216.0 L 684,216" style="stroke:black;fill:none;stroke-width:2.0;stroke-dasharray:-;stroke-linecap:round;stroke-linejoin:round;" /><path d="M 702.0,180.0 L 684,180" style="stroke:black;fill:none;stroke-width:2.0;stroke-dasharray:-;stroke-linecap:round;stroke-linejoin:round;" /><path d="M 702.0,144.0 L 684,144" style="stroke:black;fill:none;stroke-width:2.0;stroke-dasharray:-;stroke-linecap:round;stroke-linejoin:round;" /><path d="M 207.0,-144.0 L 207,180" style="stroke:steelblue;fill:none;stroke-width:2.0;stroke-dasharray:-;stroke-linecap:round;stroke-linejoin:round;" /><path d="M 207.0,-144.0 L 441,-144" style="stroke:steelblue;fill:none;stroke-width:2.0;stroke-dasharray:-;stroke-linecap:round;stroke-linejoin:round;" /><path d="M 207.0,180.0 L 441,180" style="stroke:steelblue;fill:none;stroke-width:2.0;stroke-dasharray:-;stroke-linecap:round;stroke-linejoin:round;" /><path d="M 144.0,-100.28571428571428 L 207,-100.286 L 207,-100.286" style="stroke:steelblue;fill:none;stroke-width:2.0;stroke-dasharray:-;stroke-linecap:round;stroke-linejoin:round;" /><path d="M 207.0,-144.0 L 207,-171 L 207,-198" style="stroke:black;fill:none;stroke-width:2.0;stroke-dasharray:-;stroke-linecap:round;stroke-linejoin:round;" /><path d="M 207.0,-198.0 L 207,-216 L 198,-219 L 216,-225 L 198,-231 L 216,-237 L 198,-243 L 216,-249 L 207,-252 L 207,-270" style="stroke:black;fill:none;stroke-width:2.0;stroke-dasharray:-;stroke-linecap:round;stroke-linejoin:round;" /><path d="M 207.0,-270.0 L 207,-284.4" style="stroke:black;fill:none;stroke-width:2.0;stroke-dasharray:-;stroke-linecap:round;stroke-linejoin:round;" /><path d="M 207.0,-284.40000000000003 L 200.25,-284.4" style="stroke:black;fill:none;stroke-width:2.0;stroke-dasharray:-;stroke-linecap:round;stroke-linejoin:round;" /><path d="M 207.0,-284.40000000000003 L 213.75,-284.4" style="stroke:black;fill:none;stroke-width:2.0;stroke-dasharray:-;stroke-linecap:round;stroke-linejoin:round;" /><path d="M -18.0,-162.0 L -27,-162 L -36,-162" style="stroke:black;fill:none;stroke-width:2.0;stroke-dasharray:-;stroke-linecap:round;stroke-linejoin:round;" /><path d="M -36.0,-162.0 L -36,-176.4" style="stroke:black;fill:none;stroke-width:2.0;stroke-dasharray:-;stroke-linecap:round;stroke-linejoin:round;" /><path d="M -36.0,-176.4 L -42.75,-176.4" style="stroke:black;fill:none;stroke-width:2.0;stroke-dasharray:-;stroke-linecap:round;stroke-linejoin:round;" /><path d="M -36.0,-176.4 L -29.25,-176.4" style="stroke:black;fill:none;stroke-width:2.0;stroke-dasharray:-;stroke-linecap:round;stroke-linejoin:round;" /><path d="M -18.0,-306.0 L -27,-306 L -36,-306" style="stroke:black;fill:none;stroke-width:2.0;stroke-dasharray:-;stroke-linecap:round;stroke-linejoin:round;" /><path d="M -36.0,-306.0 L -36,-320.4" style="stroke:black;fill:none;stroke-width:2.0;stroke-dasharray:-;stroke-linecap:round;stroke-linejoin:round;" /><path d="M -36.0,-320.40000000000003 L -42.75,-320.4" style="stroke:black;fill:none;stroke-width:2.0;stroke-dasharray:-;stroke-linecap:round;stroke-linejoin:round;" /><path d="M -36.0,-320.40000000000003 L -29.25,-320.4" style="stroke:black;fill:none;stroke-width:2.0;stroke-dasharray:-;stroke-linecap:round;stroke-linejoin:round;" /><path d="M -18.0,-18.0 L -27,-18 L -36,-18" style="stroke:black;fill:none;stroke-width:2.0;stroke-dasharray:-;stroke-linecap:round;stroke-linejoin:round;" /><path d="M -36.0,-18.000000000000004 L -36,-3.6 L -45,-3.6 L -27,-3.6 M -42.3,0.72 L -29.7,0.72 M -37.8,5.04 L -34.2,5.04" style="stroke:black;fill:none;stroke-width:2.0;stroke-dasharray:-;stroke-linecap:round;stroke-linejoin:round;" /><path d="M 450.0,-351.0 L 432,-351 L 414,-351" style="stroke:black;fill:none;stroke-width:2.0;stroke-dasharray:-;stroke-linecap:round;stroke-linejoin:round;" /><path d="M 414.0,-351.0 L 414,-365.4" style="stroke:black;fill:none;stroke-width:2.0;stroke-dasharray:-;stroke-linecap:round;stroke-linejoin:round;" /><path d="M 414.0,-365.40000000000003 L 407.25,-365.4" style="stroke:black;fill:none;stroke-width:2.0;stroke-dasharray:-;stroke-linecap:round;stroke-linejoin:round;" /><path d="M 414.0,-365.40000000000003 L 420.75,-365.4" style="stroke:black;fill:none;stroke-width:2.0;stroke-dasharray:-;stroke-linecap:round;stroke-linejoin:round;" /><path d="M 450.0,-324.0 L 432,-324 L 414,-324" style="stroke:black;fill:none;stroke-width:2.0;stroke-dasharray:-;stroke-linecap:round;stroke-linejoin:round;" /><path d="M 414.0,-324.0 L 414,-309.6 L 405,-309.6 L 423,-309.6 M 407.7,-305.28 L 420.3,-305.28 M 412.2,-300.96 L 415.8,-300.96" style="stroke:black;fill:none;stroke-width:2.0;stroke-dasharray:-;stroke-linecap:round;stroke-linejoin:round;" /><path d="M 441.0,-72.0 L 423,-72 L 405,-72" style="stroke:black;fill:none;stroke-width:2.0;stroke-dasharray:-;stroke-linecap:round;stroke-linejoin:round;" /><path d="M 405.0,-72.0 L 405,-86.4" style="stroke:black;fill:none;stroke-width:2.0;stroke-dasharray:-;stroke-linecap:round;stroke-linejoin:round;" /><path d="M 405.0,-86.39999999999999 L 398.25,-86.4" style="stroke:black;fill:none;stroke-width:2.0;stroke-dasharray:-;stroke-linecap:round;stroke-linejoin:round;" /><path d="M 405.0,-86.39999999999999 L 411.75,-86.4" style="stroke:black;fill:none;stroke-width:2.0;stroke-dasharray:-;stroke-linecap:round;stroke-linejoin:round;" /><path d="M 441.0,-108.0 L 423,-108 L 405,-108" style="stroke:black;fill:none;stroke-width:2.0;stroke-dasharray:-;stroke-linecap:round;stroke-linejoin:round;" /><path d="M 405.0,-108.0 L 405,-122.4" style="stroke:black;fill:none;stroke-width:2.0;stroke-dasharray:-;stroke-linecap:round;stroke-linejoin:round;" /><path d="M 405.0,-122.39999999999999 L 398.25,-122.4" style="stroke:black;fill:none;stroke-width:2.0;stroke-dasharray:-;stroke-linecap:round;stroke-linejoin:round;" /><path d="M 405.0,-122.39999999999999 L 411.75,-122.4" style="stroke:black;fill:none;stroke-width:2.0;stroke-dasharray:-;stroke-linecap:round;stroke-linejoin:round;" /><path d="M 441.0,-36.0 L 423,-36 L 405,-36" style="stroke:black;fill:none;stroke-width:2.0;stroke-dasharray:-;stroke-linecap:round;stroke-linejoin:round;" /><path d="M 405.0,-36.00000000000001 L 405,-21.6 L 396,-21.6 L 414,-21.6 M 398.7,-17.28 L 411.3,-17.28 M 403.2,-12.96 L 406.8,-12.96" style="stroke:black;fill:none;stroke-width:2.0;stroke-dasharray:-;stroke-linecap:round;stroke-linejoin:round;" /><path d="M 441.0,252.0 L 423,252 L 405,252" style="stroke:black;fill:none;stroke-width:2.0;stroke-dasharray:-;stroke-linecap:round;stroke-linejoin:round;" /><path d="M 405.0,252.0 L 405,237.6" style="stroke:black;fill:none;stroke-width:2.0;stroke-dasharray:-;stroke-linecap:round;stroke-linejoin:round;" /><path d="M 405.0,237.6 L 398.25,237.6" style="stroke:black;fill:none;stroke-width:2.0;stroke-dasharray:-;stroke-linecap:round;stroke-linejoin:round;" /><path d="M 405.0,237.6 L 411.75,237.6" style="stroke:black;fill:none;stroke-width:2.0;stroke-dasharray:-;stroke-linecap:round;stroke-linejoin:round;" /><path d="M 441.0,216.0 L 423,216 L 405,216" style="stroke:black;fill:none;stroke-width:2.0;stroke-dasharray:-;stroke-linecap:round;stroke-linejoin:round;" /><path d="M 405.0,216.0 L 405,201.6" style="stroke:black;fill:none;stroke-width:2.0;stroke-dasharray:-;stroke-linecap:round;stroke-linejoin:round;" /><path d="M 405.0,201.6 L 398.25,201.6" style="stroke:black;fill:none;stroke-width:2.0;stroke-dasharray:-;stroke-linecap:round;stroke-linejoin:round;" /><path d="M 405.0,201.6 L 411.75,201.6" style="stroke:black;fill:none;stroke-width:2.0;stroke-dasharray:-;stroke-linecap:round;stroke-linejoin:round;" /><path d="M 441.0,288.0 L 423,288 L 405,288" style="stroke:black;fill:none;stroke-width:2.0;stroke-dasharray:-;stroke-linecap:round;stroke-linejoin:round;" /><path d="M 405.0,288.0 L 405,302.4 L 396,302.4 L 414,302.4 M 398.7,306.72 L 411.3,306.72 M 403.2,311.04 L 406.8,311.04" style="stroke:black;fill:none;stroke-width:2.0;stroke-dasharray:-;stroke-linecap:round;stroke-linejoin:round;" /><path d="M 144.0,-306.0 L 423,-306 L 423,-432 L 450,-432" style="stroke:steelblue;fill:none;stroke-width:2.0;stroke-dasharray:-;stroke-linecap:round;stroke-linejoin:round;" /><path d="M 144.0,-264.85714285714283 L 171,-264.857 L 171,-405 L 450,-405" style="stroke:steelblue;fill:none;stroke-width:2.0;stroke-dasharray:-;stroke-linecap:round;stroke-linejoin:round;" /><path d="M 144.0,-223.7142857142857 L 180,-223.714 L 180,-378 L 450,-378" style="stroke:steelblue;fill:none;stroke-width:2.0;stroke-dasharray:-;stroke-linecap:round;stroke-linejoin:round;" /><path d="M 144.0,-182.57142857142856 L 414,-182.571 L 414,-216 L 441,-216" style="stroke:steelblue;fill:none;stroke-width:2.0;stroke-dasharray:-;stroke-linecap:round;stroke-linejoin:round;" /><path d="M 144.0,-141.42857142857142 L 414,-141.429 L 414,-180 L 441,-180" style="stroke:steelblue;fill:none;stroke-width:2.0;stroke-dasharray:-;stroke-linecap:round;stroke-linejoin:round;" /><path d="M 144.0,-59.14285714285714 L 414,-59.143 L 414,108 L 441,108" style="stroke:steelblue;fill:none;stroke-width:2.0;stroke-dasharray:-;stroke-linecap:round;stroke-linejoin:round;" /><path d="M 144.0,-18.0 L 171,-18 L 171,144 L 441,144" style="stroke:steelblue;fill:none;stroke-width:2.0;stroke-dasharray:-;stroke-linecap:round;stroke-linejoin:round;" /><path d="M 621.0,-216.0 L 648,-216 L 648,-180 L 684,-180" style="stroke:black;fill:none;stroke-width:2.0;stroke-dasharray:-;stroke-linecap:round;stroke-linejoin:round;" /><path d="M 621.0,-156.00000000000003 L 657,-156 L 657,-144 L 684,-144" style="stroke:black;fill:none;stroke-width:2.0;stroke-dasharray:-;stroke-linecap:round;stroke-linejoin:round;" /><path d="M 621.0,-96.00000000000001 L 657,-96 L 657,-108 L 684,-108" style="stroke:black;fill:none;stroke-width:2.0;stroke-dasharray:-;stroke-linecap:round;stroke-linejoin:round;" /><path d="M 621.0,-36.0 L 648,-36 L 648,-72 L 684,-72" style="stroke:black;fill:none;stroke-width:2.0;stroke-dasharray:-;stroke-linecap:round;stroke-linejoin:round;" /><path d="M 621.0,108.0 L 648,108 L 648,144 L 684,144" style="stroke:black;fill:none;stroke-width:2.0;stroke-dasharray:-;stroke-linecap:round;stroke-linejoin:round;" /><path d="M 621.0,167.99999999999997 L 657,168 L 657,180 L 684,180" style="stroke:black;fill:none;stroke-width:2.0;stroke-dasharray:-;stroke-linecap:round;stroke-linejoin:round;" /><path d="M 621.0,228.0 L 657,228 L 657,216 L 684,216" style="stroke:black;fill:none;stroke-width:2.0;stroke-dasharray:-;stroke-linecap:round;stroke-linejoin:round;" /><path d="M 621.0,288.0 L 648,288 L 648,252 L 684,252" style="stroke:black;fill:none;stroke-width:2.0;stroke-dasharray:-;stroke-linecap:round;stroke-linejoin:round;" /><text x="5.3999999999999995" y="-32.0" dominant-baseline="central" fill="black" font-size="14" font-family="sans" text-anchor="start"><tspan x="5.3999999999999995" dy="14">GND</tspan></text><text x="5.3999999999999995" y="-176.0" dominant-baseline="central" fill="black" font-size="14" font-family="sans" text-anchor="start"><tspan x="5.3999999999999995" dy="14">3V3</tspan></text><text x="5.3999999999999995" y="-320.0" dominant-baseline="central" fill="black" font-size="14" font-family="sans" text-anchor="start"><tspan x="5.3999999999999995" dy="14">5V</tspan></text><text x="128.70000000000002" y="-31.7" dominant-baseline="ideographic" fill="black" font-size="11" font-family="sans" text-anchor="start"><tspan x="128.70000000000002" dy="11">D6</tspan></text><text x="120.60000000000001" y="-32.0" dominant-baseline="central" fill="black" font-size="14" font-family="sans" text-anchor="end"><tspan x="120.60000000000001" dy="14">GPIO0</tspan></text><text x="128.70000000000002" y="-72.84285714285714" dominant-baseline="ideographic" fill="black" font-size="11" font-family="sans" text-anchor="start"><tspan x="128.70000000000002" dy="11">D10</tspan></text><text x="120.60000000000001" y="-73.14285714285714" dominant-baseline="central" fill="black" font-size="14" font-family="sans" text-anchor="end"><tspan x="120.60000000000001" dy="14">GPIO3</tspan></text><text x="128.70000000000002" y="-113.9857142857143" dominant-baseline="ideographic" fill="black" font-size="11" font-family="sans" text-anchor="start"><tspan x="128.70000000000002" dy="11">D7</tspan></text><text x="120.60000000000001" y="-114.28571428571428" dominant-baseline="central" fill="black" font-size="14" font-family="sans" text-anchor="end"><tspan x="120.60000000000001" dy="14">GPIO1</tspan></text><text x="128.70000000000002" y="-155.1285714285714" dominant-baseline="ideographic" fill="black" font-size="11" font-family="sans" text-anchor="start"><tspan x="128.70000000000002" dy="11">D9</tspan></text><text x="120.60000000000001" y="-155.42857142857142" dominant-baseline="central" fill="black" font-size="14" font-family="sans" text-anchor="end"><tspan x="120.60000000000001" dy="14">GPIO4</tspan></text><text x="128.70000000000002" y="-196.27142857142857" dominant-baseline="ideographic" fill="black" font-size="11" font-family="sans" text-anchor="start"><tspan x="128.70000000000002" dy="11">D8</tspan></text><text x="120.60000000000001" y="-196.57142857142856" dominant-baseline="central" fill="black" font-size="14" font-family="sans" text-anchor="end"><tspan x="120.60000000000001" dy="14">GPIO2</tspan></text><text x="128.70000000000002" y="-237.41428571428568" dominant-baseline="ideographic" fill="black" font-size="11" font-family="sans" text-anchor="start"><tspan x="128.70000000000002" dy="11">D3</tspan></text><text x="120.60000000000001" y="-237.7142857142857" dominant-baseline="central" fill="black" font-size="14" font-family="sans" text-anchor="end"><tspan x="120.60000000000001" dy="14">GPIO5</tspan></text><text x="128.70000000000002" y="-278.5571428571428" dominant-baseline="ideographic" fill="black" font-size="11" font-family="sans" text-anchor="start"><tspan x="128.70000000000002" dy="11">D4</tspan></text><text x="120.60000000000001" y="-278.85714285714283" dominant-baseline="central" fill="black" font-size="14" font-family="sans" text-anchor="end"><tspan x="120.60000000000001" dy="14">GPIO6</tspan></text><text x="128.70000000000002" y="-319.7" dominant-baseline="ideographic" fill="black" font-size="11" font-family="sans" text-anchor="start"><tspan x="128.70000000000002" dy="11">D5</tspan></text><text x="120.60000000000001" y="-320.0" dominant-baseline="central" fill="black" font-size="14" font-family="sans" text-anchor="end"><tspan x="120.60000000000001" dy="14">GPIO7</tspan></text><text x="63.0" y="3.4000000000000004" dominant-baseline="hanging" fill="black" font-size="11" font-family="sans" text-anchor="middle"><tspan x="63.0" dy="11">XIAO RP2350</tspan></text><text x="473.40000000000003" y="-338.0" dominant-baseline="central" fill="black" font-size="14" font-family="sans" text-anchor="start"><tspan x="473.40000000000003" dy="14">GND</tspan></text><text x="473.40000000000003" y="-365.0" dominant-baseline="central" fill="black" font-size="14" font-family="sans" text-anchor="start"><tspan x="473.40000000000003" dy="14">VCC</tspan></text><text x="473.40000000000003" y="-392.0" dominant-baseline="central" fill="black" font-size="14" font-family="sans" text-anchor="start"><tspan x="473.40000000000003" dy="14">INT</tspan></text><text x="473.40000000000003" y="-419.0" dominant-baseline="central" fill="black" font-size="14" font-family="sans" text-anchor="start"><tspan x="473.40000000000003" dy="14">SDA</tspan></text><text x="473.40000000000003" y="-446.0" dominant-baseline="central" fill="black" font-size="14" font-family="sans" text-anchor="start"><tspan x="473.40000000000003" dy="14">SCL</tspan></text><text x="522.0" y="-302.59999999999997" dominant-baseline="hanging" fill="black" font-size="11" font-family="sans" text-anchor="middle"><tspan x="522.0" dy="11">GY-521 MPU6050</tspan><tspan x="522.0" dy="11">0x68</tspan></text><text x="464.40000000000003" y="-50.0" dominant-baseline="central" fill="black" font-size="14" font-family="sans" text-anchor="start"><tspan x="464.40000000000003" dy="14">GND</tspan></text><text x="464.40000000000003" y="-86.0" dominant-baseline="central" fill="black" font-size="14" font-family="sans" text-anchor="start"><tspan x="464.40000000000003" dy="14">VDD</tspan></text><text x="464.40000000000003" y="-122.0" dominant-baseline="central" fill="black" font-size="14" font-family="sans" text-anchor="start"><tspan x="464.40000000000003" dy="14">VMOT</tspan></text><text x="464.40000000000003" y="-158.0" dominant-baseline="central" fill="black" font-size="14" font-family="sans" text-anchor="start"><tspan x="464.40000000000003" dy="14">nENABLE</tspan></text><text x="464.40000000000003" y="-194.0" dominant-baseline="central" fill="black" font-size="14" font-family="sans" text-anchor="start"><tspan x="464.40000000000003" dy="14">DIR</tspan></text><text x="464.40000000000003" y="-230.0" dominant-baseline="central" fill="black" font-size="14" font-family="sans" text-anchor="start"><tspan x="464.40000000000003" dy="14">STEP</tspan></text><text x="597.6" y="-50.0" dominant-baseline="central" fill="black" font-size="14" font-family="sans" text-anchor="end"><tspan x="597.6" dy="14">B2</tspan></text><text x="597.6" y="-110.00000000000001" dominant-baseline="central" fill="black" font-size="14" font-family="sans" text-anchor="end"><tspan x="597.6" dy="14">B1</tspan></text><text x="597.6" y="-170.00000000000003" dominant-baseline="central" fill="black" font-size="14" font-family="sans" text-anchor="end"><tspan x="597.6" dy="14">A2</tspan></text><text x="597.6" y="-230.0" dominant-baseline="central" fill="black" font-size="14" font-family="sans" text-anchor="end"><tspan x="597.6" dy="14">A1</tspan></text><text x="531.0" y="-14.600000000000003" dominant-baseline="hanging" fill="black" font-size="11" font-family="sans" text-anchor="middle"><tspan x="531.0" dy="11">DRV8825 (left)</tspan><tspan x="531.0" dy="11">1/8 µstep</tspan></text><text x="464.40000000000003" y="274.0" dominant-baseline="central" fill="black" font-size="14" font-family="sans" text-anchor="start"><tspan x="464.40000000000003" dy="14">GND</tspan></text><text x="464.40000000000003" y="238.0" dominant-baseline="central" fill="black" font-size="14" font-family="sans" text-anchor="start"><tspan x="464.40000000000003" dy="14">VDD</tspan></text><text x="464.40000000000003" y="202.0" dominant-baseline="central" fill="black" font-size="14" font-family="sans" text-anchor="start"><tspan x="464.40000000000003" dy="14">VMOT</tspan></text><text x="464.40000000000003" y="166.0" dominant-baseline="central" fill="black" font-size="14" font-family="sans" text-anchor="start"><tspan x="464.40000000000003" dy="14">nENABLE</tspan></text><text x="464.40000000000003" y="130.0" dominant-baseline="central" fill="black" font-size="14" font-family="sans" text-anchor="start"><tspan x="464.40000000000003" dy="14">DIR</tspan></text><text x="464.40000000000003" y="94.0" dominant-baseline="central" fill="black" font-size="14" font-family="sans" text-anchor="start"><tspan x="464.40000000000003" dy="14">STEP</tspan></text><text x="597.6" y="274.0" dominant-baseline="central" fill="black" font-size="14" font-family="sans" text-anchor="end"><tspan x="597.6" dy="14">B2</tspan></text><text x="597.6" y="214.0" dominant-baseline="central" fill="black" font-size="14" font-family="sans" text-anchor="end"><tspan x="597.6" dy="14">B1</tspan></text><text x="597.6" y="153.99999999999997" dominant-baseline="central" fill="black" font-size="14" font-family="sans" text-anchor="end"><tspan x="597.6" dy="14">A2</tspan></text><text x="597.6" y="94.0" dominant-baseline="central" fill="black" font-size="14" font-family="sans" text-anchor="end"><tspan x="597.6" dy="14">A1</tspan></text><text x="531.0" y="309.40000000000003" dominant-baseline="hanging" fill="black" font-size="11" font-family="sans" text-anchor="middle"><tspan x="531.0" dy="11">DRV8825 (right)</tspan><tspan x="531.0" dy="11">1/8 µstep</tspan></text><text x="707.4" y="-86.0" dominant-baseline="central" fill="black" font-size="14" font-family="sans" text-anchor="start"><tspan x="707.4" dy="14">B2</tspan></text><text x="707.4" y="-122.0" dominant-baseline="central" fill="black" font-size="14" font-family="sans" text-anchor="start"><tspan x="707.4" dy="14">B1</tspan></text><text x="707.4" y="-158.0" dominant-baseline="central" fill="black" font-size="14" font-family="sans" text-anchor="start"><tspan x="707.4" dy="14">A2</tspan></text><text x="707.4" y="-194.0" dominant-baseline="central" fill="black" font-size="14" font-family="sans" text-anchor="start"><tspan x="707.4" dy="14">A1</tspan></text><text x="738.0" y="-50.6" dominant-baseline="hanging" fill="black" font-size="11" font-family="sans" text-anchor="middle"><tspan x="738.0" dy="11">Left NEMA17</tspan></text><text x="707.4" y="238.0" dominant-baseline="central" fill="black" font-size="14" font-family="sans" text-anchor="start"><tspan x="707.4" dy="14">B2</tspan></text><text x="707.4" y="202.0" dominant-baseline="central" fill="black" font-size="14" font-family="sans" text-anchor="start"><tspan x="707.4" dy="14">B1</tspan></text><text x="707.4" y="166.0" dominant-baseline="central" fill="black" font-size="14" font-family="sans" text-anchor="start"><tspan x="707.4" dy="14">A2</tspan></text><text x="707.4" y="130.0" dominant-baseline="central" fill="black" font-size="14" font-family="sans" text-anchor="start"><tspan x="707.4" dy="14">A1</tspan></text><text x="738.0" y="273.40000000000003" dominant-baseline="hanging" fill="black" font-size="11" font-family="sans" text-anchor="middle"><tspan x="738.0" dy="11">Right NEMA17</tspan></text><text x="194.4" y="-245.0" dominant-baseline="central" fill="black" font-size="11" font-family="sans" text-anchor="end"><tspan x="194.4" dy="11">10 kΩ</tspan></text><text x="207.0" y="-299.0" dominant-baseline="ideographic" fill="black" font-size="11" font-family="sans" text-anchor="middle"><tspan x="207.0" dy="11">+3V3</tspan></text><text x="-36.0" y="-191.0" dominant-baseline="ideographic" fill="black" font-size="11" font-family="sans" text-anchor="middle"><tspan x="-36.0" dy="11">+3V3</tspan></text><text x="-36.0" y="-335.0" dominant-baseline="ideographic" fill="black" font-size="11" font-family="sans" text-anchor="middle"><tspan x="-36.0" dy="11">+5V buck</tspan></text><text x="414.0" y="-380.0" dominant-baseline="ideographic" fill="black" font-size="11" font-family="sans" text-anchor="middle"><tspan x="414.0" dy="11">+3V3</tspan></text><text x="405.0" y="-101.0" dominant-baseline="ideographic" fill="black" font-size="11" font-family="sans" text-anchor="middle"><tspan x="405.0" dy="11">+3V3</tspan></text><text x="405.0" y="-137.0" dominant-baseline="ideographic" fill="black" font-size="11" font-family="sans" text-anchor="middle"><tspan x="405.0" dy="11">+VMOT</tspan></text><text x="405.0" y="223.0" dominant-baseline="ideographic" fill="black" font-size="11" font-family="sans" text-anchor="middle"><tspan x="405.0" dy="11">+3V3</tspan></text><text x="405.0" y="187.0" dominant-baseline="ideographic" fill="black" font-size="11" font-family="sans" text-anchor="middle"><tspan x="405.0" dy="11">+VMOT</tspan></text></svg>
