<svg xmlns="http://www.w3.org/2000/svg" xmlns:xlink="http://www.w3.org/1999/xlink" xml:lang="en" height="500.9pt" width="674.3pt" viewBox="-97.40799999999997 -299.8 674.3 500.9"><polygon points="414,99 414,135 423,135 423,99 " style="stroke:black;fill:none;stroke-width:2.0;stroke-dasharray:-;stroke-linecap:round;stroke-linejoin:round;" /><polyline points="423,99 436.5,85.5 436.5,148.5 423,135 " style="stroke:black;fill:none;stroke-width:2.0;stroke-dasharray:-;stroke-linecap:round;stroke-linejoin:round;" /><polygon points="53.28,99 53.28,135 62.28,135 62.28,99 " style="stroke:black;fill:none;stroke-width:2.0;stroke-dasharray:-;stroke-linecap:round;stroke-linejoin:round;" /><polyline points="62.28,99 75.78,85.5 75.78,148.5 62.28,135 " style="stroke:black;fill:none;stroke-width:2.0;stroke-dasharray:-;stroke-linecap:round;stroke-linejoin:round;" /><polygon points="126.72,99 126.72,135 135.72,135 135.72,99 " style="stroke:black;fill:none;stroke-width:2.0;stroke-dasharray:-;stroke-linecap:round;stroke-linejoin:round;" /><polyline points="135.72,99 149.22,85.5 149.22,148.5 135.72,135 " style="stroke:black;fill:none;stroke-width:2.0;stroke-dasharray:-;stroke-linecap:round;stroke-linejoin:round;" /><polygon points="-45,-252.9 -36,-265.5 -27,-252.9 " style="stroke:black;fill:none;stroke-width:2.0;stroke-dasharray:-;stroke-linecap:round;stroke-linejoin:round;" /><path d="M 0.0,-0.0 L 180,-0 L 180,-180 L 0,-180 L 0,-0" style="stroke:black;fill:none;stroke-width:2.0;stroke-dasharray:-;stroke-linecap:round;stroke-linejoin:round;" /><path d="M 0.0,-28.8 L -18,-28.8" style="stroke:black;fill:none;stroke-width:2.0;stroke-dasharray:-;stroke-linecap:round;stroke-linejoin:round;" /><path d="M 0.0,-69.6 L -18,-69.6" style="stroke:black;fill:none;stroke-width:2.0;stroke-dasharray:-;stroke-linecap:round;stroke-linejoin:round;" /><path d="M 0.0,-110.39999999999999 L -18,-110.4" style="stroke:black;fill:none;stroke-width:2.0;stroke-dasharray:-;stroke-linecap:round;stroke-linejoin:round;" /><path d="M 0.0,-151.20000000000002 L -18,-151.2" style="stroke:black;fill:none;stroke-width:2.0;stroke-dasharray:-;stroke-linecap:round;stroke-linejoin:round;" /><path d="M 180.0,-28.8 L 198,-28.8" style="stroke:black;fill:none;stroke-width:2.0;stroke-dasharray:-;stroke-linecap:round;stroke-linejoin:round;" /><path d="M 180.0,-90.0 L 198,-90" style="stroke:black;fill:none;stroke-width:2.0;stroke-dasharray:-;stroke-linecap:round;stroke-linejoin:round;" /><path d="M 180.0,-151.20000000000002 L 198,-151.2" style="stroke:black;fill:none;stroke-width:2.0;stroke-dasharray:-;stroke-linecap:round;stroke-linejoin:round;" /><path d="M 53.28,-0.0 L 53.28,18" style="stroke:black;fill:none;stroke-width:2.0;stroke-dasharray:-;stroke-linecap:round;stroke-linejoin:round;" /><path d="M 126.72000000000001,-0.0 L 126.72,18" style="stroke:black;fill:none;stroke-width:2.0;stroke-dasharray:-;stroke-linecap:round;stroke-linejoin:round;" /><path d="M 306.0,-0.0 L 522,-0 L 522,-180 L 306,-180 L 306,-0" style="stroke:black;fill:none;stroke-width:2.0;stroke-dasharray:-;stroke-linecap:round;stroke-linejoin:round;" /><path d="M 306.0,-18.0 L 288,-18" style="stroke:black;fill:none;stroke-width:2.0;stroke-dasharray:-;stroke-linecap:round;stroke-linejoin:round;" /><path d="M 306.0,-90.0 L 288,-90" style="stroke:black;fill:none;stroke-width:2.0;stroke-dasharray:-;stroke-linecap:round;stroke-linejoin:round;" /><path d="M 306.0,-162.0 L 288,-162" style="stroke:black;fill:none;stroke-width:2.0;stroke-dasharray:-;stroke-linecap:round;stroke-linejoin:round;" /><path d="M 522.0,-18.0 L 540,-18" style="stroke:black;fill:none;stroke-width:2.0;stroke-dasharray:-;stroke-linecap:round;stroke-linejoin:round;" /><path d="M 522.0,-66.0 L 540,-66" style="stroke:black;fill:none;stroke-width:2.0;stroke-dasharray:-;stroke-linecap:round;stroke-linejoin:round;" /><path d="M 522.0,-114.0 L 540,-114" style="stroke:black;fill:none;stroke-width:2.0;stroke-dasharray:-;stroke-linecap:round;stroke-linejoin:round;" /><path d="M 522.0,-162.0 L 540,-162" style="stroke:black;fill:none;stroke-width:2.0;stroke-dasharray:-;stroke-linecap:round;stroke-linejoin:round;" /><path d="M 378.0,-0.0 L 378,18" style="stroke:black;fill:none;stroke-width:2.0;stroke-dasharray:-;stroke-linecap:round;stroke-linejoin:round;" /><path d="M 450.0,-0.0 L 450,18" style="stroke:black;fill:none;stroke-width:2.0;stroke-dasharray:-;stroke-linecap:round;stroke-linejoin:round;" /><path d="M 405.0,108.0 L 414,108" style="stroke:black;fill:none;stroke-width:2.0;stroke-dasharray:-;stroke-linecap:round;stroke-linejoin:round;" /><path d="M 405.0,126.0 L 414,126" style="stroke:black;fill:none;stroke-width:2.0;stroke-dasharray:-;stroke-linecap:round;stroke-linejoin:round;" /><path d="M 44.28,108.0 L 53.28,108" style="stroke:black;fill:none;stroke-width:2.0;stroke-dasharray:-;stroke-linecap:round;stroke-linejoin:round;" /><path d="M 44.28,126.0 L 53.28,126" style="stroke:black;fill:none;stroke-width:2.0;stroke-dasharray:-;stroke-linecap:round;stroke-linejoin:round;" /><path d="M 117.72000000000001,108.0 L 126.72,108" style="stroke:black;fill:none;stroke-width:2.0;stroke-dasharray:-;stroke-linecap:round;stroke-linejoin:round;" /><path d="M 117.72000000000001,126.0 L 126.72,126" style="stroke:black;fill:none;stroke-width:2.0;stroke-dasharray:-;stroke-linecap:round;stroke-linejoin:round;" /><path d="M -18.0,-69.6 L -27,-69.6 L -36,-69.6" style="stroke:#D55E00;fill:none;stroke-width:2.0;stroke-dasharray:-;stroke-linecap:round;stroke-linejoin:round;" /><path d="M -36.0,-69.6 L -36,-84" style="stroke:#D55E00;fill:none;stroke-width:2.0;stroke-dasharray:-;stroke-linecap:round;stroke-linejoin:round;" /><path d="M -36.0,-84.0 L -42.75,-84" style="stroke:#D55E00;fill:none;stroke-width:2.0;stroke-dasharray:-;stroke-linecap:round;stroke-linejoin:round;" /><path d="M -36.0,-84.0 L -29.25,-84" style="stroke:#D55E00;fill:none;stroke-width:2.0;stroke-dasharray:-;stroke-linecap:round;stroke-linejoin:round;" /><path d="M -18.0,-28.8 L -27,-28.8 L -36,-28.8" style="stroke:#000000;fill:none;stroke-width:2.0;stroke-dasharray:-;stroke-linecap:round;stroke-linejoin:round;" /><path d="M -36.0,-28.800000000000004 L -36,-14.4 L -45,-14.4 L -27,-14.4 M -42.3,-10.08 L -29.7,-10.08 M -37.8,-5.76 L -34.2,-5.76" style="stroke:#000000;fill:none;stroke-width:2.0;stroke-dasharray:-;stroke-linecap:round;stroke-linejoin:round;" /><path d="M 540.0,-162.0 L 549,-162 L 558,-162" style="stroke:#D55E00;fill:none;stroke-width:2.0;stroke-dasharray:-;stroke-linecap:round;stroke-linejoin:round;" /><path d="M 558.0,-162.0 L 558,-176.4" style="stroke:#D55E00;fill:none;stroke-width:2.0;stroke-dasharray:-;stroke-linecap:round;stroke-linejoin:round;" /><path d="M 558.0,-176.4 L 551.25,-176.4" style="stroke:#D55E00;fill:none;stroke-width:2.0;stroke-dasharray:-;stroke-linecap:round;stroke-linejoin:round;" /><path d="M 558.0,-176.4 L 564.75,-176.4" style="stroke:#D55E00;fill:none;stroke-width:2.0;stroke-dasharray:-;stroke-linecap:round;stroke-linejoin:round;" /><path d="M 540.0,-114.0 L 549,-114 L 558,-114" style="stroke:#000000;fill:none;stroke-width:2.0;stroke-dasharray:-;stroke-linecap:round;stroke-linejoin:round;" /><path d="M 558.0,-114.0 L 558,-99.6 L 549,-99.6 L 567,-99.6 M 551.7,-95.28 L 564.3,-95.28 M 556.2,-90.96 L 559.8,-90.96" style="stroke:#000000;fill:none;stroke-width:2.0;stroke-dasharray:-;stroke-linecap:round;stroke-linejoin:round;" /><path d="M -18.0,-151.20000000000002 L -27,-151.2 L -36,-151.2" style="stroke:black;fill:none;stroke-width:2.0;stroke-dasharray:-;stroke-linecap:round;stroke-linejoin:round;" /><path d="M -36.0,-151.20000000000002 L -36,-169.2 L -45,-172.2 L -27,-178.2 L -45,-184.2 L -27,-190.2 L -45,-196.2 L -27,-202.2 L -36,-205.2 L -36,-223.2" style="stroke:black;fill:none;stroke-width:2.0;stroke-dasharray:-;stroke-linecap:round;stroke-linejoin:round;" /><path d="M -35.99999999999999,-223.20000000000002 L -36,-252.9 M -45,-265.5 L -27,-265.5 M -36,-265.5 L -36,-295.2" style="stroke:black;fill:none;stroke-width:2.0;stroke-dasharray:-;stroke-linecap:round;stroke-linejoin:round;" /><path d="M -49.49999999999999,-261.90000000000003 L -58.999,-267.328" style="stroke:black;fill:none;stroke-width:2.0;stroke-dasharray:-;stroke-linecap:round;stroke-linejoin:round;" /><path d="M -63.514 -269.908 L -57.57 -269.828 L -60.428 -264.827 Z" style="stroke:black;fill:black;stroke-linecap:butt;stroke-linejoin:miter;" /><path d="M -49.49999999999999,-253.79999999999998 L -58.999,-259.228" style="stroke:black;fill:none;stroke-width:2.0;stroke-dasharray:-;stroke-linecap:round;stroke-linejoin:round;" /><path d="M -63.514 -261.808 L -57.57 -261.728 L -60.428 -256.727 Z" style="stroke:black;fill:black;stroke-linecap:butt;stroke-linejoin:miter;" /><path d="M -35.99999999999999,-295.2 L -45,-295.2 L -54,-295.2" style="stroke:#000000;fill:none;stroke-width:2.0;stroke-dasharray:-;stroke-linecap:round;stroke-linejoin:round;" /><path d="M -53.99999999999999,-295.2 L -54,-280.8 L -63,-280.8 L -45,-280.8 M -60.3,-276.48 L -47.7,-276.48 M -55.8,-272.16 L -52.2,-272.16" style="stroke:#000000;fill:none;stroke-width:2.0;stroke-dasharray:-;stroke-linecap:round;stroke-linejoin:round;" /><path d="M 44.28,126.0 L 44.28,135 L 44.28,144" style="stroke:#000000;fill:none;stroke-width:2.0;stroke-dasharray:-;stroke-linecap:round;stroke-linejoin:round;" /><path d="M 44.28,144.0 L 44.28,158.4 L 35.28,158.4 L 53.28,158.4 M 37.98,162.72 L 50.58,162.72 M 42.48,167.04 L 46.08,167.04" style="stroke:#000000;fill:none;stroke-width:2.0;stroke-dasharray:-;stroke-linecap:round;stroke-linejoin:round;" /><path d="M 117.72000000000001,126.0 L 117.72,135 L 117.72,144" style="stroke:#000000;fill:none;stroke-width:2.0;stroke-dasharray:-;stroke-linecap:round;stroke-linejoin:round;" /><path d="M 117.72000000000001,144.0 L 117.72,158.4 L 108.72,158.4 L 126.72,158.4 M 111.42,162.72 L 124.02,162.72 M 115.92,167.04 L 119.52,167.04" style="stroke:#000000;fill:none;stroke-width:2.0;stroke-dasharray:-;stroke-linecap:round;stroke-linejoin:round;" /><path d="M 198 -151.2 L 261 -151.2 L 261 -162 L 288 -162" style="stroke:#009E73;fill:none;stroke-width:2.0;stroke-dasharray:-;stroke-linecap:round;stroke-linejoin:round;" /><path d="M 198 -90 L 288 -90" style="stroke:#009E73;fill:none;stroke-width:2.0;stroke-dasharray:-;stroke-linecap:round;stroke-linejoin:round;" /><path d="M 198 -28.8 L 261 -28.8 L 261 -18 L 288 -18" style="stroke:#009E73;fill:none;stroke-width:2.0;stroke-dasharray:-;stroke-linecap:round;stroke-linejoin:round;" /><path d="M 378 18 L 378 108 L 405 108" style="stroke:#666666;fill:none;stroke-width:2.0;stroke-dasharray:-;stroke-linecap:round;stroke-linejoin:round;" /><path d="M 450 18 L 450 45 L 383.4 45 C 383.4 42.018 380.982 39.6 378 39.6 C 375.018 39.6 372.6 42.018 372.6 45 L 360 45 L 360 126 L 405 126" style="stroke:#666666;fill:none;stroke-width:2.0;stroke-dasharray:-;stroke-linecap:round;stroke-linejoin:round;" /><path d="M 53.28 18 L 53.28 45 L 18 45 L 18 108 L 44.28 108" style="stroke:#E69F00;fill:none;stroke-width:2.0;stroke-dasharray:-;stroke-linecap:round;stroke-linejoin:round;" /><path d="M 126.72 18 L 126.72 45 L 90 45 L 90 108 L 117.72 108" style="stroke:#E69F00;fill:none;stroke-width:2.0;stroke-dasharray:-;stroke-linecap:round;stroke-linejoin:round;" /><text x="-2.6999999999999997" y="-42.5" dominant-baseline="ideographic" fill="black" font-size="11" font-family="sans" text-anchor="end"><tspan x="-2.6999999999999997" dy="11">3</tspan></text><text x="5.3999999999999995" y="-42.8" dominant-baseline="central" fill="black" font-size="14" font-family="sans" text-anchor="start"><tspan x="5.3999999999999995" dy="14">GND</tspan></text><text x="-2.6999999999999997" y="-83.3" dominant-baseline="ideographic" fill="black" font-size="11" font-family="sans" text-anchor="end"><tspan x="-2.6999999999999997" dy="11">2</tspan></text><text x="5.3999999999999995" y="-83.6" dominant-baseline="central" fill="black" font-size="14" font-family="sans" text-anchor="start"><tspan x="5.3999999999999995" dy="14">3V3</tspan></text><text x="-2.6999999999999997" y="-124.1" dominant-baseline="ideographic" fill="black" font-size="11" font-family="sans" text-anchor="end"><tspan x="-2.6999999999999997" dy="11">1</tspan></text><text x="5.3999999999999995" y="-124.39999999999999" dominant-baseline="central" fill="black" font-size="14" font-family="sans" text-anchor="start"><tspan x="5.3999999999999995" dy="14">5V</tspan></text><text x="-2.6999999999999997" y="-164.9" dominant-baseline="ideographic" fill="black" font-size="11" font-family="sans" text-anchor="end"><tspan x="-2.6999999999999997" dy="11">4</tspan></text><text x="5.3999999999999995" y="-165.20000000000002" dominant-baseline="central" fill="black" font-size="14" font-family="sans" text-anchor="start"><tspan x="5.3999999999999995" dy="14">GPIO2</tspan></text><text x="182.70000000000002" y="-42.5" dominant-baseline="ideographic" fill="black" font-size="11" font-family="sans" text-anchor="start"><tspan x="182.70000000000002" dy="11">7</tspan></text><text x="174.6" y="-42.8" dominant-baseline="central" fill="black" font-size="14" font-family="sans" text-anchor="end"><tspan x="174.6" dy="14">GPIO7</tspan></text><text x="182.70000000000002" y="-103.7" dominant-baseline="ideographic" fill="black" font-size="11" font-family="sans" text-anchor="start"><tspan x="182.70000000000002" dy="11">6</tspan></text><text x="174.6" y="-104.0" dominant-baseline="central" fill="black" font-size="14" font-family="sans" text-anchor="end"><tspan x="174.6" dy="14">GPIO6</tspan></text><text x="182.70000000000002" y="-164.9" dominant-baseline="ideographic" fill="black" font-size="11" font-family="sans" text-anchor="start"><tspan x="182.70000000000002" dy="11">5</tspan></text><text x="174.6" y="-165.20000000000002" dominant-baseline="central" fill="black" font-size="14" font-family="sans" text-anchor="end"><tspan x="174.6" dy="14">GPIO5</tspan></text><text x="55.98" y="-8.3" dominant-baseline="hanging" fill="black" font-size="11" font-family="sans" text-anchor="start"><tspan x="55.98" dy="11">8</tspan></text><text x="53.28" y="-19.4" dominant-baseline="ideographic" fill="black" font-size="14" font-family="sans" text-anchor="middle"><tspan x="53.28" dy="14">GPIO8</tspan></text><text x="129.42000000000002" y="-8.3" dominant-baseline="hanging" fill="black" font-size="11" font-family="sans" text-anchor="start"><tspan x="129.42000000000002" dy="11">9</tspan></text><text x="126.72000000000001" y="-19.4" dominant-baseline="ideographic" fill="black" font-size="14" font-family="sans" text-anchor="middle"><tspan x="126.72000000000001" dy="14">GPIO9</tspan></text><text x="90.0" y="-206.4" dominant-baseline="ideographic" fill="black" font-size="12" font-family="sans" text-anchor="middle"><tspan x="90.0" dy="12">ESP32-S3-Zero</tspan></text><text x="311.40000000000003" y="-32.0" dominant-baseline="central" fill="black" font-size="14" font-family="sans" text-anchor="start"><tspan x="311.40000000000003" dy="14">DIN</tspan></text><text x="311.40000000000003" y="-104.0" dominant-baseline="central" fill="black" font-size="14" font-family="sans" text-anchor="start"><tspan x="311.40000000000003" dy="14">LRC</tspan></text><text x="311.40000000000003" y="-176.0" dominant-baseline="central" fill="black" font-size="14" font-family="sans" text-anchor="start"><tspan x="311.40000000000003" dy="14">BCLK</tspan></text><text x="516.6" y="-32.0" dominant-baseline="central" fill="black" font-size="14" font-family="sans" text-anchor="end"><tspan x="516.6" dy="14">GAIN</tspan></text><text x="516.6" y="-80.0" dominant-baseline="central" fill="black" font-size="14" font-family="sans" text-anchor="end"><tspan x="516.6" dy="14">SD</tspan></text><text x="516.6" y="-128.0" dominant-baseline="central" fill="black" font-size="14" font-family="sans" text-anchor="end"><tspan x="516.6" dy="14">GND</tspan></text><text x="516.6" y="-176.0" dominant-baseline="central" fill="black" font-size="14" font-family="sans" text-anchor="end"><tspan x="516.6" dy="14">VIN</tspan></text><text x="380.7" y="-8.299999999999994" dominant-baseline="hanging" fill="black" font-size="11" font-family="sans" text-anchor="start"><tspan x="380.7" dy="11">-</tspan></text><text x="378.0" y="-19.4" dominant-baseline="ideographic" fill="black" font-size="14" font-family="sans" text-anchor="middle"><tspan x="378.0" dy="14">OUT-</tspan></text><text x="452.7" y="-8.299999999999994" dominant-baseline="hanging" fill="black" font-size="11" font-family="sans" text-anchor="start"><tspan x="452.7" dy="11">+</tspan></text><text x="450.0" y="-19.4" dominant-baseline="ideographic" fill="black" font-size="14" font-family="sans" text-anchor="middle"><tspan x="450.0" dy="14">OUT+</tspan></text><text x="414.0" y="-206.4" dominant-baseline="ideographic" fill="black" font-size="12" font-family="sans" text-anchor="middle"><tspan x="414.0" dy="12">MAX98357A</tspan></text><text x="420.75" y="150.9" dominant-baseline="hanging" fill="black" font-size="12" font-family="sans" text-anchor="middle"><tspan x="420.75" dy="12">4-8 Ω  2-3 W</tspan></text><text x="60.03" y="172.5" dominant-baseline="hanging" fill="black" font-size="12" font-family="sans" text-anchor="middle"><tspan x="60.03" dy="12">Piezo A</tspan></text><text x="133.47000000000003" y="172.5" dominant-baseline="hanging" fill="black" font-size="12" font-family="sans" text-anchor="middle"><tspan x="133.47000000000003" dy="12">Piezo B</tspan></text><text x="-36.0" y="-99.60000000000001" dominant-baseline="ideographic" fill="#D55E00" font-size="12" font-family="sans" text-anchor="middle"><tspan x="-36.0" dy="12">+3V3</tspan></text><text x="558.0" y="-192.0" dominant-baseline="ideographic" fill="#D55E00" font-size="12" font-family="sans" text-anchor="middle"><tspan x="558.0" dy="12">+3V3</tspan></text><text x="-48.599999999999994" y="-199.20000000000002" dominant-baseline="central" fill="black" font-size="12" font-family="sans" text-anchor="end"><tspan x="-48.599999999999994" dy="12">220 Ω</tspan></text><text x="-49.004999999999995" y="-231.60000000000002" dominant-baseline="hanging" fill="black" font-size="12" font-family="sans" text-anchor="middle"><tspan x="-49.004999999999995" dy="12">Status</tspan></text><text x="-66.6" y="-295.67999999999995" dominant-baseline="central" fill="#000000" font-size="12" font-family="sans" text-anchor="end"><tspan x="-66.6" dy="12">GND</tspan></text></svg>
