<svg xmlns="http://www.w3.org/2000/svg" xmlns:xlink="http://www.w3.org/1999/xlink" xml:lang="en" height="490.1pt" width="602.3pt" viewBox="-97.40799999999997 -310.6 602.3 490.1"><polygon points="378.0,99.0 378.0,135.0 387.0,135.0 387.0,99.0 " style="stroke:black;fill:none;stroke-width:2.0;stroke-dasharray:-;stroke-linecap:round;stroke-linejoin:round;" /><polyline points="387.0,99.0 400.5,85.5 400.5,148.5 387.0,135.0 " style="stroke:black;fill:none;stroke-width:2.0;stroke-dasharray:-;stroke-linecap:round;stroke-linejoin:round;" /><polygon points="-44.99999999999999,-263.7 -35.99999999999999,-276.3 -26.999999999999993,-263.7 " style="stroke:black;fill:none;stroke-width:2.0;stroke-dasharray:-;stroke-linecap:round;stroke-linejoin:round;" /><path d="M 0.0,-0.0 L 108.0,-0.0 L 108.0,-180.0 L 0.0,-180.0 L 0.0,-0.0" style="stroke:black;fill:none;stroke-width:2.0;stroke-dasharray:-;stroke-linecap:round;stroke-linejoin:round;" /><path d="M 0.0,-18.0 L -18.0,-18.0" style="stroke:black;fill:none;stroke-width:2.0;stroke-dasharray:-;stroke-linecap:round;stroke-linejoin:round;" /><path d="M 0.0,-66.0 L -18.0,-66.0" style="stroke:black;fill:none;stroke-width:2.0;stroke-dasharray:-;stroke-linecap:round;stroke-linejoin:round;" /><path d="M 0.0,-114.0 L -18.0,-114.0" style="stroke:black;fill:none;stroke-width:2.0;stroke-dasharray:-;stroke-linecap:round;stroke-linejoin:round;" /><path d="M 0.0,-162.0 L -18.0,-162.0" style="stroke:black;fill:none;stroke-width:2.0;stroke-dasharray:-;stroke-linecap:round;stroke-linejoin:round;" /><path d="M 108.0,-18.0 L 126.0,-18.0" style="stroke:black;fill:none;stroke-width:2.0;stroke-dasharray:-;stroke-linecap:round;stroke-linejoin:round;" /><path d="M 108.0,-90.0 L 126.0,-90.0" style="stroke:black;fill:none;stroke-width:2.0;stroke-dasharray:-;stroke-linecap:round;stroke-linejoin:round;" /><path d="M 108.0,-162.0 L 126.0,-162.0" style="stroke:black;fill:none;stroke-width:2.0;stroke-dasharray:-;stroke-linecap:round;stroke-linejoin:round;" /><path d="M 306.0,-0.0 L 450.0,-0.0 L 450.0,-180.0 L 306.0,-180.0 L 306.0,-0.0" style="stroke:black;fill:none;stroke-width:2.0;stroke-dasharray:-;stroke-linecap:round;stroke-linejoin:round;" /><path d="M 306.0,-18.0 L 288.0,-18.0" style="stroke:black;fill:none;stroke-width:2.0;stroke-dasharray:-;stroke-linecap:round;stroke-linejoin:round;" /><path d="M 306.0,-90.0 L 288.0,-90.0" style="stroke:black;fill:none;stroke-width:2.0;stroke-dasharray:-;stroke-linecap:round;stroke-linejoin:round;" /><path d="M 306.0,-162.0 L 288.0,-162.0" style="stroke:black;fill:none;stroke-width:2.0;stroke-dasharray:-;stroke-linecap:round;stroke-linejoin:round;" /><path d="M 450.0,-18.0 L 468.0,-18.0" style="stroke:black;fill:none;stroke-width:2.0;stroke-dasharray:-;stroke-linecap:round;stroke-linejoin:round;" /><path d="M 450.0,-66.0 L 468.0,-66.0" style="stroke:black;fill:none;stroke-width:2.0;stroke-dasharray:-;stroke-linecap:round;stroke-linejoin:round;" /><path d="M 450.0,-114.0 L 468.0,-114.0" style="stroke:black;fill:none;stroke-width:2.0;stroke-dasharray:-;stroke-linecap:round;stroke-linejoin:round;" /><path d="M 450.0,-162.0 L 468.0,-162.0" style="stroke:black;fill:none;stroke-width:2.0;stroke-dasharray:-;stroke-linecap:round;stroke-linejoin:round;" /><path d="M 340.2,-0.0 L 340.2,18.0" style="stroke:black;fill:none;stroke-width:2.0;stroke-dasharray:-;stroke-linecap:round;stroke-linejoin:round;" /><path d="M 415.8,-0.0 L 415.8,18.0" style="stroke:black;fill:none;stroke-width:2.0;stroke-dasharray:-;stroke-linecap:round;stroke-linejoin:round;" /><path d="M 126.0,-162.0 L 288.0,-162.0" style="stroke:steelblue;fill:none;stroke-width:2.0;stroke-dasharray:-;stroke-linecap:round;stroke-linejoin:round;" /><path d="M 126.0,-90.0 L 288.0,-90.0" style="stroke:steelblue;fill:none;stroke-width:2.0;stroke-dasharray:-;stroke-linecap:round;stroke-linejoin:round;" /><path d="M 126.0,-18.0 L 288.0,-18.0" style="stroke:steelblue;fill:none;stroke-width:2.0;stroke-dasharray:-;stroke-linecap:round;stroke-linejoin:round;" /><path d="M -18.0,-66.0 L -27.0,-66.0 L -36.0,-66.0" style="stroke:black;fill:none;stroke-width:2.0;stroke-dasharray:-;stroke-linecap:round;stroke-linejoin:round;" /><path d="M -36.0,-66.0 L -36.0,-80.4" style="stroke:black;fill:none;stroke-width:2.0;stroke-dasharray:-;stroke-linecap:round;stroke-linejoin:round;" /><path d="M -36.0,-80.4 L -42.75,-80.4" style="stroke:black;fill:none;stroke-width:2.0;stroke-dasharray:-;stroke-linecap:round;stroke-linejoin:round;" /><path d="M -36.0,-80.4 L -29.25,-80.4" style="stroke:black;fill:none;stroke-width:2.0;stroke-dasharray:-;stroke-linecap:round;stroke-linejoin:round;" /><path d="M -18.0,-18.0 L -27.0,-18.0 L -36.0,-18.000000000000004" style="stroke:black;fill:none;stroke-width:2.0;stroke-dasharray:-;stroke-linecap:round;stroke-linejoin:round;" /><path d="M -36.0,-18.000000000000004 L -36.0,-3.600000000000003 L -45.0,-3.600000000000003 L -27.0,-3.600000000000003 M -42.300000000000004,0.7199999999999966 L -29.7,0.7199999999999966 M -37.800000000000004,5.0399999999999965 L -34.199999999999996,5.0399999999999965" style="stroke:black;fill:none;stroke-width:2.0;stroke-dasharray:-;stroke-linecap:round;stroke-linejoin:round;" /><path d="M 468.0,-162.0 L 477.0,-162.0 L 486.0,-162.0" style="stroke:black;fill:none;stroke-width:2.0;stroke-dasharray:-;stroke-linecap:round;stroke-linejoin:round;" /><path d="M 486.0,-162.0 L 486.0,-176.4" style="stroke:black;fill:none;stroke-width:2.0;stroke-dasharray:-;stroke-linecap:round;stroke-linejoin:round;" /><path d="M 486.0,-176.4 L 479.25,-176.4" style="stroke:black;fill:none;stroke-width:2.0;stroke-dasharray:-;stroke-linecap:round;stroke-linejoin:round;" /><path d="M 486.0,-176.4 L 492.75,-176.4" style="stroke:black;fill:none;stroke-width:2.0;stroke-dasharray:-;stroke-linecap:round;stroke-linejoin:round;" /><path d="M 468.0,-114.0 L 477.0,-114.0 L 486.0,-114.0" style="stroke:black;fill:none;stroke-width:2.0;stroke-dasharray:-;stroke-linecap:round;stroke-linejoin:round;" /><path d="M 486.0,-114.0 L 486.0,-99.6 L 477.0,-99.6 L 495.0,-99.6 M 479.7,-95.28 L 492.3,-95.28 M 484.2,-90.96 L 487.8,-90.96" style="stroke:black;fill:none;stroke-width:2.0;stroke-dasharray:-;stroke-linecap:round;stroke-linejoin:round;" /><path d="M 369.0,108.0 L 378.0,108.0" style="stroke:black;fill:none;stroke-width:2.0;stroke-dasharray:-;stroke-linecap:round;stroke-linejoin:round;" /><path d="M 369.0,126.0 L 378.0,126.0" style="stroke:black;fill:none;stroke-width:2.0;stroke-dasharray:-;stroke-linecap:round;stroke-linejoin:round;" /><path d="M 340.2,18.0 L 340.2,108.0 L 369.0,108.0" style="stroke:black;fill:none;stroke-width:2.0;stroke-dasharray:-;stroke-linecap:round;stroke-linejoin:round;" /><path d="M 415.8,18.0 L 415.8,126.0 L 369.0,126.0" style="stroke:black;fill:none;stroke-width:2.0;stroke-dasharray:-;stroke-linecap:round;stroke-linejoin:round;" /><path d="M -18.0,-162.0 L -27.0,-162.0 L -36.0,-162.0" style="stroke:black;fill:none;stroke-width:2.0;stroke-dasharray:-;stroke-linecap:round;stroke-linejoin:round;" /><path d="M -36.0,-162.0 L -36.0,-180.0 L -45.0,-183.0 L -27.0,-189.0 L -45.0,-195.0 L -27.0,-201.0 L -45.0,-207.0 L -26.999999999999996,-212.99999999999997 L -35.99999999999999,-216.0 L -35.99999999999999,-234.0" style="stroke:black;fill:none;stroke-width:2.0;stroke-dasharray:-;stroke-linecap:round;stroke-linejoin:round;" /><path d="M -35.99999999999999,-234.0 L -35.99999999999999,-263.7 M -44.99999999999999,-276.3 L -26.999999999999993,-276.3 M -35.99999999999999,-276.3 L -35.99999999999999,-306.0" style="stroke:black;fill:none;stroke-width:2.0;stroke-dasharray:-;stroke-linecap:round;stroke-linejoin:round;" /><path d="M -49.49999999999999,-272.7 L -58.99864937670388,-278.12779964383077" style="stroke:black;fill:none;stroke-width:2.0;stroke-dasharray:-;stroke-linecap:round;stroke-linejoin:round;" /><path d="M -63.51351371575107 -280.7077221232863 L -57.5697692342362 -280.62833989314925 L -60.427529519171564 -275.62725939451235 Z" style="stroke:black;fill:black;stroke-linecap:butt;stroke-linejoin:miter;" /><path d="M -49.49999999999999,-264.59999999999997 L -58.99864937670388,-270.02779964383075" style="stroke:black;fill:none;stroke-width:2.0;stroke-dasharray:-;stroke-linecap:round;stroke-linejoin:round;" /><path d="M -63.51351371575107 -272.6077221232863 L -57.5697692342362 -272.5283398931492 L -60.427529519171564 -267.5272593945123 Z" style="stroke:black;fill:black;stroke-linecap:butt;stroke-linejoin:miter;" /><path d="M -35.99999999999999,-306.0 L -44.99999999999999,-306.0 L -53.99999999999999,-306.0" style="stroke:black;fill:none;stroke-width:2.0;stroke-dasharray:-;stroke-linecap:round;stroke-linejoin:round;" /><path d="M -53.99999999999999,-306.0 L -53.99999999999999,-291.59999999999997 L -62.99999999999999,-291.59999999999997 L -44.99999999999999,-291.59999999999997 M -60.3,-287.28000000000003 L -47.69999999999999,-287.28000000000003 M -55.8,-282.96000000000004 L -52.19999999999999,-282.96000000000004" style="stroke:black;fill:none;stroke-width:2.0;stroke-dasharray:-;stroke-linecap:round;stroke-linejoin:round;" /><text x="-2.6999999999999997" y="-31.7" dominant-baseline="ideographic" fill="black" font-size="11" font-family="sans" text-anchor="end"><tspan x="-2.6999999999999997" dy="11">3</tspan></text><text x="5.3999999999999995" y="-32.0" dominant-baseline="central" fill="black" font-size="14" font-family="sans" text-anchor="start"><tspan x="5.3999999999999995" dy="14">GND</tspan></text><text x="-2.6999999999999997" y="-79.69999999999999" dominant-baseline="ideographic" fill="black" font-size="11" font-family="sans" text-anchor="end"><tspan x="-2.6999999999999997" dy="11">2</tspan></text><text x="5.3999999999999995" y="-80.0" dominant-baseline="central" fill="black" font-size="14" font-family="sans" text-anchor="start"><tspan x="5.3999999999999995" dy="14">3V3</tspan></text><text x="-2.6999999999999997" y="-127.7" dominant-baseline="ideographic" fill="black" font-size="11" font-family="sans" text-anchor="end"><tspan x="-2.6999999999999997" dy="11">1</tspan></text><text x="5.3999999999999995" y="-128.0" dominant-baseline="central" fill="black" font-size="14" font-family="sans" text-anchor="start"><tspan x="5.3999999999999995" dy="14">5V</tspan></text><text x="-2.6999999999999997" y="-175.70000000000002" dominant-baseline="ideographic" fill="black" font-size="11" font-family="sans" text-anchor="end"><tspan x="-2.6999999999999997" dy="11">4</tspan></text><text x="5.3999999999999995" y="-176.0" dominant-baseline="central" fill="black" font-size="14" font-family="sans" text-anchor="start"><tspan x="5.3999999999999995" dy="14">GPIO2</tspan></text><text x="110.7" y="-31.7" dominant-baseline="ideographic" fill="black" font-size="11" font-family="sans" text-anchor="start"><tspan x="110.7" dy="11">7</tspan></text><text x="102.60000000000001" y="-32.0" dominant-baseline="central" fill="black" font-size="14" font-family="sans" text-anchor="end"><tspan x="102.60000000000001" dy="14">GPIO7</tspan></text><text x="110.7" y="-103.7" dominant-baseline="ideographic" fill="black" font-size="11" font-family="sans" text-anchor="start"><tspan x="110.7" dy="11">6</tspan></text><text x="102.60000000000001" y="-104.0" dominant-baseline="central" fill="black" font-size="14" font-family="sans" text-anchor="end"><tspan x="102.60000000000001" dy="14">GPIO6</tspan></text><text x="110.7" y="-175.70000000000002" dominant-baseline="ideographic" fill="black" font-size="11" font-family="sans" text-anchor="start"><tspan x="110.7" dy="11">5</tspan></text><text x="102.60000000000001" y="-176.0" dominant-baseline="central" fill="black" font-size="14" font-family="sans" text-anchor="end"><tspan x="102.60000000000001" dy="14">GPIO5</tspan></text><text x="54.0" y="2.4000000000000004" dominant-baseline="hanging" fill="black" font-size="12" font-family="sans" text-anchor="middle"><tspan x="54.0" dy="12">ESP32-S3-Zero</tspan></text><text x="311.40000000000003" y="-32.0" dominant-baseline="central" fill="black" font-size="14" font-family="sans" text-anchor="start"><tspan x="311.40000000000003" dy="14">DIN</tspan></text><text x="311.40000000000003" y="-104.0" dominant-baseline="central" fill="black" font-size="14" font-family="sans" text-anchor="start"><tspan x="311.40000000000003" dy="14">LRC</tspan></text><text x="311.40000000000003" y="-176.0" dominant-baseline="central" fill="black" font-size="14" font-family="sans" text-anchor="start"><tspan x="311.40000000000003" dy="14">BCLK</tspan></text><text x="444.59999999999997" y="-32.0" dominant-baseline="central" fill="black" font-size="14" font-family="sans" text-anchor="end"><tspan x="444.59999999999997" dy="14">GAIN</tspan></text><text x="444.59999999999997" y="-80.0" dominant-baseline="central" fill="black" font-size="14" font-family="sans" text-anchor="end"><tspan x="444.59999999999997" dy="14">SD</tspan></text><text x="444.59999999999997" y="-128.0" dominant-baseline="central" fill="black" font-size="14" font-family="sans" text-anchor="end"><tspan x="444.59999999999997" dy="14">GND</tspan></text><text x="444.59999999999997" y="-176.0" dominant-baseline="central" fill="black" font-size="14" font-family="sans" text-anchor="end"><tspan x="444.59999999999997" dy="14">VIN</tspan></text><text x="342.90000000000003" y="-8.299999999999994" dominant-baseline="hanging" fill="black" font-size="11" font-family="sans" text-anchor="start"><tspan x="342.90000000000003" dy="11">-</tspan></text><text x="340.2" y="-19.4" dominant-baseline="ideographic" fill="black" font-size="14" font-family="sans" text-anchor="middle"><tspan x="340.2" dy="14">OUT-</tspan></text><text x="418.5" y="-8.299999999999994" dominant-baseline="hanging" fill="black" font-size="11" font-family="sans" text-anchor="start"><tspan x="418.5" dy="11">+</tspan></text><text x="415.8" y="-19.4" dominant-baseline="ideographic" fill="black" font-size="14" font-family="sans" text-anchor="middle"><tspan x="415.8" dy="14">OUT+</tspan></text><text x="378.0" y="-206.4" dominant-baseline="ideographic" fill="black" font-size="12" font-family="sans" text-anchor="middle"><tspan x="378.0" dy="12">MAX98357A</tspan></text><text x="-36.0" y="-95.99999999999999" dominant-baseline="ideographic" fill="black" font-size="12" font-family="sans" text-anchor="middle"><tspan x="-36.0" dy="12">+3V3</tspan></text><text x="486.0" y="-192.0" dominant-baseline="ideographic" fill="black" font-size="12" font-family="sans" text-anchor="middle"><tspan x="486.0" dy="12">+3V3</tspan></text><text x="384.75" y="150.9" dominant-baseline="hanging" fill="black" font-size="12" font-family="sans" text-anchor="middle"><tspan x="384.75" dy="12">4-8 Ω  2-3 W</tspan></text><text x="-48.599999999999994" y="-210.0" dominant-baseline="central" fill="black" font-size="12" font-family="sans" text-anchor="end"><tspan x="-48.599999999999994" dy="12">220 Ω</tspan></text><text x="-49.004999999999995" y="-242.4" dominant-baseline="hanging" fill="black" font-size="12" font-family="sans" text-anchor="middle"><tspan x="-49.004999999999995" dy="12">Status</tspan></text><text x="-66.6" y="-306.48" dominant-baseline="central" fill="black" font-size="12" font-family="sans" text-anchor="end"><tspan x="-66.6" dy="12">GND</tspan></text></svg>
