<svg xmlns="http://www.w3.org/2000/svg" xmlns:xlink="http://www.w3.org/1999/xlink" xml:lang="en" height="977.9999999999999pt" width="1300.301pt" viewBox="-53.701 -696.0 1300.301 977.9999999999999"><circle cx="1179" cy="168" r="18" style="stroke:black;fill:none;stroke-width:2.0;stroke-dasharray:-;" /><circle cx="1179" cy="-0" r="18" style="stroke:black;fill:none;stroke-width:2.0;stroke-dasharray:-;" /><polygon points="243,-387 243,-351 252,-351 252,-387 " style="stroke:black;fill:none;stroke-width:2.0;stroke-dasharray:-;stroke-linecap:round;stroke-linejoin:round;" /><polyline points="252,-387 265.5,-400.5 265.5,-337.5 252,-351 " style="stroke:black;fill:none;stroke-width:2.0;stroke-dasharray:-;stroke-linecap:round;stroke-linejoin:round;" /><polygon points="243,-108 243,-72 252,-72 252,-108 " style="stroke:black;fill:none;stroke-width:2.0;stroke-dasharray:-;stroke-linecap:round;stroke-linejoin:round;" /><polyline points="252,-108 265.5,-121.5 265.5,-58.5 252,-72 " style="stroke:black;fill:none;stroke-width:2.0;stroke-dasharray:-;stroke-linecap:round;stroke-linejoin:round;" /><path d="M 0.0,-0.0 L 126,-0 L 126,-360 L 0,-360 L 0,-0" style="stroke:black;fill:none;stroke-width:2.0;stroke-dasharray:-;stroke-linecap:round;stroke-linejoin:round;" /><path d="M 0.0,-18.0 L -18,-18" style="stroke:black;fill:none;stroke-width:2.0;stroke-dasharray:-;stroke-linecap:round;stroke-linejoin:round;" /><path d="M 0.0,-180.0 L -18,-180" style="stroke:black;fill:none;stroke-width:2.0;stroke-dasharray:-;stroke-linecap:round;stroke-linejoin:round;" /><path d="M 0.0,-342.0 L -18,-342" style="stroke:black;fill:none;stroke-width:2.0;stroke-dasharray:-;stroke-linecap:round;stroke-linejoin:round;" /><path d="M 126.0,-18.0 L 144,-18" style="stroke:black;fill:none;stroke-width:2.0;stroke-dasharray:-;stroke-linecap:round;stroke-linejoin:round;" /><path d="M 126.0,-58.5 L 144,-58.5" style="stroke:black;fill:none;stroke-width:2.0;stroke-dasharray:-;stroke-linecap:round;stroke-linejoin:round;" /><path d="M 126.0,-99.0 L 144,-99" style="stroke:black;fill:none;stroke-width:2.0;stroke-dasharray:-;stroke-linecap:round;stroke-linejoin:round;" /><path d="M 126.0,-139.5 L 144,-139.5" style="stroke:black;fill:none;stroke-width:2.0;stroke-dasharray:-;stroke-linecap:round;stroke-linejoin:round;" /><path d="M 126.0,-180.0 L 144,-180" style="stroke:black;fill:none;stroke-width:2.0;stroke-dasharray:-;stroke-linecap:round;stroke-linejoin:round;" /><path d="M 126.0,-220.5 L 144,-220.5" style="stroke:black;fill:none;stroke-width:2.0;stroke-dasharray:-;stroke-linecap:round;stroke-linejoin:round;" /><path d="M 126.0,-261.0 L 144,-261" style="stroke:black;fill:none;stroke-width:2.0;stroke-dasharray:-;stroke-linecap:round;stroke-linejoin:round;" /><path d="M 126.0,-301.5 L 144,-301.5" style="stroke:black;fill:none;stroke-width:2.0;stroke-dasharray:-;stroke-linecap:round;stroke-linejoin:round;" /><path d="M 126.0,-342.0 L 144,-342" style="stroke:black;fill:none;stroke-width:2.0;stroke-dasharray:-;stroke-linecap:round;stroke-linejoin:round;" /><path d="M 324.0,-90.0 L 450,-90 L 450,-270 L 324,-270 L 324,-90" style="stroke:black;fill:none;stroke-width:2.0;stroke-dasharray:-;stroke-linecap:round;stroke-linejoin:round;" /><path d="M 324.0,-108.0 L 306,-108" style="stroke:black;fill:none;stroke-width:2.0;stroke-dasharray:-;stroke-linecap:round;stroke-linejoin:round;" /><path d="M 324.0,-156.0 L 306,-156" style="stroke:black;fill:none;stroke-width:2.0;stroke-dasharray:-;stroke-linecap:round;stroke-linejoin:round;" /><path d="M 324.0,-203.99999999999997 L 306,-204" style="stroke:black;fill:none;stroke-width:2.0;stroke-dasharray:-;stroke-linecap:round;stroke-linejoin:round;" /><path d="M 324.0,-252.0 L 306,-252" style="stroke:black;fill:none;stroke-width:2.0;stroke-dasharray:-;stroke-linecap:round;stroke-linejoin:round;" /><path d="M 450.0,-108.0 L 468,-108" style="stroke:black;fill:none;stroke-width:2.0;stroke-dasharray:-;stroke-linecap:round;stroke-linejoin:round;" /><path d="M 450.0,-156.0 L 468,-156" style="stroke:black;fill:none;stroke-width:2.0;stroke-dasharray:-;stroke-linecap:round;stroke-linejoin:round;" /><path d="M 450.0,-203.99999999999997 L 468,-204" style="stroke:black;fill:none;stroke-width:2.0;stroke-dasharray:-;stroke-linecap:round;stroke-linejoin:round;" /><path d="M 450.0,-252.0 L 468,-252" style="stroke:black;fill:none;stroke-width:2.0;stroke-dasharray:-;stroke-linecap:round;stroke-linejoin:round;" /><path d="M 639.0,-90.0 L 783,-90 L 783,-270 L 639,-270 L 639,-90" style="stroke:black;fill:none;stroke-width:2.0;stroke-dasharray:-;stroke-linecap:round;stroke-linejoin:round;" /><path d="M 639.0,-108.0 L 621,-108" style="stroke:black;fill:none;stroke-width:2.0;stroke-dasharray:-;stroke-linecap:round;stroke-linejoin:round;" /><path d="M 639.0,-144.0 L 621,-144" style="stroke:black;fill:none;stroke-width:2.0;stroke-dasharray:-;stroke-linecap:round;stroke-linejoin:round;" /><path d="M 639.0,-180.0 L 621,-180" style="stroke:black;fill:none;stroke-width:2.0;stroke-dasharray:-;stroke-linecap:round;stroke-linejoin:round;" /><path d="M 639.0,-216.0 L 621,-216" style="stroke:black;fill:none;stroke-width:2.0;stroke-dasharray:-;stroke-linecap:round;stroke-linejoin:round;" /><path d="M 639.0,-252.0 L 621,-252" style="stroke:black;fill:none;stroke-width:2.0;stroke-dasharray:-;stroke-linecap:round;stroke-linejoin:round;" /><path d="M 783.0,-108.0 L 801,-108" style="stroke:black;fill:none;stroke-width:2.0;stroke-dasharray:-;stroke-linecap:round;stroke-linejoin:round;" /><path d="M 783.0,-180.0 L 801,-180" style="stroke:black;fill:none;stroke-width:2.0;stroke-dasharray:-;stroke-linecap:round;stroke-linejoin:round;" /><path d="M 783.0,-252.0 L 801,-252" style="stroke:black;fill:none;stroke-width:2.0;stroke-dasharray:-;stroke-linecap:round;stroke-linejoin:round;" /><path d="M 891.0,252.0 L 1035,252 L 1035,-36 L 891,-36 L 891,252" style="stroke:black;fill:none;stroke-width:2.0;stroke-dasharray:-;stroke-linecap:round;stroke-linejoin:round;" /><path d="M 891.0,234.0 L 873,234" style="stroke:black;fill:none;stroke-width:2.0;stroke-dasharray:-;stroke-linecap:round;stroke-linejoin:round;" /><path d="M 891.0,206.0 L 873,206" style="stroke:black;fill:none;stroke-width:2.0;stroke-dasharray:-;stroke-linecap:round;stroke-linejoin:round;" /><path d="M 891.0,178.0 L 873,178" style="stroke:black;fill:none;stroke-width:2.0;stroke-dasharray:-;stroke-linecap:round;stroke-linejoin:round;" /><path d="M 891.0,149.99999999999997 L 873,150" style="stroke:black;fill:none;stroke-width:2.0;stroke-dasharray:-;stroke-linecap:round;stroke-linejoin:round;" /><path d="M 891.0,122.0 L 873,122" style="stroke:black;fill:none;stroke-width:2.0;stroke-dasharray:-;stroke-linecap:round;stroke-linejoin:round;" /><path d="M 891.0,93.99999999999999 L 873,94" style="stroke:black;fill:none;stroke-width:2.0;stroke-dasharray:-;stroke-linecap:round;stroke-linejoin:round;" /><path d="M 891.0,65.99999999999999 L 873,66" style="stroke:black;fill:none;stroke-width:2.0;stroke-dasharray:-;stroke-linecap:round;stroke-linejoin:round;" /><path d="M 891.0,37.99999999999999 L 873,38" style="stroke:black;fill:none;stroke-width:2.0;stroke-dasharray:-;stroke-linecap:round;stroke-linejoin:round;" /><path d="M 891.0,9.999999999999996 L 873,10" style="stroke:black;fill:none;stroke-width:2.0;stroke-dasharray:-;stroke-linecap:round;stroke-linejoin:round;" /><path d="M 891.0,-18.0 L 873,-18" style="stroke:black;fill:none;stroke-width:2.0;stroke-dasharray:-;stroke-linecap:round;stroke-linejoin:round;" /><path d="M 1035.0,234.0 L 1053,234" style="stroke:black;fill:none;stroke-width:2.0;stroke-dasharray:-;stroke-linecap:round;stroke-linejoin:round;" /><path d="M 1035.0,149.99999999999997 L 1053,150" style="stroke:black;fill:none;stroke-width:2.0;stroke-dasharray:-;stroke-linecap:round;stroke-linejoin:round;" /><path d="M 1035.0,65.99999999999999 L 1053,66" style="stroke:black;fill:none;stroke-width:2.0;stroke-dasharray:-;stroke-linecap:round;stroke-linejoin:round;" /><path d="M 1035.0,-18.0 L 1053,-18" style="stroke:black;fill:none;stroke-width:2.0;stroke-dasharray:-;stroke-linecap:round;stroke-linejoin:round;" /><path d="M 1143.0,167.99999999999997 L 1153.08,168 L 1153.08,168 M 1204.92,168 L 1204.92,168 L 1215,168" style="stroke:black;fill:none;stroke-width:2.0;stroke-dasharray:-;stroke-linecap:round;stroke-linejoin:round;" /><path d="M 1161.0,175.91999999999996 L 1153.08,175.92 L 1153.08,160.08 L 1161,160.08" style="stroke:black;fill:none;stroke-width:2.0;stroke-dasharray:-;stroke-linecap:round;stroke-linejoin:round;" /><path d="M 1197.0,175.91999999999996 L 1204.92,175.92 L 1204.92,160.08 L 1197,160.08" style="stroke:black;fill:none;stroke-width:2.0;stroke-dasharray:-;stroke-linecap:round;stroke-linejoin:round;" /><path d="M 1143.0,-0.0 L 1153.08,-0 L 1153.08,-0 M 1204.92,-0 L 1204.92,-0 L 1215,-0" style="stroke:black;fill:none;stroke-width:2.0;stroke-dasharray:-;stroke-linecap:round;stroke-linejoin:round;" /><path d="M 1161.0,7.92 L 1153.08,7.92 L 1153.08,-7.92 L 1161,-7.92" style="stroke:black;fill:none;stroke-width:2.0;stroke-dasharray:-;stroke-linecap:round;stroke-linejoin:round;" /><path d="M 1197.0,7.92 L 1204.92,7.92 L 1204.92,-7.92 L 1197,-7.92" style="stroke:black;fill:none;stroke-width:2.0;stroke-dasharray:-;stroke-linecap:round;stroke-linejoin:round;" /><path d="M 468.0,162.0 L 594,162 L 594,54 L 468,54 L 468,162" style="stroke:black;fill:none;stroke-width:2.0;stroke-dasharray:-;stroke-linecap:round;stroke-linejoin:round;" /><path d="M 468.0,144.0 L 450,144" style="stroke:black;fill:none;stroke-width:2.0;stroke-dasharray:-;stroke-linecap:round;stroke-linejoin:round;" /><path d="M 468.0,120.0 L 450,120" style="stroke:black;fill:none;stroke-width:2.0;stroke-dasharray:-;stroke-linecap:round;stroke-linejoin:round;" /><path d="M 468.0,96.00000000000001 L 450,96" style="stroke:black;fill:none;stroke-width:2.0;stroke-dasharray:-;stroke-linecap:round;stroke-linejoin:round;" /><path d="M 468.0,72.0 L 450,72" style="stroke:black;fill:none;stroke-width:2.0;stroke-dasharray:-;stroke-linecap:round;stroke-linejoin:round;" /><path d="M 144.0,175.5 L 270,175.5 L 270,67.5 L 144,67.5 L 144,175.5" style="stroke:black;fill:none;stroke-width:2.0;stroke-dasharray:-;stroke-linecap:round;stroke-linejoin:round;" /><path d="M 144.0,157.5 L 126,157.5" style="stroke:black;fill:none;stroke-width:2.0;stroke-dasharray:-;stroke-linecap:round;stroke-linejoin:round;" /><path d="M 144.0,133.5 L 126,133.5" style="stroke:black;fill:none;stroke-width:2.0;stroke-dasharray:-;stroke-linecap:round;stroke-linejoin:round;" /><path d="M 144.0,109.50000000000001 L 126,109.5" style="stroke:black;fill:none;stroke-width:2.0;stroke-dasharray:-;stroke-linecap:round;stroke-linejoin:round;" /><path d="M 144.0,85.5 L 126,85.5" style="stroke:black;fill:none;stroke-width:2.0;stroke-dasharray:-;stroke-linecap:round;stroke-linejoin:round;" /><path d="M 135.0,-486.0 L 351,-486 L 351,-666 L 135,-666 L 135,-486" style="stroke:black;fill:none;stroke-width:2.0;stroke-dasharray:-;stroke-linecap:round;stroke-linejoin:round;" /><path d="M 135.0,-504.0 L 117,-504" style="stroke:black;fill:none;stroke-width:2.0;stroke-dasharray:-;stroke-linecap:round;stroke-linejoin:round;" /><path d="M 135.0,-576.0 L 117,-576" style="stroke:black;fill:none;stroke-width:2.0;stroke-dasharray:-;stroke-linecap:round;stroke-linejoin:round;" /><path d="M 135.0,-648.0 L 117,-648" style="stroke:black;fill:none;stroke-width:2.0;stroke-dasharray:-;stroke-linecap:round;stroke-linejoin:round;" /><path d="M 351.0,-504.0 L 369,-504" style="stroke:black;fill:none;stroke-width:2.0;stroke-dasharray:-;stroke-linecap:round;stroke-linejoin:round;" /><path d="M 351.0,-552.0 L 369,-552" style="stroke:black;fill:none;stroke-width:2.0;stroke-dasharray:-;stroke-linecap:round;stroke-linejoin:round;" /><path d="M 351.0,-600.0 L 369,-600" style="stroke:black;fill:none;stroke-width:2.0;stroke-dasharray:-;stroke-linecap:round;stroke-linejoin:round;" /><path d="M 351.0,-648.0 L 369,-648" style="stroke:black;fill:none;stroke-width:2.0;stroke-dasharray:-;stroke-linecap:round;stroke-linejoin:round;" /><path d="M 207.0,-486.0 L 207,-468" style="stroke:black;fill:none;stroke-width:2.0;stroke-dasharray:-;stroke-linecap:round;stroke-linejoin:round;" /><path d="M 279.0,-486.0 L 279,-468" style="stroke:black;fill:none;stroke-width:2.0;stroke-dasharray:-;stroke-linecap:round;stroke-linejoin:round;" /><path d="M 234.0,-378.0 L 243,-378" style="stroke:black;fill:none;stroke-width:2.0;stroke-dasharray:-;stroke-linecap:round;stroke-linejoin:round;" /><path d="M 234.0,-360.0 L 243,-360" style="stroke:black;fill:none;stroke-width:2.0;stroke-dasharray:-;stroke-linecap:round;stroke-linejoin:round;" /><path d="M 144.0,-99.0 L 153,-99 L 162,-99" style="stroke:black;fill:none;stroke-width:2.0;stroke-dasharray:-;stroke-linecap:round;stroke-linejoin:round;" /><path d="M 162.0,-99.0 L 180,-99 L 183,-108 L 189,-90 L 195,-108 L 201,-90 L 207,-108 L 213,-90 L 216,-99 L 234,-99" style="stroke:black;fill:none;stroke-width:2.0;stroke-dasharray:-;stroke-linecap:round;stroke-linejoin:round;" /><path d="M 234.0,-99.0 L 243,-99" style="stroke:black;fill:none;stroke-width:2.0;stroke-dasharray:-;stroke-linecap:round;stroke-linejoin:round;" /><path d="M 234.0,-81.0 L 243,-81" style="stroke:black;fill:none;stroke-width:2.0;stroke-dasharray:-;stroke-linecap:round;stroke-linejoin:round;" /><path d="M 234.0,-81.0 L 234,-72 L 234,-63" style="stroke:black;fill:none;stroke-width:2.0;stroke-dasharray:-;stroke-linecap:round;stroke-linejoin:round;" /><path d="M 234.0,-63.0 L 234,-48.6 L 225,-48.6 L 243,-48.6 M 227.7,-44.28 L 240.3,-44.28 M 232.2,-39.96 L 235.8,-39.96" style="stroke:black;fill:none;stroke-width:2.0;stroke-dasharray:-;stroke-linecap:round;stroke-linejoin:round;" /><path d="M 144.0,-180.0 L 279,-180 L 279,-204 L 306,-204" style="stroke:steelblue;fill:none;stroke-width:2.0;stroke-dasharray:-;stroke-linecap:round;stroke-linejoin:round;" /><path d="M 144.0,-220.5 L 279,-220.5 L 279,-252 L 306,-252" style="stroke:steelblue;fill:none;stroke-width:2.0;stroke-dasharray:-;stroke-linecap:round;stroke-linejoin:round;" /><path d="M 468.0,-203.99999999999997 L 594,-204 L 594,-216 L 621,-216" style="stroke:steelblue;fill:none;stroke-width:2.0;stroke-dasharray:-;stroke-linecap:round;stroke-linejoin:round;" /><path d="M 468.0,-252.0 L 621,-252" style="stroke:steelblue;fill:none;stroke-width:2.0;stroke-dasharray:-;stroke-linecap:round;stroke-linejoin:round;" /><path d="M 801.0,-108.0 L 828,-108 L 828,38 L 873,38" style="stroke:steelblue;fill:none;stroke-width:2.0;stroke-dasharray:-;stroke-linecap:round;stroke-linejoin:round;" /><path d="M 1053.0,149.99999999999997 L 1116,150 L 1116,168 L 1143,168" style="stroke:black;fill:none;stroke-width:2.0;stroke-dasharray:-;stroke-linecap:round;stroke-linejoin:round;" /><path d="M 1053.0,234.0 L 1242,234 L 1242,168 L 1215,168" style="stroke:black;fill:none;stroke-width:2.0;stroke-dasharray:-;stroke-linecap:round;stroke-linejoin:round;" /><path d="M 1053.0,-18.0 L 1116,-18 L 1116,-0 L 1143,-0" style="stroke:black;fill:none;stroke-width:2.0;stroke-dasharray:-;stroke-linecap:round;stroke-linejoin:round;" /><path d="M 1053.0,65.99999999999999 L 1242,66 L 1242,-0 L 1215,-0" style="stroke:black;fill:none;stroke-width:2.0;stroke-dasharray:-;stroke-linecap:round;stroke-linejoin:round;" /><path d="M 144.0,-139.5 L 288,-139.5 L 288,22.5 L 846,22.5 L 846,150 L 873,150" style="stroke:steelblue;fill:none;stroke-width:2.0;stroke-dasharray:-;stroke-linecap:round;stroke-linejoin:round;" /><path d="M 468.0,-108.0 L 495,-108 L 495,96 L 423,96 L 450,96" style="stroke:steelblue;fill:none;stroke-width:2.0;stroke-dasharray:-;stroke-linecap:round;stroke-linejoin:round;" /><path d="M 468.0,-156.0 L 495,-156 L 423,-156 L 423,72 L 450,72" style="stroke:steelblue;fill:none;stroke-width:2.0;stroke-dasharray:-;stroke-linecap:round;stroke-linejoin:round;" /><path d="M 144.0,-58.5 L 171,-58.5 L 171,109.5 L 99,109.5 L 126,109.5" style="stroke:steelblue;fill:none;stroke-width:2.0;stroke-dasharray:-;stroke-linecap:round;stroke-linejoin:round;" /><path d="M 144.0,-18.0 L 171,-18 L 99,-18 L 99,133.5 L 126,133.5" style="stroke:steelblue;fill:none;stroke-width:2.0;stroke-dasharray:-;stroke-linecap:round;stroke-linejoin:round;" /><path d="M 144.0,-342.0 L 171,-342 L 171,-648 L 90,-648 L 117,-648" style="stroke:steelblue;fill:none;stroke-width:2.0;stroke-dasharray:-;stroke-linecap:round;stroke-linejoin:round;" /><path d="M 144.0,-301.5 L 171,-301.5 L 90,-301.5 L 90,-576 L 117,-576" style="stroke:steelblue;fill:none;stroke-width:2.0;stroke-dasharray:-;stroke-linecap:round;stroke-linejoin:round;" /><path d="M 144.0,-261.0 L 171,-261 L 99,-261 L 99,-504 L 90,-504 L 117,-504" style="stroke:steelblue;fill:none;stroke-width:2.0;stroke-dasharray:-;stroke-linecap:round;stroke-linejoin:round;" /><path d="M 207.0,-468.0 L 207,-378 L 234,-378" style="stroke:black;fill:none;stroke-width:2.0;stroke-dasharray:-;stroke-linecap:round;stroke-linejoin:round;" /><path d="M 279.0,-468.0 L 279,-360 L 207,-360 L 234,-360" style="stroke:black;fill:none;stroke-width:2.0;stroke-dasharray:-;stroke-linecap:round;stroke-linejoin:round;" /><path d="M 801.0,-180.0 L 846,-180 L 882,-180" style="stroke:steelblue;fill:none;stroke-width:2.0;stroke-dasharray:-;stroke-linecap:round;stroke-linejoin:round;" /><path d="M 889 -180 L 882 -177.3 L 882 -182.7 Z" style="stroke:steelblue;fill:steelblue;stroke-linecap:butt;stroke-linejoin:miter;" /><path d="M 801.0,-252.0 L 846,-252 L 882,-252" style="stroke:steelblue;fill:none;stroke-width:2.0;stroke-dasharray:-;stroke-linecap:round;stroke-linejoin:round;" /><path d="M 889 -252 L 882 -249.3 L 882 -254.7 Z" style="stroke:steelblue;fill:steelblue;stroke-linecap:butt;stroke-linejoin:miter;" /><path d="M -18.0,-180.0 L -27,-180 L -36,-180" style="stroke:black;fill:none;stroke-width:2.0;stroke-dasharray:-;stroke-linecap:round;stroke-linejoin:round;" /><path d="M -36.0,-180.0 L -36,-194.4" style="stroke:black;fill:none;stroke-width:2.0;stroke-dasharray:-;stroke-linecap:round;stroke-linejoin:round;" /><path d="M -36.0,-194.4 L -42.75,-194.4" style="stroke:black;fill:none;stroke-width:2.0;stroke-dasharray:-;stroke-linecap:round;stroke-linejoin:round;" /><path d="M -36.0,-194.4 L -29.25,-194.4" style="stroke:black;fill:none;stroke-width:2.0;stroke-dasharray:-;stroke-linecap:round;stroke-linejoin:round;" /><path d="M -18.0,-18.0 L -27,-18 L -36,-18" style="stroke:black;fill:none;stroke-width:2.0;stroke-dasharray:-;stroke-linecap:round;stroke-linejoin:round;" /><path d="M -36.0,-18.000000000000004 L -36,-3.6 L -45,-3.6 L -27,-3.6 M -42.3,0.72 L -29.7,0.72 M -37.8,5.04 L -34.2,5.04" style="stroke:black;fill:none;stroke-width:2.0;stroke-dasharray:-;stroke-linecap:round;stroke-linejoin:round;" /><path d="M -18.0,-342.0 L -27,-342 L -36,-342" style="stroke:black;fill:none;stroke-width:2.0;stroke-dasharray:-;stroke-linecap:round;stroke-linejoin:round;" /><path d="M -36.0,-342.0 L -36,-356.4" style="stroke:black;fill:none;stroke-width:2.0;stroke-dasharray:-;stroke-linecap:round;stroke-linejoin:round;" /><path d="M -36.0,-356.40000000000003 L -42.75,-356.4" style="stroke:black;fill:none;stroke-width:2.0;stroke-dasharray:-;stroke-linecap:round;stroke-linejoin:round;" /><path d="M -36.0,-356.40000000000003 L -29.25,-356.4" style="stroke:black;fill:none;stroke-width:2.0;stroke-dasharray:-;stroke-linecap:round;stroke-linejoin:round;" /><path d="M 306.0,-156.0 L 297,-156 L 288,-156" style="stroke:black;fill:none;stroke-width:2.0;stroke-dasharray:-;stroke-linecap:round;stroke-linejoin:round;" /><path d="M 288.0,-156.0 L 288,-170.4" style="stroke:black;fill:none;stroke-width:2.0;stroke-dasharray:-;stroke-linecap:round;stroke-linejoin:round;" /><path d="M 288.0,-170.4 L 281.25,-170.4" style="stroke:black;fill:none;stroke-width:2.0;stroke-dasharray:-;stroke-linecap:round;stroke-linejoin:round;" /><path d="M 288.0,-170.4 L 294.75,-170.4" style="stroke:black;fill:none;stroke-width:2.0;stroke-dasharray:-;stroke-linecap:round;stroke-linejoin:round;" /><path d="M 306.0,-108.0 L 297,-108 L 288,-108" style="stroke:black;fill:none;stroke-width:2.0;stroke-dasharray:-;stroke-linecap:round;stroke-linejoin:round;" /><path d="M 288.0,-108.0 L 288,-93.6 L 279,-93.6 L 297,-93.6 M 281.7,-89.28 L 294.3,-89.28 M 286.2,-84.96 L 289.8,-84.96" style="stroke:black;fill:none;stroke-width:2.0;stroke-dasharray:-;stroke-linecap:round;stroke-linejoin:round;" /><path d="M 621.0,-144.0 L 594,-144 L 567,-144" style="stroke:black;fill:none;stroke-width:2.0;stroke-dasharray:-;stroke-linecap:round;stroke-linejoin:round;" /><path d="M 567.0,-144.0 L 567,-158.4" style="stroke:black;fill:none;stroke-width:2.0;stroke-dasharray:-;stroke-linecap:round;stroke-linejoin:round;" /><path d="M 567.0,-158.4 L 560.25,-158.4" style="stroke:black;fill:none;stroke-width:2.0;stroke-dasharray:-;stroke-linecap:round;stroke-linejoin:round;" /><path d="M 567.0,-158.4 L 573.75,-158.4" style="stroke:black;fill:none;stroke-width:2.0;stroke-dasharray:-;stroke-linecap:round;stroke-linejoin:round;" /><path d="M 621.0,-180.0 L 594,-180 L 567,-180" style="stroke:black;fill:none;stroke-width:2.0;stroke-dasharray:-;stroke-linecap:round;stroke-linejoin:round;" /><path d="M 567.0,-180.0 L 567,-194.4" style="stroke:black;fill:none;stroke-width:2.0;stroke-dasharray:-;stroke-linecap:round;stroke-linejoin:round;" /><path d="M 567.0,-194.4 L 560.25,-194.4" style="stroke:black;fill:none;stroke-width:2.0;stroke-dasharray:-;stroke-linecap:round;stroke-linejoin:round;" /><path d="M 567.0,-194.4 L 573.75,-194.4" style="stroke:black;fill:none;stroke-width:2.0;stroke-dasharray:-;stroke-linecap:round;stroke-linejoin:round;" /><path d="M 621.0,-108.0 L 594,-108 L 567,-108" style="stroke:black;fill:none;stroke-width:2.0;stroke-dasharray:-;stroke-linecap:round;stroke-linejoin:round;" /><path d="M 567.0,-108.0 L 567,-93.6 L 558,-93.6 L 576,-93.6 M 560.7,-89.28 L 573.3,-89.28 M 565.2,-84.96 L 568.8,-84.96" style="stroke:black;fill:none;stroke-width:2.0;stroke-dasharray:-;stroke-linecap:round;stroke-linejoin:round;" /><path d="M 873.0,206.0 L 864,206 L 855,206" style="stroke:black;fill:none;stroke-width:2.0;stroke-dasharray:-;stroke-linecap:round;stroke-linejoin:round;" /><path d="M 855.0,206.0 L 855,191.6" style="stroke:black;fill:none;stroke-width:2.0;stroke-dasharray:-;stroke-linecap:round;stroke-linejoin:round;" /><path d="M 855.0,191.6 L 848.25,191.6" style="stroke:black;fill:none;stroke-width:2.0;stroke-dasharray:-;stroke-linecap:round;stroke-linejoin:round;" /><path d="M 855.0,191.6 L 861.75,191.6" style="stroke:black;fill:none;stroke-width:2.0;stroke-dasharray:-;stroke-linecap:round;stroke-linejoin:round;" /><path d="M 873.0,178.0 L 864,178 L 855,178" style="stroke:black;fill:none;stroke-width:2.0;stroke-dasharray:-;stroke-linecap:round;stroke-linejoin:round;" /><path d="M 855.0,178.0 L 855,163.6" style="stroke:black;fill:none;stroke-width:2.0;stroke-dasharray:-;stroke-linecap:round;stroke-linejoin:round;" /><path d="M 855.0,163.6 L 848.25,163.6" style="stroke:black;fill:none;stroke-width:2.0;stroke-dasharray:-;stroke-linecap:round;stroke-linejoin:round;" /><path d="M 855.0,163.6 L 861.75,163.6" style="stroke:black;fill:none;stroke-width:2.0;stroke-dasharray:-;stroke-linecap:round;stroke-linejoin:round;" /><path d="M 873.0,234.0 L 864,234 L 855,234" style="stroke:black;fill:none;stroke-width:2.0;stroke-dasharray:-;stroke-linecap:round;stroke-linejoin:round;" /><path d="M 855.0,234.0 L 855,248.4 L 846,248.4 L 864,248.4 M 848.7,252.72 L 861.3,252.72 M 853.2,257.04 L 856.8,257.04" style="stroke:black;fill:none;stroke-width:2.0;stroke-dasharray:-;stroke-linecap:round;stroke-linejoin:round;" /><path d="M 450.0,120.0 L 432,120 L 414,120" style="stroke:black;fill:none;stroke-width:2.0;stroke-dasharray:-;stroke-linecap:round;stroke-linejoin:round;" /><path d="M 414.0,120.0 L 414,105.6" style="stroke:black;fill:none;stroke-width:2.0;stroke-dasharray:-;stroke-linecap:round;stroke-linejoin:round;" /><path d="M 414.0,105.60000000000001 L 407.25,105.6" style="stroke:black;fill:none;stroke-width:2.0;stroke-dasharray:-;stroke-linecap:round;stroke-linejoin:round;" /><path d="M 414.0,105.60000000000001 L 420.75,105.6" style="stroke:black;fill:none;stroke-width:2.0;stroke-dasharray:-;stroke-linecap:round;stroke-linejoin:round;" /><path d="M 450.0,144.0 L 432,144 L 414,144" style="stroke:black;fill:none;stroke-width:2.0;stroke-dasharray:-;stroke-linecap:round;stroke-linejoin:round;" /><path d="M 414.0,144.0 L 414,158.4 L 405,158.4 L 423,158.4 M 407.7,162.72 L 420.3,162.72 M 412.2,167.04 L 415.8,167.04" style="stroke:black;fill:none;stroke-width:2.0;stroke-dasharray:-;stroke-linecap:round;stroke-linejoin:round;" /><path d="M 126.0,85.5 L 108,85.5 L 90,85.5" style="stroke:black;fill:none;stroke-width:2.0;stroke-dasharray:-;stroke-linecap:round;stroke-linejoin:round;" /><path d="M 90.0,85.5 L 90,71.1" style="stroke:black;fill:none;stroke-width:2.0;stroke-dasharray:-;stroke-linecap:round;stroke-linejoin:round;" /><path d="M 90.0,71.10000000000001 L 83.25,71.1" style="stroke:black;fill:none;stroke-width:2.0;stroke-dasharray:-;stroke-linecap:round;stroke-linejoin:round;" /><path d="M 90.0,71.10000000000001 L 96.75,71.1" style="stroke:black;fill:none;stroke-width:2.0;stroke-dasharray:-;stroke-linecap:round;stroke-linejoin:round;" /><path d="M 126.0,157.5 L 108,157.5 L 90,157.5" style="stroke:black;fill:none;stroke-width:2.0;stroke-dasharray:-;stroke-linecap:round;stroke-linejoin:round;" /><path d="M 90.0,157.5 L 90,171.9 L 81,171.9 L 99,171.9 M 83.7,176.22 L 96.3,176.22 M 88.2,180.54 L 91.8,180.54" style="stroke:black;fill:none;stroke-width:2.0;stroke-dasharray:-;stroke-linecap:round;stroke-linejoin:round;" /><path d="M 369.0,-648.0 L 378,-648 L 387,-648" style="stroke:black;fill:none;stroke-width:2.0;stroke-dasharray:-;stroke-linecap:round;stroke-linejoin:round;" /><path d="M 387.0,-648.0 L 387,-662.4" style="stroke:black;fill:none;stroke-width:2.0;stroke-dasharray:-;stroke-linecap:round;stroke-linejoin:round;" /><path d="M 387.0,-662.4 L 380.25,-662.4" style="stroke:black;fill:none;stroke-width:2.0;stroke-dasharray:-;stroke-linecap:round;stroke-linejoin:round;" /><path d="M 387.0,-662.4 L 393.75,-662.4" style="stroke:black;fill:none;stroke-width:2.0;stroke-dasharray:-;stroke-linecap:round;stroke-linejoin:round;" /><path d="M 369.0,-600.0 L 378,-600 L 387,-600" style="stroke:black;fill:none;stroke-width:2.0;stroke-dasharray:-;stroke-linecap:round;stroke-linejoin:round;" /><path d="M 387.0,-600.0 L 387,-585.6 L 378,-585.6 L 396,-585.6 M 380.7,-581.28 L 393.3,-581.28 M 385.2,-576.96 L 388.8,-576.96" style="stroke:black;fill:none;stroke-width:2.0;stroke-dasharray:-;stroke-linecap:round;stroke-linejoin:round;" /><path d="M 369.0,-552.0 L 405,-552 L 432,-552" style="stroke:gray;fill:none;stroke-width:2.0;stroke-dasharray:-;stroke-linecap:round;stroke-linejoin:round;" /><path d="M 439 -552 L 432 -549.3 L 432 -554.7 Z" style="stroke:gray;fill:gray;stroke-linecap:butt;stroke-linejoin:miter;" /><text x="5.3999999999999995" y="-32.0" dominant-baseline="central" fill="black" font-size="14" font-family="sans" text-anchor="start"><tspan x="5.3999999999999995" dy="14">GND</tspan></text><text x="5.3999999999999995" y="-194.0" dominant-baseline="central" fill="black" font-size="14" font-family="sans" text-anchor="start"><tspan x="5.3999999999999995" dy="14">3V3</tspan></text><text x="5.3999999999999995" y="-356.0" dominant-baseline="central" fill="black" font-size="14" font-family="sans" text-anchor="start"><tspan x="5.3999999999999995" dy="14">5V</tspan></text><text x="128.70000000000002" y="-31.7" dominant-baseline="ideographic" fill="black" font-size="11" font-family="sans" text-anchor="start"><tspan x="128.70000000000002" dy="11">D3</tspan></text><text x="120.60000000000001" y="-32.0" dominant-baseline="central" fill="black" font-size="14" font-family="sans" text-anchor="end"><tspan x="120.60000000000001" dy="14">GPIO4</tspan></text><text x="128.70000000000002" y="-72.19999999999999" dominant-baseline="ideographic" fill="black" font-size="11" font-family="sans" text-anchor="start"><tspan x="128.70000000000002" dy="11">D2</tspan></text><text x="120.60000000000001" y="-72.5" dominant-baseline="central" fill="black" font-size="14" font-family="sans" text-anchor="end"><tspan x="120.60000000000001" dy="14">GPIO3</tspan></text><text x="128.70000000000002" y="-112.7" dominant-baseline="ideographic" fill="black" font-size="11" font-family="sans" text-anchor="start"><tspan x="128.70000000000002" dy="11">D1</tspan></text><text x="120.60000000000001" y="-113.0" dominant-baseline="central" fill="black" font-size="14" font-family="sans" text-anchor="end"><tspan x="120.60000000000001" dy="14">GPIO2</tspan></text><text x="128.70000000000002" y="-153.20000000000002" dominant-baseline="ideographic" fill="black" font-size="11" font-family="sans" text-anchor="start"><tspan x="128.70000000000002" dy="11">D0</tspan></text><text x="120.60000000000001" y="-153.5" dominant-baseline="central" fill="black" font-size="14" font-family="sans" text-anchor="end"><tspan x="120.60000000000001" dy="14">GPIO1</tspan></text><text x="128.70000000000002" y="-193.70000000000002" dominant-baseline="ideographic" fill="black" font-size="11" font-family="sans" text-anchor="start"><tspan x="128.70000000000002" dy="11">D4</tspan></text><text x="120.60000000000001" y="-194.0" dominant-baseline="central" fill="black" font-size="14" font-family="sans" text-anchor="end"><tspan x="120.60000000000001" dy="14">GPIO5</tspan></text><text x="128.70000000000002" y="-234.20000000000002" dominant-baseline="ideographic" fill="black" font-size="11" font-family="sans" text-anchor="start"><tspan x="128.70000000000002" dy="11">D5</tspan></text><text x="120.60000000000001" y="-234.5" dominant-baseline="central" fill="black" font-size="14" font-family="sans" text-anchor="end"><tspan x="120.60000000000001" dy="14">GPIO6</tspan></text><text x="128.70000000000002" y="-274.7" dominant-baseline="ideographic" fill="black" font-size="11" font-family="sans" text-anchor="start"><tspan x="128.70000000000002" dy="11">D10</tspan></text><text x="120.60000000000001" y="-275.0" dominant-baseline="central" fill="black" font-size="14" font-family="sans" text-anchor="end"><tspan x="120.60000000000001" dy="14">GPIO9</tspan></text><text x="128.70000000000002" y="-315.2" dominant-baseline="ideographic" fill="black" font-size="11" font-family="sans" text-anchor="start"><tspan x="128.70000000000002" dy="11">D9</tspan></text><text x="120.60000000000001" y="-315.5" dominant-baseline="central" fill="black" font-size="14" font-family="sans" text-anchor="end"><tspan x="120.60000000000001" dy="14">GPIO8</tspan></text><text x="128.70000000000002" y="-355.7" dominant-baseline="ideographic" fill="black" font-size="11" font-family="sans" text-anchor="start"><tspan x="128.70000000000002" dy="11">D8</tspan></text><text x="120.60000000000001" y="-356.0" dominant-baseline="central" fill="black" font-size="14" font-family="sans" text-anchor="end"><tspan x="120.60000000000001" dy="14">GPIO7</tspan></text><text x="63.0" y="3.4000000000000004" dominant-baseline="hanging" fill="black" font-size="11" font-family="sans" text-anchor="middle"><tspan x="63.0" dy="11">XIAO ESP32-S3 Sense</tspan></text><text x="329.40000000000003" y="-122.0" dominant-baseline="central" fill="black" font-size="14" font-family="sans" text-anchor="start"><tspan x="329.40000000000003" dy="14">GND</tspan></text><text x="329.40000000000003" y="-170.0" dominant-baseline="central" fill="black" font-size="14" font-family="sans" text-anchor="start"><tspan x="329.40000000000003" dy="14">VCC</tspan></text><text x="329.40000000000003" y="-217.99999999999997" dominant-baseline="central" fill="black" font-size="14" font-family="sans" text-anchor="start"><tspan x="329.40000000000003" dy="14">SDA</tspan></text><text x="329.40000000000003" y="-266.0" dominant-baseline="central" fill="black" font-size="14" font-family="sans" text-anchor="start"><tspan x="329.40000000000003" dy="14">SCL</tspan></text><text x="444.59999999999997" y="-122.0" dominant-baseline="central" fill="black" font-size="14" font-family="sans" text-anchor="end"><tspan x="444.59999999999997" dy="14">SD1</tspan></text><text x="444.59999999999997" y="-170.0" dominant-baseline="central" fill="black" font-size="14" font-family="sans" text-anchor="end"><tspan x="444.59999999999997" dy="14">SC1</tspan></text><text x="444.59999999999997" y="-217.99999999999997" dominant-baseline="central" fill="black" font-size="14" font-family="sans" text-anchor="end"><tspan x="444.59999999999997" dy="14">SD0</tspan></text><text x="444.59999999999997" y="-266.0" dominant-baseline="central" fill="black" font-size="14" font-family="sans" text-anchor="end"><tspan x="444.59999999999997" dy="14">SC0</tspan></text><text x="387.0" y="-86.60000000000001" dominant-baseline="hanging" fill="black" font-size="11" font-family="sans" text-anchor="middle"><tspan x="387.0" dy="11">TCA9548A</tspan><tspan x="387.0" dy="11">0x70</tspan></text><text x="644.4" y="-122.0" dominant-baseline="central" fill="black" font-size="14" font-family="sans" text-anchor="start"><tspan x="644.4" dy="14">GND</tspan></text><text x="644.4" y="-158.0" dominant-baseline="central" fill="black" font-size="14" font-family="sans" text-anchor="start"><tspan x="644.4" dy="14">VCC</tspan></text><text x="644.4" y="-194.0" dominant-baseline="central" fill="black" font-size="14" font-family="sans" text-anchor="start"><tspan x="644.4" dy="14">V+</tspan></text><text x="644.4" y="-230.0" dominant-baseline="central" fill="black" font-size="14" font-family="sans" text-anchor="start"><tspan x="644.4" dy="14">SDA</tspan></text><text x="644.4" y="-266.0" dominant-baseline="central" fill="black" font-size="14" font-family="sans" text-anchor="start"><tspan x="644.4" dy="14">SCL</tspan></text><text x="777.6" y="-122.0" dominant-baseline="central" fill="black" font-size="14" font-family="sans" text-anchor="end"><tspan x="777.6" dy="14">PWM 8-13</tspan></text><text x="777.6" y="-194.0" dominant-baseline="central" fill="black" font-size="14" font-family="sans" text-anchor="end"><tspan x="777.6" dy="14">PWM 6-7</tspan></text><text x="777.6" y="-266.0" dominant-baseline="central" fill="black" font-size="14" font-family="sans" text-anchor="end"><tspan x="777.6" dy="14">PWM 0-5</tspan></text><text x="711.0" y="-86.60000000000001" dominant-baseline="hanging" fill="black" font-size="11" font-family="sans" text-anchor="middle"><tspan x="711.0" dy="11">PCA9685</tspan><tspan x="711.0" dy="11">0x40 @ 200Hz</tspan></text><text x="896.4" y="220.0" dominant-baseline="central" fill="black" font-size="14" font-family="sans" text-anchor="start"><tspan x="896.4" dy="14">GND</tspan></text><text x="896.4" y="192.0" dominant-baseline="central" fill="black" font-size="14" font-family="sans" text-anchor="start"><tspan x="896.4" dy="14">VCC</tspan></text><text x="896.4" y="164.0" dominant-baseline="central" fill="black" font-size="14" font-family="sans" text-anchor="start"><tspan x="896.4" dy="14">VM</tspan></text><text x="896.4" y="135.99999999999997" dominant-baseline="central" fill="black" font-size="14" font-family="sans" text-anchor="start"><tspan x="896.4" dy="14">STBY</tspan></text><text x="896.4" y="108.0" dominant-baseline="central" fill="black" font-size="14" font-family="sans" text-anchor="start"><tspan x="896.4" dy="14">PWMB</tspan></text><text x="896.4" y="79.99999999999999" dominant-baseline="central" fill="black" font-size="14" font-family="sans" text-anchor="start"><tspan x="896.4" dy="14">BIN2</tspan></text><text x="896.4" y="51.999999999999986" dominant-baseline="central" fill="black" font-size="14" font-family="sans" text-anchor="start"><tspan x="896.4" dy="14">BIN1</tspan></text><text x="896.4" y="23.999999999999993" dominant-baseline="central" fill="black" font-size="14" font-family="sans" text-anchor="start"><tspan x="896.4" dy="14">PWMA</tspan></text><text x="896.4" y="-4.0000000000000036" dominant-baseline="central" fill="black" font-size="14" font-family="sans" text-anchor="start"><tspan x="896.4" dy="14">AIN2</tspan></text><text x="896.4" y="-32.0" dominant-baseline="central" fill="black" font-size="14" font-family="sans" text-anchor="start"><tspan x="896.4" dy="14">AIN1</tspan></text><text x="1029.6000000000001" y="220.0" dominant-baseline="central" fill="black" font-size="14" font-family="sans" text-anchor="end"><tspan x="1029.6000000000001" dy="14">BO2</tspan></text><text x="1029.6000000000001" y="135.99999999999997" dominant-baseline="central" fill="black" font-size="14" font-family="sans" text-anchor="end"><tspan x="1029.6000000000001" dy="14">BO1</tspan></text><text x="1029.6000000000001" y="51.999999999999986" dominant-baseline="central" fill="black" font-size="14" font-family="sans" text-anchor="end"><tspan x="1029.6000000000001" dy="14">AO2</tspan></text><text x="1029.6000000000001" y="-32.0" dominant-baseline="central" fill="black" font-size="14" font-family="sans" text-anchor="end"><tspan x="1029.6000000000001" dy="14">AO1</tspan></text><text x="963.0" y="255.40000000000003" dominant-baseline="hanging" fill="black" font-size="11" font-family="sans" text-anchor="middle"><tspan x="963.0" dy="11">TB6612FNG</tspan></text><text x="1179.0" y="189.39999999999998" dominant-baseline="hanging" fill="black" font-size="11" font-family="sans" text-anchor="middle"><tspan x="1179.0" dy="11">Left motor</tspan></text><text x="1179.0" y="21.4" dominant-baseline="hanging" fill="black" font-size="11" font-family="sans" text-anchor="middle"><tspan x="1179.0" dy="11">Right motor</tspan></text><text x="473.40000000000003" y="130.0" dominant-baseline="central" fill="black" font-size="14" font-family="sans" text-anchor="start"><tspan x="473.40000000000003" dy="14">GND</tspan></text><text x="473.40000000000003" y="106.0" dominant-baseline="central" fill="black" font-size="14" font-family="sans" text-anchor="start"><tspan x="473.40000000000003" dy="14">VCC</tspan></text><text x="473.40000000000003" y="82.00000000000001" dominant-baseline="central" fill="black" font-size="14" font-family="sans" text-anchor="start"><tspan x="473.40000000000003" dy="14">SDA</tspan></text><text x="473.40000000000003" y="58.0" dominant-baseline="central" fill="black" font-size="14" font-family="sans" text-anchor="start"><tspan x="473.40000000000003" dy="14">SCL</tspan></text><text x="522.0" y="165.4" dominant-baseline="hanging" fill="black" font-size="11" font-family="sans" text-anchor="middle"><tspan x="522.0" dy="11">SSD1306 OLED</tspan><tspan x="522.0" dy="11">0x3C, 128x64</tspan></text><text x="149.4" y="143.5" dominant-baseline="central" fill="black" font-size="14" font-family="sans" text-anchor="start"><tspan x="149.4" dy="14">GND</tspan></text><text x="149.4" y="119.5" dominant-baseline="central" fill="black" font-size="14" font-family="sans" text-anchor="start"><tspan x="149.4" dy="14">ECHO</tspan></text><text x="149.4" y="95.50000000000001" dominant-baseline="central" fill="black" font-size="14" font-family="sans" text-anchor="start"><tspan x="149.4" dy="14">TRIG</tspan></text><text x="149.4" y="71.5" dominant-baseline="central" fill="black" font-size="14" font-family="sans" text-anchor="start"><tspan x="149.4" dy="14">VCC</tspan></text><text x="198.0" y="178.9" dominant-baseline="hanging" fill="black" font-size="11" font-family="sans" text-anchor="middle"><tspan x="198.0" dy="11">HC-SR04P</tspan><tspan x="198.0" dy="11">ultrasonic</tspan></text><text x="140.4" y="-518.0" dominant-baseline="central" fill="black" font-size="14" font-family="sans" text-anchor="start"><tspan x="140.4" dy="14">DIN</tspan></text><text x="140.4" y="-590.0" dominant-baseline="central" fill="black" font-size="14" font-family="sans" text-anchor="start"><tspan x="140.4" dy="14">LRC</tspan></text><text x="140.4" y="-662.0" dominant-baseline="central" fill="black" font-size="14" font-family="sans" text-anchor="start"><tspan x="140.4" dy="14">BCLK</tspan></text><text x="345.59999999999997" y="-518.0" dominant-baseline="central" fill="black" font-size="14" font-family="sans" text-anchor="end"><tspan x="345.59999999999997" dy="14">GAIN</tspan></text><text x="345.59999999999997" y="-566.0" dominant-baseline="central" fill="black" font-size="14" font-family="sans" text-anchor="end"><tspan x="345.59999999999997" dy="14">SD</tspan></text><text x="345.59999999999997" y="-614.0" dominant-baseline="central" fill="black" font-size="14" font-family="sans" text-anchor="end"><tspan x="345.59999999999997" dy="14">GND</tspan></text><text x="345.59999999999997" y="-662.0" dominant-baseline="central" fill="black" font-size="14" font-family="sans" text-anchor="end"><tspan x="345.59999999999997" dy="14">VIN</tspan></text><text x="209.70000000000002" y="-494.3" dominant-baseline="hanging" fill="black" font-size="11" font-family="sans" text-anchor="start"><tspan x="209.70000000000002" dy="11">-</tspan></text><text x="207.0" y="-505.40000000000003" dominant-baseline="ideographic" fill="black" font-size="14" font-family="sans" text-anchor="middle"><tspan x="207.0" dy="14">OUT-</tspan></text><text x="281.7" y="-494.3" dominant-baseline="hanging" fill="black" font-size="11" font-family="sans" text-anchor="start"><tspan x="281.7" dy="11">+</tspan></text><text x="279.0" y="-505.40000000000003" dominant-baseline="ideographic" fill="black" font-size="14" font-family="sans" text-anchor="middle"><tspan x="279.0" dy="14">OUT+</tspan></text><text x="243.0" y="-691.4" dominant-baseline="ideographic" fill="black" font-size="11" font-family="sans" text-anchor="middle"><tspan x="243.0" dy="11">MAX98357A</tspan></text><text x="249.75" y="-334.09999999999997" dominant-baseline="hanging" fill="black" font-size="11" font-family="sans" text-anchor="middle"><tspan x="249.75" dy="11">8 Ω  2-3 W</tspan></text><text x="198.0" y="-122.60000000000001" dominant-baseline="ideographic" fill="black" font-size="11" font-family="sans" text-anchor="middle"><tspan x="198.0" dy="11">100 Ω</tspan></text><text x="249.75" y="-143.29999999999998" dominant-baseline="ideographic" fill="black" font-size="11" font-family="sans" text-anchor="middle"><tspan x="249.75" dy="11">Piezo</tspan></text><text x="894.6" y="-190.0" dominant-baseline="central" fill="steelblue" font-size="10" font-family="sans" text-anchor="start"><tspan x="894.6" dy="10">Pan / Tilt SG90</tspan></text><text x="894.6" y="-262.0" dominant-baseline="central" fill="steelblue" font-size="10" font-family="sans" text-anchor="start"><tspan x="894.6" dy="10">2× RGB LED</tspan></text><text x="-36.0" y="-209.0" dominant-baseline="ideographic" fill="black" font-size="11" font-family="sans" text-anchor="middle"><tspan x="-36.0" dy="11">+3V3</tspan></text><text x="-36.0" y="-371.0" dominant-baseline="ideographic" fill="black" font-size="11" font-family="sans" text-anchor="middle"><tspan x="-36.0" dy="11">+5V</tspan></text><text x="288.0" y="-185.0" dominant-baseline="ideographic" fill="black" font-size="11" font-family="sans" text-anchor="middle"><tspan x="288.0" dy="11">+3V3</tspan></text><text x="567.0" y="-173.0" dominant-baseline="ideographic" fill="black" font-size="11" font-family="sans" text-anchor="middle"><tspan x="567.0" dy="11">+3V3</tspan></text><text x="567.0" y="-209.0" dominant-baseline="ideographic" fill="black" font-size="11" font-family="sans" text-anchor="middle"><tspan x="567.0" dy="11">+5V</tspan></text><text x="855.0" y="177.0" dominant-baseline="ideographic" fill="black" font-size="11" font-family="sans" text-anchor="middle"><tspan x="855.0" dy="11">+3V3</tspan></text><text x="855.0" y="149.0" dominant-baseline="ideographic" fill="black" font-size="11" font-family="sans" text-anchor="middle"><tspan x="855.0" dy="11">+5V</tspan></text><text x="414.0" y="91.0" dominant-baseline="ideographic" fill="black" font-size="11" font-family="sans" text-anchor="middle"><tspan x="414.0" dy="11">+3V3</tspan></text><text x="90.0" y="56.5" dominant-baseline="ideographic" fill="black" font-size="11" font-family="sans" text-anchor="middle"><tspan x="90.0" dy="11">+3V3</tspan></text><text x="387.0" y="-677.0" dominant-baseline="ideographic" fill="black" font-size="11" font-family="sans" text-anchor="middle"><tspan x="387.0" dy="11">+5V</tspan></text><text x="444.59999999999997" y="-562.0" dominant-baseline="central" fill="gray" font-size="10" font-family="sans" text-anchor="start"><tspan x="444.59999999999997" dy="10">float = (L+R)/2</tspan></text></svg>
