<svg xmlns="http://www.w3.org/2000/svg" xmlns:xlink="http://www.w3.org/1999/xlink" xml:lang="en" height="650.1999999999999pt" width="1273.301pt" viewBox="-53.701 -267.6 1273.301 650.1999999999999"><circle cx="1179.0" cy="221.99999999999997" r="18.0" style="stroke:black;fill:none;stroke-width:2.0;stroke-dasharray:-;" /><circle cx="1179.0" cy="54.0" r="18.0" style="stroke:black;fill:none;stroke-width:2.0;stroke-dasharray:-;" /><polygon points="243.0,-113.39999999999999 243.0,-77.39999999999999 252.0,-77.39999999999999 252.0,-113.39999999999999 " style="stroke:black;fill:none;stroke-width:2.0;stroke-dasharray:-;stroke-linecap:round;stroke-linejoin:round;" /><polyline points="252.0,-113.39999999999999 265.5,-126.89999999999999 265.5,-63.9 252.0,-77.39999999999999 " style="stroke:black;fill:none;stroke-width:2.0;stroke-dasharray:-;stroke-linecap:round;stroke-linejoin:round;" /><path d="M 0.0,-0.0 L 126.0,-0.0 L 126.0,-252.0 L 0.0,-252.0 L 0.0,-0.0" style="stroke:black;fill:none;stroke-width:2.0;stroke-dasharray:-;stroke-linecap:round;stroke-linejoin:round;" /><path d="M 0.0,-18.0 L -18.0,-18.0" style="stroke:black;fill:none;stroke-width:2.0;stroke-dasharray:-;stroke-linecap:round;stroke-linejoin:round;" /><path d="M 0.0,-126.0 L -18.0,-126.0" style="stroke:black;fill:none;stroke-width:2.0;stroke-dasharray:-;stroke-linecap:round;stroke-linejoin:round;" /><path d="M 0.0,-234.0 L -18.0,-234.0" style="stroke:black;fill:none;stroke-width:2.0;stroke-dasharray:-;stroke-linecap:round;stroke-linejoin:round;" /><path d="M 126.0,-18.0 L 144.0,-18.0" style="stroke:black;fill:none;stroke-width:2.0;stroke-dasharray:-;stroke-linecap:round;stroke-linejoin:round;" /><path d="M 126.0,-61.199999999999996 L 144.0,-61.199999999999996" style="stroke:black;fill:none;stroke-width:2.0;stroke-dasharray:-;stroke-linecap:round;stroke-linejoin:round;" /><path d="M 126.0,-104.39999999999999 L 144.0,-104.39999999999999" style="stroke:black;fill:none;stroke-width:2.0;stroke-dasharray:-;stroke-linecap:round;stroke-linejoin:round;" /><path d="M 126.0,-147.6 L 144.0,-147.6" style="stroke:black;fill:none;stroke-width:2.0;stroke-dasharray:-;stroke-linecap:round;stroke-linejoin:round;" /><path d="M 126.0,-190.79999999999998 L 144.0,-190.79999999999998" style="stroke:black;fill:none;stroke-width:2.0;stroke-dasharray:-;stroke-linecap:round;stroke-linejoin:round;" /><path d="M 126.0,-234.0 L 144.0,-234.0" style="stroke:black;fill:none;stroke-width:2.0;stroke-dasharray:-;stroke-linecap:round;stroke-linejoin:round;" /><path d="M 324.0,-36.0 L 450.0,-36.0 L 450.0,-216.0 L 324.0,-216.0 L 324.0,-36.0" style="stroke:black;fill:none;stroke-width:2.0;stroke-dasharray:-;stroke-linecap:round;stroke-linejoin:round;" /><path d="M 324.0,-54.0 L 306.0,-54.0" style="stroke:black;fill:none;stroke-width:2.0;stroke-dasharray:-;stroke-linecap:round;stroke-linejoin:round;" /><path d="M 324.0,-101.99999999999999 L 306.0,-101.99999999999999" style="stroke:black;fill:none;stroke-width:2.0;stroke-dasharray:-;stroke-linecap:round;stroke-linejoin:round;" /><path d="M 324.0,-149.99999999999997 L 306.0,-149.99999999999997" style="stroke:black;fill:none;stroke-width:2.0;stroke-dasharray:-;stroke-linecap:round;stroke-linejoin:round;" /><path d="M 324.0,-198.0 L 306.0,-198.0" style="stroke:black;fill:none;stroke-width:2.0;stroke-dasharray:-;stroke-linecap:round;stroke-linejoin:round;" /><path d="M 450.0,-54.0 L 468.0,-54.0" style="stroke:black;fill:none;stroke-width:2.0;stroke-dasharray:-;stroke-linecap:round;stroke-linejoin:round;" /><path d="M 450.0,-101.99999999999999 L 468.0,-101.99999999999999" style="stroke:black;fill:none;stroke-width:2.0;stroke-dasharray:-;stroke-linecap:round;stroke-linejoin:round;" /><path d="M 450.0,-149.99999999999997 L 468.0,-149.99999999999997" style="stroke:black;fill:none;stroke-width:2.0;stroke-dasharray:-;stroke-linecap:round;stroke-linejoin:round;" /><path d="M 450.0,-198.0 L 468.0,-198.0" style="stroke:black;fill:none;stroke-width:2.0;stroke-dasharray:-;stroke-linecap:round;stroke-linejoin:round;" /><path d="M 639.0,-36.0 L 783.0,-36.0 L 783.0,-216.0 L 639.0,-216.0 L 639.0,-36.0" style="stroke:black;fill:none;stroke-width:2.0;stroke-dasharray:-;stroke-linecap:round;stroke-linejoin:round;" /><path d="M 639.0,-54.0 L 621.0,-54.0" style="stroke:black;fill:none;stroke-width:2.0;stroke-dasharray:-;stroke-linecap:round;stroke-linejoin:round;" /><path d="M 639.0,-90.0 L 621.0,-90.0" style="stroke:black;fill:none;stroke-width:2.0;stroke-dasharray:-;stroke-linecap:round;stroke-linejoin:round;" /><path d="M 639.0,-126.0 L 621.0,-126.0" style="stroke:black;fill:none;stroke-width:2.0;stroke-dasharray:-;stroke-linecap:round;stroke-linejoin:round;" /><path d="M 639.0,-162.0 L 621.0,-162.0" style="stroke:black;fill:none;stroke-width:2.0;stroke-dasharray:-;stroke-linecap:round;stroke-linejoin:round;" /><path d="M 639.0,-198.0 L 621.0,-198.0" style="stroke:black;fill:none;stroke-width:2.0;stroke-dasharray:-;stroke-linecap:round;stroke-linejoin:round;" /><path d="M 783.0,-54.0 L 801.0,-54.0" style="stroke:black;fill:none;stroke-width:2.0;stroke-dasharray:-;stroke-linecap:round;stroke-linejoin:round;" /><path d="M 783.0,-126.0 L 801.0,-126.0" style="stroke:black;fill:none;stroke-width:2.0;stroke-dasharray:-;stroke-linecap:round;stroke-linejoin:round;" /><path d="M 783.0,-198.0 L 801.0,-198.0" style="stroke:black;fill:none;stroke-width:2.0;stroke-dasharray:-;stroke-linecap:round;stroke-linejoin:round;" /><path d="M 891.0,306.0 L 1035.0,306.0 L 1035.0,18.0 L 891.0,18.0 L 891.0,306.0" style="stroke:black;fill:none;stroke-width:2.0;stroke-dasharray:-;stroke-linecap:round;stroke-linejoin:round;" /><path d="M 891.0,288.0 L 873.0,288.0" style="stroke:black;fill:none;stroke-width:2.0;stroke-dasharray:-;stroke-linecap:round;stroke-linejoin:round;" /><path d="M 891.0,260.0 L 873.0,260.0" style="stroke:black;fill:none;stroke-width:2.0;stroke-dasharray:-;stroke-linecap:round;stroke-linejoin:round;" /><path d="M 891.0,232.0 L 873.0,232.0" style="stroke:black;fill:none;stroke-width:2.0;stroke-dasharray:-;stroke-linecap:round;stroke-linejoin:round;" /><path d="M 891.0,203.99999999999997 L 873.0,203.99999999999997" style="stroke:black;fill:none;stroke-width:2.0;stroke-dasharray:-;stroke-linecap:round;stroke-linejoin:round;" /><path d="M 891.0,176.0 L 873.0,176.0" style="stroke:black;fill:none;stroke-width:2.0;stroke-dasharray:-;stroke-linecap:round;stroke-linejoin:round;" /><path d="M 891.0,148.0 L 873.0,148.0" style="stroke:black;fill:none;stroke-width:2.0;stroke-dasharray:-;stroke-linecap:round;stroke-linejoin:round;" /><path d="M 891.0,119.99999999999999 L 873.0,119.99999999999999" style="stroke:black;fill:none;stroke-width:2.0;stroke-dasharray:-;stroke-linecap:round;stroke-linejoin:round;" /><path d="M 891.0,92.0 L 873.0,92.0" style="stroke:black;fill:none;stroke-width:2.0;stroke-dasharray:-;stroke-linecap:round;stroke-linejoin:round;" /><path d="M 891.0,64.0 L 873.0,64.0" style="stroke:black;fill:none;stroke-width:2.0;stroke-dasharray:-;stroke-linecap:round;stroke-linejoin:round;" /><path d="M 891.0,36.0 L 873.0,36.0" style="stroke:black;fill:none;stroke-width:2.0;stroke-dasharray:-;stroke-linecap:round;stroke-linejoin:round;" /><path d="M 1035.0,288.0 L 1053.0,288.0" style="stroke:black;fill:none;stroke-width:2.0;stroke-dasharray:-;stroke-linecap:round;stroke-linejoin:round;" /><path d="M 1035.0,203.99999999999997 L 1053.0,203.99999999999997" style="stroke:black;fill:none;stroke-width:2.0;stroke-dasharray:-;stroke-linecap:round;stroke-linejoin:round;" /><path d="M 1035.0,119.99999999999999 L 1053.0,119.99999999999999" style="stroke:black;fill:none;stroke-width:2.0;stroke-dasharray:-;stroke-linecap:round;stroke-linejoin:round;" /><path d="M 1035.0,36.0 L 1053.0,36.0" style="stroke:black;fill:none;stroke-width:2.0;stroke-dasharray:-;stroke-linecap:round;stroke-linejoin:round;" /><path d="M 144.0,-234.0 L 306.0,-149.99999999999997" style="stroke:steelblue;fill:none;stroke-width:2.0;stroke-dasharray:-;stroke-linecap:round;stroke-linejoin:round;" /><path d="M 144.0,-190.79999999999998 L 306.0,-198.0" style="stroke:steelblue;fill:none;stroke-width:2.0;stroke-dasharray:-;stroke-linecap:round;stroke-linejoin:round;" /><path d="M 468.0,-149.99999999999997 L 621.0,-162.0" style="stroke:steelblue;fill:none;stroke-width:2.0;stroke-dasharray:-;stroke-linecap:round;stroke-linejoin:round;" /><path d="M 468.0,-198.0 L 621.0,-198.0" style="stroke:steelblue;fill:none;stroke-width:2.0;stroke-dasharray:-;stroke-linecap:round;stroke-linejoin:round;" /><path d="M 801.0,-54.0 L 873.0,-54.0 L 873.0,92.0" style="stroke:steelblue;fill:none;stroke-width:2.0;stroke-dasharray:-;stroke-linecap:round;stroke-linejoin:round;" /><path d="M 1143.0,221.99999999999997 L 1153.08,221.99999999999997 L 1153.08,221.99999999999997 M 1204.92,221.99999999999997 L 1204.92,221.99999999999997 L 1215.0,221.99999999999997" style="stroke:black;fill:none;stroke-width:2.0;stroke-dasharray:-;stroke-linecap:round;stroke-linejoin:round;" /><path d="M 1161.0,229.91999999999996 L 1153.08,229.91999999999996 L 1153.08,214.07999999999998 L 1161.0,214.07999999999998" style="stroke:black;fill:none;stroke-width:2.0;stroke-dasharray:-;stroke-linecap:round;stroke-linejoin:round;" /><path d="M 1197.0,229.91999999999996 L 1204.92,229.91999999999996 L 1204.92,214.07999999999998 L 1197.0,214.07999999999998" style="stroke:black;fill:none;stroke-width:2.0;stroke-dasharray:-;stroke-linecap:round;stroke-linejoin:round;" /><path d="M 1053.0,203.99999999999997 L 1143.0,203.99999999999997 L 1143.0,221.99999999999997" style="stroke:black;fill:none;stroke-width:2.0;stroke-dasharray:-;stroke-linecap:round;stroke-linejoin:round;" /><path d="M 1053.0,288.0 L 1053.0,221.99999999999997 L 1215.0,221.99999999999997" style="stroke:black;fill:none;stroke-width:2.0;stroke-dasharray:-;stroke-linecap:round;stroke-linejoin:round;" /><path d="M 1143.0,54.0 L 1153.08,54.0 L 1153.08,54.0 M 1204.92,54.0 L 1204.92,54.0 L 1215.0,54.0" style="stroke:black;fill:none;stroke-width:2.0;stroke-dasharray:-;stroke-linecap:round;stroke-linejoin:round;" /><path d="M 1161.0,61.92 L 1153.08,61.92 L 1153.08,46.08 L 1161.0,46.08" style="stroke:black;fill:none;stroke-width:2.0;stroke-dasharray:-;stroke-linecap:round;stroke-linejoin:round;" /><path d="M 1197.0,61.92 L 1204.92,61.92 L 1204.92,46.08 L 1197.0,46.08" style="stroke:black;fill:none;stroke-width:2.0;stroke-dasharray:-;stroke-linecap:round;stroke-linejoin:round;" /><path d="M 1053.0,36.0 L 1143.0,36.0 L 1143.0,54.0" style="stroke:black;fill:none;stroke-width:2.0;stroke-dasharray:-;stroke-linecap:round;stroke-linejoin:round;" /><path d="M 1053.0,119.99999999999999 L 1053.0,54.0 L 1215.0,54.0" style="stroke:black;fill:none;stroke-width:2.0;stroke-dasharray:-;stroke-linecap:round;stroke-linejoin:round;" /><path d="M 144.0,-147.6 L 144.0,378.0 L 819.0,378.0" style="stroke:steelblue;fill:none;stroke-width:2.0;stroke-dasharray:-;stroke-linecap:round;stroke-linejoin:round;" /><path d="M 819.0,378.0 L 873.0,378.0 L 873.0,203.99999999999997" style="stroke:steelblue;fill:none;stroke-width:2.0;stroke-dasharray:-;stroke-linecap:round;stroke-linejoin:round;" /><path d="M 468.0,216.0 L 594.0,216.0 L 594.0,108.0 L 468.0,108.0 L 468.0,216.0" style="stroke:black;fill:none;stroke-width:2.0;stroke-dasharray:-;stroke-linecap:round;stroke-linejoin:round;" /><path d="M 468.0,198.0 L 450.0,198.0" style="stroke:black;fill:none;stroke-width:2.0;stroke-dasharray:-;stroke-linecap:round;stroke-linejoin:round;" /><path d="M 468.0,174.00000000000003 L 450.0,174.00000000000003" style="stroke:black;fill:none;stroke-width:2.0;stroke-dasharray:-;stroke-linecap:round;stroke-linejoin:round;" /><path d="M 468.0,150.0 L 450.0,150.0" style="stroke:black;fill:none;stroke-width:2.0;stroke-dasharray:-;stroke-linecap:round;stroke-linejoin:round;" /><path d="M 468.0,126.0 L 450.0,126.0" style="stroke:black;fill:none;stroke-width:2.0;stroke-dasharray:-;stroke-linecap:round;stroke-linejoin:round;" /><path d="M 468.0,-54.0 L 450.0,-54.0 L 450.0,150.0" style="stroke:steelblue;fill:none;stroke-width:2.0;stroke-dasharray:-;stroke-linecap:round;stroke-linejoin:round;" /><path d="M 468.0,-101.99999999999999 L 450.0,-101.99999999999999 L 450.0,126.0" style="stroke:steelblue;fill:none;stroke-width:2.0;stroke-dasharray:-;stroke-linecap:round;stroke-linejoin:round;" /><path d="M 801.0,-126.0 L 846.0,-126.0 L 891.0,-126.0" style="stroke:steelblue;fill:none;stroke-width:2.0;stroke-dasharray:-;stroke-linecap:round;stroke-linejoin:round;" /><path d="M 801.0,-198.0 L 846.0,-198.0 L 891.0,-198.0" style="stroke:steelblue;fill:none;stroke-width:2.0;stroke-dasharray:-;stroke-linecap:round;stroke-linejoin:round;" /><path d="M 144.0,172.79999999999998 L 270.0,172.79999999999998 L 270.0,64.8 L 144.0,64.8 L 144.0,172.79999999999998" style="stroke:black;fill:none;stroke-width:2.0;stroke-dasharray:-;stroke-linecap:round;stroke-linejoin:round;" /><path d="M 144.0,154.79999999999998 L 126.0,154.79999999999998" style="stroke:black;fill:none;stroke-width:2.0;stroke-dasharray:-;stroke-linecap:round;stroke-linejoin:round;" /><path d="M 144.0,130.8 L 126.0,130.8" style="stroke:black;fill:none;stroke-width:2.0;stroke-dasharray:-;stroke-linecap:round;stroke-linejoin:round;" /><path d="M 144.0,106.80000000000001 L 126.0,106.80000000000001" style="stroke:black;fill:none;stroke-width:2.0;stroke-dasharray:-;stroke-linecap:round;stroke-linejoin:round;" /><path d="M 144.0,82.8 L 126.0,82.8" style="stroke:black;fill:none;stroke-width:2.0;stroke-dasharray:-;stroke-linecap:round;stroke-linejoin:round;" /><path d="M 144.0,-61.199999999999996 L 144.0,106.80000000000001 L 126.0,106.80000000000001" style="stroke:steelblue;fill:none;stroke-width:2.0;stroke-dasharray:-;stroke-linecap:round;stroke-linejoin:round;" /><path d="M 144.0,-18.0 L 144.0,130.79999999999998 L 126.0,130.79999999999998" style="stroke:steelblue;fill:none;stroke-width:2.0;stroke-dasharray:-;stroke-linecap:round;stroke-linejoin:round;" /><path d="M 144.0,-104.39999999999999 L 153.0,-104.39999999999999 L 162.0,-104.39999999999999" style="stroke:black;fill:none;stroke-width:2.0;stroke-dasharray:-;stroke-linecap:round;stroke-linejoin:round;" /><path d="M 162.0,-104.39999999999999 L 180.0,-104.39999999999999 L 183.0,-113.39999999999999 L 189.0,-95.39999999999999 L 195.0,-113.39999999999999 L 201.0,-95.39999999999999 L 207.0,-113.39999999999999 L 212.99999999999997,-95.39999999999999 L 216.0,-104.39999999999999 L 234.0,-104.39999999999999" style="stroke:black;fill:none;stroke-width:2.0;stroke-dasharray:-;stroke-linecap:round;stroke-linejoin:round;" /><path d="M 234.0,-104.39999999999999 L 243.0,-104.39999999999999" style="stroke:black;fill:none;stroke-width:2.0;stroke-dasharray:-;stroke-linecap:round;stroke-linejoin:round;" /><path d="M 234.0,-86.39999999999999 L 243.0,-86.39999999999999" style="stroke:black;fill:none;stroke-width:2.0;stroke-dasharray:-;stroke-linecap:round;stroke-linejoin:round;" /><path d="M 234.0,-86.39999999999999 L 234.0,-77.39999999999999 L 234.0,-68.39999999999999" style="stroke:black;fill:none;stroke-width:2.0;stroke-dasharray:-;stroke-linecap:round;stroke-linejoin:round;" /><path d="M 234.0,-68.39999999999999 L 234.0,-54.0 L 225.0,-54.0 L 243.0,-54.0 M 227.70000000000002,-49.67999999999999 L 240.29999999999998,-49.67999999999999 M 232.20000000000002,-45.35999999999999 L 235.79999999999998,-45.35999999999999" style="stroke:black;fill:none;stroke-width:2.0;stroke-dasharray:-;stroke-linecap:round;stroke-linejoin:round;" /><path d="M -18.0,-126.0 L -27.0,-126.0 L -36.0,-126.0" style="stroke:black;fill:none;stroke-width:2.0;stroke-dasharray:-;stroke-linecap:round;stroke-linejoin:round;" /><path d="M -36.0,-126.0 L -36.0,-140.4" style="stroke:black;fill:none;stroke-width:2.0;stroke-dasharray:-;stroke-linecap:round;stroke-linejoin:round;" /><path d="M -36.0,-140.4 L -42.75,-140.4" style="stroke:black;fill:none;stroke-width:2.0;stroke-dasharray:-;stroke-linecap:round;stroke-linejoin:round;" /><path d="M -36.0,-140.4 L -29.25,-140.4" style="stroke:black;fill:none;stroke-width:2.0;stroke-dasharray:-;stroke-linecap:round;stroke-linejoin:round;" /><path d="M -18.0,-18.0 L -27.0,-18.0 L -36.0,-18.000000000000004" style="stroke:black;fill:none;stroke-width:2.0;stroke-dasharray:-;stroke-linecap:round;stroke-linejoin:round;" /><path d="M -36.0,-18.000000000000004 L -36.0,-3.600000000000003 L -45.0,-3.600000000000003 L -27.0,-3.600000000000003 M -42.300000000000004,0.7199999999999966 L -29.7,0.7199999999999966 M -37.800000000000004,5.0399999999999965 L -34.199999999999996,5.0399999999999965" style="stroke:black;fill:none;stroke-width:2.0;stroke-dasharray:-;stroke-linecap:round;stroke-linejoin:round;" /><path d="M -18.0,-234.0 L -27.0,-234.0 L -36.0,-234.0" style="stroke:black;fill:none;stroke-width:2.0;stroke-dasharray:-;stroke-linecap:round;stroke-linejoin:round;" /><path d="M -36.0,-234.0 L -36.0,-248.4" style="stroke:black;fill:none;stroke-width:2.0;stroke-dasharray:-;stroke-linecap:round;stroke-linejoin:round;" /><path d="M -36.0,-248.4 L -42.75,-248.4" style="stroke:black;fill:none;stroke-width:2.0;stroke-dasharray:-;stroke-linecap:round;stroke-linejoin:round;" /><path d="M -36.0,-248.4 L -29.25,-248.4" style="stroke:black;fill:none;stroke-width:2.0;stroke-dasharray:-;stroke-linecap:round;stroke-linejoin:round;" /><path d="M 306.0,-101.99999999999999 L 297.0,-101.99999999999999 L 288.0,-101.99999999999999" style="stroke:black;fill:none;stroke-width:2.0;stroke-dasharray:-;stroke-linecap:round;stroke-linejoin:round;" /><path d="M 288.0,-101.99999999999999 L 288.0,-116.39999999999999" style="stroke:black;fill:none;stroke-width:2.0;stroke-dasharray:-;stroke-linecap:round;stroke-linejoin:round;" /><path d="M 288.0,-116.39999999999999 L 281.25,-116.39999999999999" style="stroke:black;fill:none;stroke-width:2.0;stroke-dasharray:-;stroke-linecap:round;stroke-linejoin:round;" /><path d="M 288.0,-116.39999999999999 L 294.75,-116.39999999999999" style="stroke:black;fill:none;stroke-width:2.0;stroke-dasharray:-;stroke-linecap:round;stroke-linejoin:round;" /><path d="M 306.0,-54.0 L 297.0,-54.0 L 288.0,-54.0" style="stroke:black;fill:none;stroke-width:2.0;stroke-dasharray:-;stroke-linecap:round;stroke-linejoin:round;" /><path d="M 288.0,-54.0 L 288.0,-39.6 L 279.0,-39.6 L 297.0,-39.6 M 281.7,-35.28 L 294.3,-35.28 M 286.2,-30.96 L 289.8,-30.96" style="stroke:black;fill:none;stroke-width:2.0;stroke-dasharray:-;stroke-linecap:round;stroke-linejoin:round;" /><path d="M 621.0,-90.0 L 594.0,-90.0 L 567.0,-90.0" style="stroke:black;fill:none;stroke-width:2.0;stroke-dasharray:-;stroke-linecap:round;stroke-linejoin:round;" /><path d="M 567.0,-90.0 L 567.0,-104.39999999999999" style="stroke:black;fill:none;stroke-width:2.0;stroke-dasharray:-;stroke-linecap:round;stroke-linejoin:round;" /><path d="M 567.0,-104.39999999999999 L 560.25,-104.39999999999999" style="stroke:black;fill:none;stroke-width:2.0;stroke-dasharray:-;stroke-linecap:round;stroke-linejoin:round;" /><path d="M 567.0,-104.39999999999999 L 573.75,-104.39999999999999" style="stroke:black;fill:none;stroke-width:2.0;stroke-dasharray:-;stroke-linecap:round;stroke-linejoin:round;" /><path d="M 621.0,-126.0 L 594.0,-126.0 L 567.0,-126.0" style="stroke:black;fill:none;stroke-width:2.0;stroke-dasharray:-;stroke-linecap:round;stroke-linejoin:round;" /><path d="M 567.0,-126.0 L 567.0,-140.4" style="stroke:black;fill:none;stroke-width:2.0;stroke-dasharray:-;stroke-linecap:round;stroke-linejoin:round;" /><path d="M 567.0,-140.4 L 560.25,-140.4" style="stroke:black;fill:none;stroke-width:2.0;stroke-dasharray:-;stroke-linecap:round;stroke-linejoin:round;" /><path d="M 567.0,-140.4 L 573.75,-140.4" style="stroke:black;fill:none;stroke-width:2.0;stroke-dasharray:-;stroke-linecap:round;stroke-linejoin:round;" /><path d="M 621.0,-54.0 L 594.0,-54.0 L 567.0,-54.00000000000001" style="stroke:black;fill:none;stroke-width:2.0;stroke-dasharray:-;stroke-linecap:round;stroke-linejoin:round;" /><path d="M 567.0,-54.00000000000001 L 567.0,-39.6 L 558.0,-39.6 L 576.0,-39.6 M 560.6999999999999,-35.28000000000001 L 573.3000000000001,-35.28000000000001 M 565.1999999999999,-30.960000000000008 L 568.8000000000001,-30.960000000000008" style="stroke:black;fill:none;stroke-width:2.0;stroke-dasharray:-;stroke-linecap:round;stroke-linejoin:round;" /><path d="M 873.0,260.0 L 864.0,260.0 L 855.0,260.0" style="stroke:black;fill:none;stroke-width:2.0;stroke-dasharray:-;stroke-linecap:round;stroke-linejoin:round;" /><path d="M 855.0,260.0 L 855.0,245.6" style="stroke:black;fill:none;stroke-width:2.0;stroke-dasharray:-;stroke-linecap:round;stroke-linejoin:round;" /><path d="M 855.0,245.6 L 848.25,245.6" style="stroke:black;fill:none;stroke-width:2.0;stroke-dasharray:-;stroke-linecap:round;stroke-linejoin:round;" /><path d="M 855.0,245.6 L 861.75,245.6" style="stroke:black;fill:none;stroke-width:2.0;stroke-dasharray:-;stroke-linecap:round;stroke-linejoin:round;" /><path d="M 873.0,232.0 L 864.0,232.0 L 855.0,232.0" style="stroke:black;fill:none;stroke-width:2.0;stroke-dasharray:-;stroke-linecap:round;stroke-linejoin:round;" /><path d="M 855.0,232.0 L 855.0,217.6" style="stroke:black;fill:none;stroke-width:2.0;stroke-dasharray:-;stroke-linecap:round;stroke-linejoin:round;" /><path d="M 855.0,217.6 L 848.25,217.6" style="stroke:black;fill:none;stroke-width:2.0;stroke-dasharray:-;stroke-linecap:round;stroke-linejoin:round;" /><path d="M 855.0,217.6 L 861.75,217.6" style="stroke:black;fill:none;stroke-width:2.0;stroke-dasharray:-;stroke-linecap:round;stroke-linejoin:round;" /><path d="M 873.0,288.0 L 864.0,288.0 L 855.0,288.0" style="stroke:black;fill:none;stroke-width:2.0;stroke-dasharray:-;stroke-linecap:round;stroke-linejoin:round;" /><path d="M 855.0,288.0 L 855.0,302.40000000000003 L 846.0,302.40000000000003 L 864.0,302.40000000000003 M 848.6999999999999,306.71999999999997 L 861.3000000000001,306.71999999999997 M 853.1999999999999,311.04 L 856.8000000000001,311.04" style="stroke:black;fill:none;stroke-width:2.0;stroke-dasharray:-;stroke-linecap:round;stroke-linejoin:round;" /><path d="M 450.0,174.00000000000003 L 432.0,174.00000000000003 L 414.0,174.00000000000003" style="stroke:black;fill:none;stroke-width:2.0;stroke-dasharray:-;stroke-linecap:round;stroke-linejoin:round;" /><path d="M 414.0,174.00000000000003 L 414.0,159.60000000000002" style="stroke:black;fill:none;stroke-width:2.0;stroke-dasharray:-;stroke-linecap:round;stroke-linejoin:round;" /><path d="M 414.0,159.60000000000002 L 407.25,159.60000000000002" style="stroke:black;fill:none;stroke-width:2.0;stroke-dasharray:-;stroke-linecap:round;stroke-linejoin:round;" /><path d="M 414.0,159.60000000000002 L 420.75,159.60000000000002" style="stroke:black;fill:none;stroke-width:2.0;stroke-dasharray:-;stroke-linecap:round;stroke-linejoin:round;" /><path d="M 450.0,198.0 L 432.0,198.0 L 414.0,198.0" style="stroke:black;fill:none;stroke-width:2.0;stroke-dasharray:-;stroke-linecap:round;stroke-linejoin:round;" /><path d="M 414.0,198.0 L 414.0,212.4 L 405.0,212.4 L 423.0,212.4 M 407.7,216.71999999999997 L 420.3,216.71999999999997 M 412.2,221.04 L 415.8,221.04" style="stroke:black;fill:none;stroke-width:2.0;stroke-dasharray:-;stroke-linecap:round;stroke-linejoin:round;" /><path d="M 126.0,82.8 L 108.0,82.8 L 90.0,82.8" style="stroke:black;fill:none;stroke-width:2.0;stroke-dasharray:-;stroke-linecap:round;stroke-linejoin:round;" /><path d="M 90.0,82.8 L 90.0,68.39999999999999" style="stroke:black;fill:none;stroke-width:2.0;stroke-dasharray:-;stroke-linecap:round;stroke-linejoin:round;" /><path d="M 90.0,68.39999999999999 L 83.25,68.39999999999999" style="stroke:black;fill:none;stroke-width:2.0;stroke-dasharray:-;stroke-linecap:round;stroke-linejoin:round;" /><path d="M 90.0,68.39999999999999 L 96.75,68.39999999999999" style="stroke:black;fill:none;stroke-width:2.0;stroke-dasharray:-;stroke-linecap:round;stroke-linejoin:round;" /><path d="M 126.0,154.79999999999998 L 108.0,154.79999999999998 L 90.0,154.79999999999998" style="stroke:black;fill:none;stroke-width:2.0;stroke-dasharray:-;stroke-linecap:round;stroke-linejoin:round;" /><path d="M 90.0,154.79999999999998 L 90.0,169.20000000000002 L 81.0,169.20000000000002 L 99.0,169.20000000000002 M 83.7,173.52 L 96.3,173.52 M 88.2,177.83999999999997 L 91.8,177.83999999999997" style="stroke:black;fill:none;stroke-width:2.0;stroke-dasharray:-;stroke-linecap:round;stroke-linejoin:round;" /><text x="5.3999999999999995" y="-32.0" dominant-baseline="central" fill="black" font-size="14" font-family="sans" text-anchor="start"><tspan x="5.3999999999999995" dy="14">GND</tspan></text><text x="5.3999999999999995" y="-140.0" dominant-baseline="central" fill="black" font-size="14" font-family="sans" text-anchor="start"><tspan x="5.3999999999999995" dy="14">3V3</tspan></text><text x="5.3999999999999995" y="-248.0" dominant-baseline="central" fill="black" font-size="14" font-family="sans" text-anchor="start"><tspan x="5.3999999999999995" dy="14">5V</tspan></text><text x="128.70000000000002" y="-31.7" dominant-baseline="ideographic" fill="black" font-size="11" font-family="sans" text-anchor="start"><tspan x="128.70000000000002" dy="11">D3</tspan></text><text x="120.60000000000001" y="-32.0" dominant-baseline="central" fill="black" font-size="14" font-family="sans" text-anchor="end"><tspan x="120.60000000000001" dy="14">GPIO4</tspan></text><text x="128.70000000000002" y="-74.9" dominant-baseline="ideographic" fill="black" font-size="11" font-family="sans" text-anchor="start"><tspan x="128.70000000000002" dy="11">D2</tspan></text><text x="120.60000000000001" y="-75.19999999999999" dominant-baseline="central" fill="black" font-size="14" font-family="sans" text-anchor="end"><tspan x="120.60000000000001" dy="14">GPIO3</tspan></text><text x="128.70000000000002" y="-118.10000000000001" dominant-baseline="ideographic" fill="black" font-size="11" font-family="sans" text-anchor="start"><tspan x="128.70000000000002" dy="11">D1</tspan></text><text x="120.60000000000001" y="-118.39999999999999" dominant-baseline="central" fill="black" font-size="14" font-family="sans" text-anchor="end"><tspan x="120.60000000000001" dy="14">GPIO2</tspan></text><text x="128.70000000000002" y="-161.29999999999998" dominant-baseline="ideographic" fill="black" font-size="11" font-family="sans" text-anchor="start"><tspan x="128.70000000000002" dy="11">D0</tspan></text><text x="120.60000000000001" y="-161.6" dominant-baseline="central" fill="black" font-size="14" font-family="sans" text-anchor="end"><tspan x="120.60000000000001" dy="14">GPIO1</tspan></text><text x="128.70000000000002" y="-204.5" dominant-baseline="ideographic" fill="black" font-size="11" font-family="sans" text-anchor="start"><tspan x="128.70000000000002" dy="11">D5</tspan></text><text x="120.60000000000001" y="-204.79999999999998" dominant-baseline="central" fill="black" font-size="14" font-family="sans" text-anchor="end"><tspan x="120.60000000000001" dy="14">GPIO6</tspan></text><text x="128.70000000000002" y="-247.70000000000002" dominant-baseline="ideographic" fill="black" font-size="11" font-family="sans" text-anchor="start"><tspan x="128.70000000000002" dy="11">D4</tspan></text><text x="120.60000000000001" y="-248.0" dominant-baseline="central" fill="black" font-size="14" font-family="sans" text-anchor="end"><tspan x="120.60000000000001" dy="14">GPIO5</tspan></text><text x="63.0" y="3.4000000000000004" dominant-baseline="hanging" fill="black" font-size="11" font-family="sans" text-anchor="middle"><tspan x="63.0" dy="11">XIAO ESP32-S3 Sense</tspan></text><text x="329.40000000000003" y="-68.0" dominant-baseline="central" fill="black" font-size="14" font-family="sans" text-anchor="start"><tspan x="329.40000000000003" dy="14">GND</tspan></text><text x="329.40000000000003" y="-115.99999999999999" dominant-baseline="central" fill="black" font-size="14" font-family="sans" text-anchor="start"><tspan x="329.40000000000003" dy="14">VCC</tspan></text><text x="329.40000000000003" y="-163.99999999999997" dominant-baseline="central" fill="black" font-size="14" font-family="sans" text-anchor="start"><tspan x="329.40000000000003" dy="14">SDA</tspan></text><text x="329.40000000000003" y="-212.0" dominant-baseline="central" fill="black" font-size="14" font-family="sans" text-anchor="start"><tspan x="329.40000000000003" dy="14">SCL</tspan></text><text x="444.59999999999997" y="-68.0" dominant-baseline="central" fill="black" font-size="14" font-family="sans" text-anchor="end"><tspan x="444.59999999999997" dy="14">SD1</tspan></text><text x="444.59999999999997" y="-115.99999999999999" dominant-baseline="central" fill="black" font-size="14" font-family="sans" text-anchor="end"><tspan x="444.59999999999997" dy="14">SC1</tspan></text><text x="444.59999999999997" y="-163.99999999999997" dominant-baseline="central" fill="black" font-size="14" font-family="sans" text-anchor="end"><tspan x="444.59999999999997" dy="14">SD0</tspan></text><text x="444.59999999999997" y="-212.0" dominant-baseline="central" fill="black" font-size="14" font-family="sans" text-anchor="end"><tspan x="444.59999999999997" dy="14">SC0</tspan></text><text x="387.0" y="-32.6" dominant-baseline="hanging" fill="black" font-size="11" font-family="sans" text-anchor="middle"><tspan x="387.0" dy="11">TCA9548A</tspan><tspan x="387.0" dy="11">0x70</tspan></text><text x="644.4" y="-68.0" dominant-baseline="central" fill="black" font-size="14" font-family="sans" text-anchor="start"><tspan x="644.4" dy="14">GND</tspan></text><text x="644.4" y="-104.0" dominant-baseline="central" fill="black" font-size="14" font-family="sans" text-anchor="start"><tspan x="644.4" dy="14">VCC</tspan></text><text x="644.4" y="-140.0" dominant-baseline="central" fill="black" font-size="14" font-family="sans" text-anchor="start"><tspan x="644.4" dy="14">V+</tspan></text><text x="644.4" y="-176.0" dominant-baseline="central" fill="black" font-size="14" font-family="sans" text-anchor="start"><tspan x="644.4" dy="14">SDA</tspan></text><text x="644.4" y="-212.0" dominant-baseline="central" fill="black" font-size="14" font-family="sans" text-anchor="start"><tspan x="644.4" dy="14">SCL</tspan></text><text x="777.6" y="-68.0" dominant-baseline="central" fill="black" font-size="14" font-family="sans" text-anchor="end"><tspan x="777.6" dy="14">PWM 8-13</tspan></text><text x="777.6" y="-140.0" dominant-baseline="central" fill="black" font-size="14" font-family="sans" text-anchor="end"><tspan x="777.6" dy="14">PWM 6-7</tspan></text><text x="777.6" y="-212.0" dominant-baseline="central" fill="black" font-size="14" font-family="sans" text-anchor="end"><tspan x="777.6" dy="14">PWM 0-5</tspan></text><text x="711.0" y="-32.6" dominant-baseline="hanging" fill="black" font-size="11" font-family="sans" text-anchor="middle"><tspan x="711.0" dy="11">PCA9685</tspan><tspan x="711.0" dy="11">0x40 @ 200Hz</tspan></text><text x="896.4" y="274.0" dominant-baseline="central" fill="black" font-size="14" font-family="sans" text-anchor="start"><tspan x="896.4" dy="14">GND</tspan></text><text x="896.4" y="246.0" dominant-baseline="central" fill="black" font-size="14" font-family="sans" text-anchor="start"><tspan x="896.4" dy="14">VCC</tspan></text><text x="896.4" y="218.0" dominant-baseline="central" fill="black" font-size="14" font-family="sans" text-anchor="start"><tspan x="896.4" dy="14">VM</tspan></text><text x="896.4" y="189.99999999999997" dominant-baseline="central" fill="black" font-size="14" font-family="sans" text-anchor="start"><tspan x="896.4" dy="14">STBY</tspan></text><text x="896.4" y="162.0" dominant-baseline="central" fill="black" font-size="14" font-family="sans" text-anchor="start"><tspan x="896.4" dy="14">PWMB</tspan></text><text x="896.4" y="134.0" dominant-baseline="central" fill="black" font-size="14" font-family="sans" text-anchor="start"><tspan x="896.4" dy="14">BIN2</tspan></text><text x="896.4" y="105.99999999999999" dominant-baseline="central" fill="black" font-size="14" font-family="sans" text-anchor="start"><tspan x="896.4" dy="14">BIN1</tspan></text><text x="896.4" y="78.0" dominant-baseline="central" fill="black" font-size="14" font-family="sans" text-anchor="start"><tspan x="896.4" dy="14">PWMA</tspan></text><text x="896.4" y="50.0" dominant-baseline="central" fill="black" font-size="14" font-family="sans" text-anchor="start"><tspan x="896.4" dy="14">AIN2</tspan></text><text x="896.4" y="22.0" dominant-baseline="central" fill="black" font-size="14" font-family="sans" text-anchor="start"><tspan x="896.4" dy="14">AIN1</tspan></text><text x="1029.6000000000001" y="274.0" dominant-baseline="central" fill="black" font-size="14" font-family="sans" text-anchor="end"><tspan x="1029.6000000000001" dy="14">BO2</tspan></text><text x="1029.6000000000001" y="189.99999999999997" dominant-baseline="central" fill="black" font-size="14" font-family="sans" text-anchor="end"><tspan x="1029.6000000000001" dy="14">BO1</tspan></text><text x="1029.6000000000001" y="105.99999999999999" dominant-baseline="central" fill="black" font-size="14" font-family="sans" text-anchor="end"><tspan x="1029.6000000000001" dy="14">AO2</tspan></text><text x="1029.6000000000001" y="22.0" dominant-baseline="central" fill="black" font-size="14" font-family="sans" text-anchor="end"><tspan x="1029.6000000000001" dy="14">AO1</tspan></text><text x="963.0" y="309.40000000000003" dominant-baseline="hanging" fill="black" font-size="11" font-family="sans" text-anchor="middle"><tspan x="963.0" dy="11">TB6612FNG</tspan></text><text x="1179.0" y="243.39999999999998" dominant-baseline="hanging" fill="black" font-size="11" font-family="sans" text-anchor="middle"><tspan x="1179.0" dy="11">Left motor</tspan></text><text x="1179.0" y="75.39999999999999" dominant-baseline="hanging" fill="black" font-size="11" font-family="sans" text-anchor="middle"><tspan x="1179.0" dy="11">Right motor</tspan></text><text x="473.40000000000003" y="184.0" dominant-baseline="central" fill="black" font-size="14" font-family="sans" text-anchor="start"><tspan x="473.40000000000003" dy="14">GND</tspan></text><text x="473.40000000000003" y="160.00000000000003" dominant-baseline="central" fill="black" font-size="14" font-family="sans" text-anchor="start"><tspan x="473.40000000000003" dy="14">VCC</tspan></text><text x="473.40000000000003" y="136.0" dominant-baseline="central" fill="black" font-size="14" font-family="sans" text-anchor="start"><tspan x="473.40000000000003" dy="14">SDA</tspan></text><text x="473.40000000000003" y="112.0" dominant-baseline="central" fill="black" font-size="14" font-family="sans" text-anchor="start"><tspan x="473.40000000000003" dy="14">SCL</tspan></text><text x="522.0" y="219.4" dominant-baseline="hanging" fill="black" font-size="11" font-family="sans" text-anchor="middle"><tspan x="522.0" dy="11">SSD1306 OLED</tspan><tspan x="522.0" dy="11">0x3C, 128x64</tspan></text><text x="894.6" y="-136.0" dominant-baseline="central" fill="steelblue" font-size="10" font-family="sans" text-anchor="start"><tspan x="894.6" dy="10">→ Pan / Tilt SG90</tspan></text><text x="894.6" y="-208.0" dominant-baseline="central" fill="steelblue" font-size="10" font-family="sans" text-anchor="start"><tspan x="894.6" dy="10">→ 2× RGB LED</tspan></text><text x="149.4" y="140.79999999999998" dominant-baseline="central" fill="black" font-size="14" font-family="sans" text-anchor="start"><tspan x="149.4" dy="14">GND</tspan></text><text x="149.4" y="116.80000000000001" dominant-baseline="central" fill="black" font-size="14" font-family="sans" text-anchor="start"><tspan x="149.4" dy="14">ECHO</tspan></text><text x="149.4" y="92.80000000000001" dominant-baseline="central" fill="black" font-size="14" font-family="sans" text-anchor="start"><tspan x="149.4" dy="14">TRIG</tspan></text><text x="149.4" y="68.8" dominant-baseline="central" fill="black" font-size="14" font-family="sans" text-anchor="start"><tspan x="149.4" dy="14">VCC</tspan></text><text x="198.0" y="176.2" dominant-baseline="hanging" fill="black" font-size="11" font-family="sans" text-anchor="middle"><tspan x="198.0" dy="11">HC-SR04P</tspan><tspan x="198.0" dy="11">ultrasonic</tspan></text><text x="198.0" y="-128.0" dominant-baseline="ideographic" fill="black" font-size="11" font-family="sans" text-anchor="middle"><tspan x="198.0" dy="11">100 Ω</tspan></text><text x="249.75" y="-148.70000000000002" dominant-baseline="ideographic" fill="black" font-size="11" font-family="sans" text-anchor="middle"><tspan x="249.75" dy="11">Piezo</tspan></text><text x="-36.0" y="-155.0" dominant-baseline="ideographic" fill="black" font-size="11" font-family="sans" text-anchor="middle"><tspan x="-36.0" dy="11">+3V3</tspan></text><text x="-36.0" y="-263.0" dominant-baseline="ideographic" fill="black" font-size="11" font-family="sans" text-anchor="middle"><tspan x="-36.0" dy="11">+5V</tspan></text><text x="288.0" y="-131.0" dominant-baseline="ideographic" fill="black" font-size="11" font-family="sans" text-anchor="middle"><tspan x="288.0" dy="11">+3V3</tspan></text><text x="567.0" y="-119.0" dominant-baseline="ideographic" fill="black" font-size="11" font-family="sans" text-anchor="middle"><tspan x="567.0" dy="11">+3V3</tspan></text><text x="567.0" y="-155.0" dominant-baseline="ideographic" fill="black" font-size="11" font-family="sans" text-anchor="middle"><tspan x="567.0" dy="11">+5V</tspan></text><text x="855.0" y="231.0" dominant-baseline="ideographic" fill="black" font-size="11" font-family="sans" text-anchor="middle"><tspan x="855.0" dy="11">+3V3</tspan></text><text x="855.0" y="203.0" dominant-baseline="ideographic" fill="black" font-size="11" font-family="sans" text-anchor="middle"><tspan x="855.0" dy="11">+5V</tspan></text><text x="414.0" y="145.00000000000003" dominant-baseline="ideographic" fill="black" font-size="11" font-family="sans" text-anchor="middle"><tspan x="414.0" dy="11">+3V3</tspan></text><text x="90.0" y="53.8" dominant-baseline="ideographic" fill="black" font-size="11" font-family="sans" text-anchor="middle"><tspan x="90.0" dy="11">+3V3</tspan></text></svg>