<svg xmlns="http://www.w3.org/2000/svg" xmlns:xlink="http://www.w3.org/1999/xlink" xml:lang="en" height="650.1999999999999pt" width="1273.301pt" viewBox="-53.701 -267.6 1273.301 650.1999999999999"><circle cx="1179" cy="222" r="18" style="stroke:black;fill:none;stroke-width:2.0;stroke-dasharray:-;" /><circle cx="1179" cy="54" r="18" style="stroke:black;fill:none;stroke-width:2.0;stroke-dasharray:-;" /><polygon points="243,-113.4 243,-77.4 252,-77.4 252,-113.4 " style="stroke:black;fill:none;stroke-width:2.0;stroke-dasharray:-;stroke-linecap:round;stroke-linejoin:round;" /><polyline points="252,-113.4 265.5,-126.9 265.5,-63.9 252,-77.4 " style="stroke:black;fill:none;stroke-width:2.0;stroke-dasharray:-;stroke-linecap:round;stroke-linejoin:round;" /><path d="M 0.0,-0.0 L 126,-0 L 126,-252 L 0,-252 L 0,-0" style="stroke:black;fill:none;stroke-width:2.0;stroke-dasharray:-;stroke-linecap:round;stroke-linejoin:round;" /><path d="M 0.0,-18.0 L -18,-18" style="stroke:black;fill:none;stroke-width:2.0;stroke-dasharray:-;stroke-linecap:round;stroke-linejoin:round;" /><path d="M 0.0,-126.0 L -18,-126" style="stroke:black;fill:none;stroke-width:2.0;stroke-dasharray:-;stroke-linecap:round;stroke-linejoin:round;" /><path d="M 0.0,-234.0 L -18,-234" style="stroke:black;fill:none;stroke-width:2.0;stroke-dasharray:-;stroke-linecap:round;stroke-linejoin:round;" /><path d="M 126.0,-18.0 L 144,-18" style="stroke:black;fill:none;stroke-width:2.0;stroke-dasharray:-;stroke-linecap:round;stroke-linejoin:round;" /><path d="M 126.0,-61.199999999999996 L 144,-61.2" style="stroke:black;fill:none;stroke-width:2.0;stroke-dasharray:-;stroke-linecap:round;stroke-linejoin:round;" /><path d="M 126.0,-104.39999999999999 L 144,-104.4" style="stroke:black;fill:none;stroke-width:2.0;stroke-dasharray:-;stroke-linecap:round;stroke-linejoin:round;" /><path d="M 126.0,-147.6 L 144,-147.6" style="stroke:black;fill:none;stroke-width:2.0;stroke-dasharray:-;stroke-linecap:round;stroke-linejoin:round;" /><path d="M 126.0,-190.79999999999998 L 144,-190.8" style="stroke:black;fill:none;stroke-width:2.0;stroke-dasharray:-;stroke-linecap:round;stroke-linejoin:round;" /><path d="M 126.0,-234.0 L 144,-234" style="stroke:black;fill:none;stroke-width:2.0;stroke-dasharray:-;stroke-linecap:round;stroke-linejoin:round;" /><path d="M 324.0,-36.0 L 450,-36 L 450,-216 L 324,-216 L 324,-36" style="stroke:black;fill:none;stroke-width:2.0;stroke-dasharray:-;stroke-linecap:round;stroke-linejoin:round;" /><path d="M 324.0,-54.0 L 306,-54" style="stroke:black;fill:none;stroke-width:2.0;stroke-dasharray:-;stroke-linecap:round;stroke-linejoin:round;" /><path d="M 324.0,-101.99999999999999 L 306,-102" style="stroke:black;fill:none;stroke-width:2.0;stroke-dasharray:-;stroke-linecap:round;stroke-linejoin:round;" /><path d="M 324.0,-149.99999999999997 L 306,-150" style="stroke:black;fill:none;stroke-width:2.0;stroke-dasharray:-;stroke-linecap:round;stroke-linejoin:round;" /><path d="M 324.0,-198.0 L 306,-198" style="stroke:black;fill:none;stroke-width:2.0;stroke-dasharray:-;stroke-linecap:round;stroke-linejoin:round;" /><path d="M 450.0,-54.0 L 468,-54" style="stroke:black;fill:none;stroke-width:2.0;stroke-dasharray:-;stroke-linecap:round;stroke-linejoin:round;" /><path d="M 450.0,-101.99999999999999 L 468,-102" style="stroke:black;fill:none;stroke-width:2.0;stroke-dasharray:-;stroke-linecap:round;stroke-linejoin:round;" /><path d="M 450.0,-149.99999999999997 L 468,-150" style="stroke:black;fill:none;stroke-width:2.0;stroke-dasharray:-;stroke-linecap:round;stroke-linejoin:round;" /><path d="M 450.0,-198.0 L 468,-198" style="stroke:black;fill:none;stroke-width:2.0;stroke-dasharray:-;stroke-linecap:round;stroke-linejoin:round;" /><path d="M 639.0,-36.0 L 783,-36 L 783,-216 L 639,-216 L 639,-36" style="stroke:black;fill:none;stroke-width:2.0;stroke-dasharray:-;stroke-linecap:round;stroke-linejoin:round;" /><path d="M 639.0,-54.0 L 621,-54" style="stroke:black;fill:none;stroke-width:2.0;stroke-dasharray:-;stroke-linecap:round;stroke-linejoin:round;" /><path d="M 639.0,-90.0 L 621,-90" style="stroke:black;fill:none;stroke-width:2.0;stroke-dasharray:-;stroke-linecap:round;stroke-linejoin:round;" /><path d="M 639.0,-126.0 L 621,-126" style="stroke:black;fill:none;stroke-width:2.0;stroke-dasharray:-;stroke-linecap:round;stroke-linejoin:round;" /><path d="M 639.0,-162.0 L 621,-162" style="stroke:black;fill:none;stroke-width:2.0;stroke-dasharray:-;stroke-linecap:round;stroke-linejoin:round;" /><path d="M 639.0,-198.0 L 621,-198" style="stroke:black;fill:none;stroke-width:2.0;stroke-dasharray:-;stroke-linecap:round;stroke-linejoin:round;" /><path d="M 783.0,-54.0 L 801,-54" style="stroke:black;fill:none;stroke-width:2.0;stroke-dasharray:-;stroke-linecap:round;stroke-linejoin:round;" /><path d="M 783.0,-126.0 L 801,-126" style="stroke:black;fill:none;stroke-width:2.0;stroke-dasharray:-;stroke-linecap:round;stroke-linejoin:round;" /><path d="M 783.0,-198.0 L 801,-198" style="stroke:black;fill:none;stroke-width:2.0;stroke-dasharray:-;stroke-linecap:round;stroke-linejoin:round;" /><path d="M 891.0,306.0 L 1035,306 L 1035,18 L 891,18 L 891,306" style="stroke:black;fill:none;stroke-width:2.0;stroke-dasharray:-;stroke-linecap:round;stroke-linejoin:round;" /><path d="M 891.0,288.0 L 873,288" style="stroke:black;fill:none;stroke-width:2.0;stroke-dasharray:-;stroke-linecap:round;stroke-linejoin:round;" /><path d="M 891.0,260.0 L 873,260" style="stroke:black;fill:none;stroke-width:2.0;stroke-dasharray:-;stroke-linecap:round;stroke-linejoin:round;" /><path d="M 891.0,232.0 L 873,232" style="stroke:black;fill:none;stroke-width:2.0;stroke-dasharray:-;stroke-linecap:round;stroke-linejoin:round;" /><path d="M 891.0,203.99999999999997 L 873,204" style="stroke:black;fill:none;stroke-width:2.0;stroke-dasharray:-;stroke-linecap:round;stroke-linejoin:round;" /><path d="M 891.0,176.0 L 873,176" style="stroke:black;fill:none;stroke-width:2.0;stroke-dasharray:-;stroke-linecap:round;stroke-linejoin:round;" /><path d="M 891.0,148.0 L 873,148" style="stroke:black;fill:none;stroke-width:2.0;stroke-dasharray:-;stroke-linecap:round;stroke-linejoin:round;" /><path d="M 891.0,119.99999999999999 L 873,120" style="stroke:black;fill:none;stroke-width:2.0;stroke-dasharray:-;stroke-linecap:round;stroke-linejoin:round;" /><path d="M 891.0,92.0 L 873,92" style="stroke:black;fill:none;stroke-width:2.0;stroke-dasharray:-;stroke-linecap:round;stroke-linejoin:round;" /><path d="M 891.0,64.0 L 873,64" style="stroke:black;fill:none;stroke-width:2.0;stroke-dasharray:-;stroke-linecap:round;stroke-linejoin:round;" /><path d="M 891.0,36.0 L 873,36" style="stroke:black;fill:none;stroke-width:2.0;stroke-dasharray:-;stroke-linecap:round;stroke-linejoin:round;" /><path d="M 1035.0,288.0 L 1053,288" style="stroke:black;fill:none;stroke-width:2.0;stroke-dasharray:-;stroke-linecap:round;stroke-linejoin:round;" /><path d="M 1035.0,203.99999999999997 L 1053,204" style="stroke:black;fill:none;stroke-width:2.0;stroke-dasharray:-;stroke-linecap:round;stroke-linejoin:round;" /><path d="M 1035.0,119.99999999999999 L 1053,120" style="stroke:black;fill:none;stroke-width:2.0;stroke-dasharray:-;stroke-linecap:round;stroke-linejoin:round;" /><path d="M 1035.0,36.0 L 1053,36" style="stroke:black;fill:none;stroke-width:2.0;stroke-dasharray:-;stroke-linecap:round;stroke-linejoin:round;" /><path d="M 144.0,-190.79999999999998 L 306,-150" style="stroke:steelblue;fill:none;stroke-width:2.0;stroke-dasharray:-;stroke-linecap:round;stroke-linejoin:round;" /><path d="M 144.0,-234.0 L 306,-198" style="stroke:steelblue;fill:none;stroke-width:2.0;stroke-dasharray:-;stroke-linecap:round;stroke-linejoin:round;" /><path d="M 468.0,-149.99999999999997 L 621,-162" style="stroke:steelblue;fill:none;stroke-width:2.0;stroke-dasharray:-;stroke-linecap:round;stroke-linejoin:round;" /><path d="M 468.0,-198.0 L 621,-198" style="stroke:steelblue;fill:none;stroke-width:2.0;stroke-dasharray:-;stroke-linecap:round;stroke-linejoin:round;" /><path d="M 801.0,-54.0 L 873,-54 L 873,92" style="stroke:steelblue;fill:none;stroke-width:2.0;stroke-dasharray:-;stroke-linecap:round;stroke-linejoin:round;" /><path d="M 1143.0,221.99999999999997 L 1153.08,222 L 1153.08,222 M 1204.92,222 L 1204.92,222 L 1215,222" style="stroke:black;fill:none;stroke-width:2.0;stroke-dasharray:-;stroke-linecap:round;stroke-linejoin:round;" /><path d="M 1161.0,229.91999999999996 L 1153.08,229.92 L 1153.08,214.08 L 1161,214.08" style="stroke:black;fill:none;stroke-width:2.0;stroke-dasharray:-;stroke-linecap:round;stroke-linejoin:round;" /><path d="M 1197.0,229.91999999999996 L 1204.92,229.92 L 1204.92,214.08 L 1197,214.08" style="stroke:black;fill:none;stroke-width:2.0;stroke-dasharray:-;stroke-linecap:round;stroke-linejoin:round;" /><path d="M 1053.0,203.99999999999997 L 1143,204 L 1143,222" style="stroke:black;fill:none;stroke-width:2.0;stroke-dasharray:-;stroke-linecap:round;stroke-linejoin:round;" /><path d="M 1053.0,288.0 L 1053,222 L 1215,222" style="stroke:black;fill:none;stroke-width:2.0;stroke-dasharray:-;stroke-linecap:round;stroke-linejoin:round;" /><path d="M 1143.0,54.0 L 1153.08,54 L 1153.08,54 M 1204.92,54 L 1204.92,54 L 1215,54" style="stroke:black;fill:none;stroke-width:2.0;stroke-dasharray:-;stroke-linecap:round;stroke-linejoin:round;" /><path d="M 1161.0,61.92 L 1153.08,61.92 L 1153.08,46.08 L 1161,46.08" style="stroke:black;fill:none;stroke-width:2.0;stroke-dasharray:-;stroke-linecap:round;stroke-linejoin:round;" /><path d="M 1197.0,61.92 L 1204.92,61.92 L 1204.92,46.08 L 1197,46.08" style="stroke:black;fill:none;stroke-width:2.0;stroke-dasharray:-;stroke-linecap:round;stroke-linejoin:round;" /><path d="M 1053.0,36.0 L 1143,36 L 1143,54" style="stroke:black;fill:none;stroke-width:2.0;stroke-dasharray:-;stroke-linecap:round;stroke-linejoin:round;" /><path d="M 1053.0,119.99999999999999 L 1053,54 L 1215,54" style="stroke:black;fill:none;stroke-width:2.0;stroke-dasharray:-;stroke-linecap:round;stroke-linejoin:round;" /><path d="M 144.0,-147.6 L 144,378 L 819,378" style="stroke:steelblue;fill:none;stroke-width:2.0;stroke-dasharray:-;stroke-linecap:round;stroke-linejoin:round;" /><path d="M 819.0,378.0 L 873,378 L 873,204" style="stroke:steelblue;fill:none;stroke-width:2.0;stroke-dasharray:-;stroke-linecap:round;stroke-linejoin:round;" /><path d="M 468.0,216.0 L 594,216 L 594,108 L 468,108 L 468,216" style="stroke:black;fill:none;stroke-width:2.0;stroke-dasharray:-;stroke-linecap:round;stroke-linejoin:round;" /><path d="M 468.0,198.0 L 450,198" style="stroke:black;fill:none;stroke-width:2.0;stroke-dasharray:-;stroke-linecap:round;stroke-linejoin:round;" /><path d="M 468.0,174.00000000000003 L 450,174" style="stroke:black;fill:none;stroke-width:2.0;stroke-dasharray:-;stroke-linecap:round;stroke-linejoin:round;" /><path d="M 468.0,150.0 L 450,150" style="stroke:black;fill:none;stroke-width:2.0;stroke-dasharray:-;stroke-linecap:round;stroke-linejoin:round;" /><path d="M 468.0,126.0 L 450,126" style="stroke:black;fill:none;stroke-width:2.0;stroke-dasharray:-;stroke-linecap:round;stroke-linejoin:round;" /><path d="M 468.0,-54.0 L 450,-54 L 450,150" style="stroke:steelblue;fill:none;stroke-width:2.0;stroke-dasharray:-;stroke-linecap:round;stroke-linejoin:round;" /><path d="M 468.0,-101.99999999999999 L 450,-102 L 450,126" style="stroke:steelblue;fill:none;stroke-width:2.0;stroke-dasharray:-;stroke-linecap:round;stroke-linejoin:round;" /><path d="M 801.0,-126.0 L 846,-126 L 882,-126" style="stroke:steelblue;fill:none;stroke-width:2.0;stroke-dasharray:-;stroke-linecap:round;stroke-linejoin:round;" /><path d="M 889 -126 L 882 -123.3 L 882 -128.7 Z" style="stroke:steelblue;fill:steelblue;stroke-linecap:butt;stroke-linejoin:miter;" /><path d="M 801.0,-198.0 L 846,-198 L 882,-198" style="stroke:steelblue;fill:none;stroke-width:2.0;stroke-dasharray:-;stroke-linecap:round;stroke-linejoin:round;" /><path d="M 889 -198 L 882 -195.3 L 882 -200.7 Z" style="stroke:steelblue;fill:steelblue;stroke-linecap:butt;stroke-linejoin:miter;" /><path d="M 144.0,172.79999999999998 L 270,172.8 L 270,64.8 L 144,64.8 L 144,172.8" style="stroke:black;fill:none;stroke-width:2.0;stroke-dasharray:-;stroke-linecap:round;stroke-linejoin:round;" /><path d="M 144.0,154.79999999999998 L 126,154.8" style="stroke:black;fill:none;stroke-width:2.0;stroke-dasharray:-;stroke-linecap:round;stroke-linejoin:round;" /><path d="M 144.0,130.8 L 126,130.8" style="stroke:black;fill:none;stroke-width:2.0;stroke-dasharray:-;stroke-linecap:round;stroke-linejoin:round;" /><path d="M 144.0,106.80000000000001 L 126,106.8" style="stroke:black;fill:none;stroke-width:2.0;stroke-dasharray:-;stroke-linecap:round;stroke-linejoin:round;" /><path d="M 144.0,82.8 L 126,82.8" style="stroke:black;fill:none;stroke-width:2.0;stroke-dasharray:-;stroke-linecap:round;stroke-linejoin:round;" /><path d="M 144.0,-61.199999999999996 L 144,106.8 L 126,106.8" style="stroke:steelblue;fill:none;stroke-width:2.0;stroke-dasharray:-;stroke-linecap:round;stroke-linejoin:round;" /><path d="M 144.0,-18.0 L 144,130.8 L 126,130.8" style="stroke:steelblue;fill:none;stroke-width:2.0;stroke-dasharray:-;stroke-linecap:round;stroke-linejoin:round;" /><path d="M 144.0,-104.39999999999999 L 153,-104.4 L 162,-104.4" style="stroke:black;fill:none;stroke-width:2.0;stroke-dasharray:-;stroke-linecap:round;stroke-linejoin:round;" /><path d="M 162.0,-104.39999999999999 L 180,-104.4 L 183,-113.4 L 189,-95.4 L 195,-113.4 L 201,-95.4 L 207,-113.4 L 213,-95.4 L 216,-104.4 L 234,-104.4" style="stroke:black;fill:none;stroke-width:2.0;stroke-dasharray:-;stroke-linecap:round;stroke-linejoin:round;" /><path d="M 234.0,-104.39999999999999 L 243,-104.4" style="stroke:black;fill:none;stroke-width:2.0;stroke-dasharray:-;stroke-linecap:round;stroke-linejoin:round;" /><path d="M 234.0,-86.39999999999999 L 243,-86.4" style="stroke:black;fill:none;stroke-width:2.0;stroke-dasharray:-;stroke-linecap:round;stroke-linejoin:round;" /><path d="M 234.0,-86.39999999999999 L 234,-77.4 L 234,-68.4" style="stroke:black;fill:none;stroke-width:2.0;stroke-dasharray:-;stroke-linecap:round;stroke-linejoin:round;" /><path d="M 234.0,-68.39999999999999 L 234,-54 L 225,-54 L 243,-54 M 227.7,-49.68 L 240.3,-49.68 M 232.2,-45.36 L 235.8,-45.36" style="stroke:black;fill:none;stroke-width:2.0;stroke-dasharray:-;stroke-linecap:round;stroke-linejoin:round;" /><path d="M -18.0,-126.0 L -27,-126 L -36,-126" style="stroke:black;fill:none;stroke-width:2.0;stroke-dasharray:-;stroke-linecap:round;stroke-linejoin:round;" /><path d="M -36.0,-126.0 L -36,-140.4" style="stroke:black;fill:none;stroke-width:2.0;stroke-dasharray:-;stroke-linecap:round;stroke-linejoin:round;" /><path d="M -36.0,-140.4 L -42.75,-140.4" style="stroke:black;fill:none;stroke-width:2.0;stroke-dasharray:-;stroke-linecap:round;stroke-linejoin:round;" /><path d="M -36.0,-140.4 L -29.25,-140.4" style="stroke:black;fill:none;stroke-width:2.0;stroke-dasharray:-;stroke-linecap:round;stroke-linejoin:round;" /><path d="M -18.0,-18.0 L -27,-18 L -36,-18" style="stroke:black;fill:none;stroke-width:2.0;stroke-dasharray:-;stroke-linecap:round;stroke-linejoin:round;" /><path d="M -36.0,-18.000000000000004 L -36,-3.6 L -45,-3.6 L -27,-3.6 M -42.3,0.72 L -29.7,0.72 M -37.8,5.04 L -34.2,5.04" style="stroke:black;fill:none;stroke-width:2.0;stroke-dasharray:-;stroke-linecap:round;stroke-linejoin:round;" /><path d="M -18.0,-234.0 L -27,-234 L -36,-234" style="stroke:black;fill:none;stroke-width:2.0;stroke-dasharray:-;stroke-linecap:round;stroke-linejoin:round;" /><path d="M -36.0,-234.0 L -36,-248.4" style="stroke:black;fill:none;stroke-width:2.0;stroke-dasharray:-;stroke-linecap:round;stroke-linejoin:round;" /><path d="M -36.0,-248.4 L -42.75,-248.4" style="stroke:black;fill:none;stroke-width:2.0;stroke-dasharray:-;stroke-linecap:round;stroke-linejoin:round;" /><path d="M -36.0,-248.4 L -29.25,-248.4" style="stroke:black;fill:none;stroke-width:2.0;stroke-dasharray:-;stroke-linecap:round;stroke-linejoin:round;" /><path d="M 306.0,-101.99999999999999 L 297,-102 L 288,-102" style="stroke:black;fill:none;stroke-width:2.0;stroke-dasharray:-;stroke-linecap:round;stroke-linejoin:round;" /><path d="M 288.0,-101.99999999999999 L 288,-116.4" style="stroke:black;fill:none;stroke-width:2.0;stroke-dasharray:-;stroke-linecap:round;stroke-linejoin:round;" /><path d="M 288.0,-116.39999999999999 L 281.25,-116.4" style="stroke:black;fill:none;stroke-width:2.0;stroke-dasharray:-;stroke-linecap:round;stroke-linejoin:round;" /><path d="M 288.0,-116.39999999999999 L 294.75,-116.4" style="stroke:black;fill:none;stroke-width:2.0;stroke-dasharray:-;stroke-linecap:round;stroke-linejoin:round;" /><path d="M 306.0,-54.0 L 297,-54 L 288,-54" style="stroke:black;fill:none;stroke-width:2.0;stroke-dasharray:-;stroke-linecap:round;stroke-linejoin:round;" /><path d="M 288.0,-54.0 L 288,-39.6 L 279,-39.6 L 297,-39.6 M 281.7,-35.28 L 294.3,-35.28 M 286.2,-30.96 L 289.8,-30.96" style="stroke:black;fill:none;stroke-width:2.0;stroke-dasharray:-;stroke-linecap:round;stroke-linejoin:round;" /><path d="M 621.0,-90.0 L 594,-90 L 567,-90" style="stroke:black;fill:none;stroke-width:2.0;stroke-dasharray:-;stroke-linecap:round;stroke-linejoin:round;" /><path d="M 567.0,-90.0 L 567,-104.4" style="stroke:black;fill:none;stroke-width:2.0;stroke-dasharray:-;stroke-linecap:round;stroke-linejoin:round;" /><path d="M 567.0,-104.39999999999999 L 560.25,-104.4" style="stroke:black;fill:none;stroke-width:2.0;stroke-dasharray:-;stroke-linecap:round;stroke-linejoin:round;" /><path d="M 567.0,-104.39999999999999 L 573.75,-104.4" style="stroke:black;fill:none;stroke-width:2.0;stroke-dasharray:-;stroke-linecap:round;stroke-linejoin:round;" /><path d="M 621.0,-126.0 L 594,-126 L 567,-126" style="stroke:black;fill:none;stroke-width:2.0;stroke-dasharray:-;stroke-linecap:round;stroke-linejoin:round;" /><path d="M 567.0,-126.0 L 567,-140.4" style="stroke:black;fill:none;stroke-width:2.0;stroke-dasharray:-;stroke-linecap:round;stroke-linejoin:round;" /><path d="M 567.0,-140.4 L 560.25,-140.4" style="stroke:black;fill:none;stroke-width:2.0;stroke-dasharray:-;stroke-linecap:round;stroke-linejoin:round;" /><path d="M 567.0,-140.4 L 573.75,-140.4" style="stroke:black;fill:none;stroke-width:2.0;stroke-dasharray:-;stroke-linecap:round;stroke-linejoin:round;" /><path d="M 621.0,-54.0 L 594,-54 L 567,-54" style="stroke:black;fill:none;stroke-width:2.0;stroke-dasharray:-;stroke-linecap:round;stroke-linejoin:round;" /><path d="M 567.0,-54.00000000000001 L 567,-39.6 L 558,-39.6 L 576,-39.6 M 560.7,-35.28 L 573.3,-35.28 M 565.2,-30.96 L 568.8,-30.96" style="stroke:black;fill:none;stroke-width:2.0;stroke-dasharray:-;stroke-linecap:round;stroke-linejoin:round;" /><path d="M 873.0,260.0 L 864,260 L 855,260" style="stroke:black;fill:none;stroke-width:2.0;stroke-dasharray:-;stroke-linecap:round;stroke-linejoin:round;" /><path d="M 855.0,260.0 L 855,245.6" style="stroke:black;fill:none;stroke-width:2.0;stroke-dasharray:-;stroke-linecap:round;stroke-linejoin:round;" /><path d="M 855.0,245.6 L 848.25,245.6" style="stroke:black;fill:none;stroke-width:2.0;stroke-dasharray:-;stroke-linecap:round;stroke-linejoin:round;" /><path d="M 855.0,245.6 L 861.75,245.6" style="stroke:black;fill:none;stroke-width:2.0;stroke-dasharray:-;stroke-linecap:round;stroke-linejoin:round;" /><path d="M 873.0,232.0 L 864,232 L 855,232" style="stroke:black;fill:none;stroke-width:2.0;stroke-dasharray:-;stroke-linecap:round;stroke-linejoin:round;" /><path d="M 855.0,232.0 L 855,217.6" style="stroke:black;fill:none;stroke-width:2.0;stroke-dasharray:-;stroke-linecap:round;stroke-linejoin:round;" /><path d="M 855.0,217.6 L 848.25,217.6" style="stroke:black;fill:none;stroke-width:2.0;stroke-dasharray:-;stroke-linecap:round;stroke-linejoin:round;" /><path d="M 855.0,217.6 L 861.75,217.6" style="stroke:black;fill:none;stroke-width:2.0;stroke-dasharray:-;stroke-linecap:round;stroke-linejoin:round;" /><path d="M 873.0,288.0 L 864,288 L 855,288" style="stroke:black;fill:none;stroke-width:2.0;stroke-dasharray:-;stroke-linecap:round;stroke-linejoin:round;" /><path d="M 855.0,288.0 L 855,302.4 L 846,302.4 L 864,302.4 M 848.7,306.72 L 861.3,306.72 M 853.2,311.04 L 856.8,311.04" style="stroke:black;fill:none;stroke-width:2.0;stroke-dasharray:-;stroke-linecap:round;stroke-linejoin:round;" /><path d="M 450.0,174.00000000000003 L 432,174 L 414,174" style="stroke:black;fill:none;stroke-width:2.0;stroke-dasharray:-;stroke-linecap:round;stroke-linejoin:round;" /><path d="M 414.0,174.00000000000003 L 414,159.6" style="stroke:black;fill:none;stroke-width:2.0;stroke-dasharray:-;stroke-linecap:round;stroke-linejoin:round;" /><path d="M 414.0,159.60000000000002 L 407.25,159.6" style="stroke:black;fill:none;stroke-width:2.0;stroke-dasharray:-;stroke-linecap:round;stroke-linejoin:round;" /><path d="M 414.0,159.60000000000002 L 420.75,159.6" style="stroke:black;fill:none;stroke-width:2.0;stroke-dasharray:-;stroke-linecap:round;stroke-linejoin:round;" /><path d="M 450.0,198.0 L 432,198 L 414,198" style="stroke:black;fill:none;stroke-width:2.0;stroke-dasharray:-;stroke-linecap:round;stroke-linejoin:round;" /><path d="M 414.0,198.0 L 414,212.4 L 405,212.4 L 423,212.4 M 407.7,216.72 L 420.3,216.72 M 412.2,221.04 L 415.8,221.04" style="stroke:black;fill:none;stroke-width:2.0;stroke-dasharray:-;stroke-linecap:round;stroke-linejoin:round;" /><path d="M 126.0,82.8 L 108,82.8 L 90,82.8" style="stroke:black;fill:none;stroke-width:2.0;stroke-dasharray:-;stroke-linecap:round;stroke-linejoin:round;" /><path d="M 90.0,82.8 L 90,68.4" style="stroke:black;fill:none;stroke-width:2.0;stroke-dasharray:-;stroke-linecap:round;stroke-linejoin:round;" /><path d="M 90.0,68.39999999999999 L 83.25,68.4" style="stroke:black;fill:none;stroke-width:2.0;stroke-dasharray:-;stroke-linecap:round;stroke-linejoin:round;" /><path d="M 90.0,68.39999999999999 L 96.75,68.4" style="stroke:black;fill:none;stroke-width:2.0;stroke-dasharray:-;stroke-linecap:round;stroke-linejoin:round;" /><path d="M 126.0,154.79999999999998 L 108,154.8 L 90,154.8" style="stroke:black;fill:none;stroke-width:2.0;stroke-dasharray:-;stroke-linecap:round;stroke-linejoin:round;" /><path d="M 90.0,154.79999999999998 L 90,169.2 L 81,169.2 L 99,169.2 M 83.7,173.52 L 96.3,173.52 M 88.2,177.84 L 91.8,177.84" style="stroke:black;fill:none;stroke-width:2.0;stroke-dasharray:-;stroke-linecap:round;stroke-linejoin:round;" /><text x="5.3999999999999995" y="-32.0" dominant-baseline="central" fill="black" font-size="14" font-family="sans" text-anchor="start"><tspan x="5.3999999999999995" dy="14">GND</tspan></text><text x="5.3999999999999995" y="-140.0" dominant-baseline="central" fill="black" font-size="14" font-family="sans" text-anchor="start"><tspan x="5.3999999999999995" dy="14">3V3</tspan></text><text x="5.3999999999999995" y="-248.0" dominant-baseline="central" fill="black" font-size="14" font-family="sans" text-anchor="start"><tspan x="5.3999999999999995" dy="14">5V</tspan></text><text x="128.70000000000002" y="-31.7" dominant-baseline="ideographic" fill="black" font-size="11" font-family="sans" text-anchor="start"><tspan x="128.70000000000002" dy="11">D3</tspan></text><text x="120.60000000000001" y="-32.0" dominant-baseline="central" fill="black" font-size="14" font-family="sans" text-anchor="end"><tspan x="120.60000000000001" dy="14">GPIO4</tspan></text><text x="128.70000000000002" y="-74.9" dominant-baseline="ideographic" fill="black" font-size="11" font-family="sans" text-anchor="start"><tspan x="128.70000000000002" dy="11">D2</tspan></text><text x="120.60000000000001" y="-75.19999999999999" dominant-baseline="central" fill="black" font-size="14" font-family="sans" text-anchor="end"><tspan x="120.60000000000001" dy="14">GPIO3</tspan></text><text x="128.70000000000002" y="-118.10000000000001" dominant-baseline="ideographic" fill="black" font-size="11" font-family="sans" text-anchor="start"><tspan x="128.70000000000002" dy="11">D1</tspan></text><text x="120.60000000000001" y="-118.39999999999999" dominant-baseline="central" fill="black" font-size="14" font-family="sans" text-anchor="end"><tspan x="120.60000000000001" dy="14">GPIO2</tspan></text><text x="128.70000000000002" y="-161.29999999999998" dominant-baseline="ideographic" fill="black" font-size="11" font-family="sans" text-anchor="start"><tspan x="128.70000000000002" dy="11">D0</tspan></text><text x="120.60000000000001" y="-161.6" dominant-baseline="central" fill="black" font-size="14" font-family="sans" text-anchor="end"><tspan x="120.60000000000001" dy="14">GPIO1</tspan></text><text x="128.70000000000002" y="-204.5" dominant-baseline="ideographic" fill="black" font-size="11" font-family="sans" text-anchor="start"><tspan x="128.70000000000002" dy="11">D4</tspan></text><text x="120.60000000000001" y="-204.79999999999998" dominant-baseline="central" fill="black" font-size="14" font-family="sans" text-anchor="end"><tspan x="120.60000000000001" dy="14">GPIO5</tspan></text><text x="128.70000000000002" y="-247.70000000000002" dominant-baseline="ideographic" fill="black" font-size="11" font-family="sans" text-anchor="start"><tspan x="128.70000000000002" dy="11">D5</tspan></text><text x="120.60000000000001" y="-248.0" dominant-baseline="central" fill="black" font-size="14" font-family="sans" text-anchor="end"><tspan x="120.60000000000001" dy="14">GPIO6</tspan></text><text x="63.0" y="3.4000000000000004" dominant-baseline="hanging" fill="black" font-size="11" font-family="sans" text-anchor="middle"><tspan x="63.0" dy="11">XIAO ESP32-S3 Sense</tspan></text><text x="329.40000000000003" y="-68.0" dominant-baseline="central" fill="black" font-size="14" font-family="sans" text-anchor="start"><tspan x="329.40000000000003" dy="14">GND</tspan></text><text x="329.40000000000003" y="-115.99999999999999" dominant-baseline="central" fill="black" font-size="14" font-family="sans" text-anchor="start"><tspan x="329.40000000000003" dy="14">VCC</tspan></text><text x="329.40000000000003" y="-163.99999999999997" dominant-baseline="central" fill="black" font-size="14" font-family="sans" text-anchor="start"><tspan x="329.40000000000003" dy="14">SDA</tspan></text><text x="329.40000000000003" y="-212.0" dominant-baseline="central" fill="black" font-size="14" font-family="sans" text-anchor="start"><tspan x="329.40000000000003" dy="14">SCL</tspan></text><text x="444.59999999999997" y="-68.0" dominant-baseline="central" fill="black" font-size="14" font-family="sans" text-anchor="end"><tspan x="444.59999999999997" dy="14">SD1</tspan></text><text x="444.59999999999997" y="-115.99999999999999" dominant-baseline="central" fill="black" font-size="14" font-family="sans" text-anchor="end"><tspan x="444.59999999999997" dy="14">SC1</tspan></text><text x="444.59999999999997" y="-163.99999999999997" dominant-baseline="central" fill="black" font-size="14" font-family="sans" text-anchor="end"><tspan x="444.59999999999997" dy="14">SD0</tspan></text><text x="444.59999999999997" y="-212.0" dominant-baseline="central" fill="black" font-size="14" font-family="sans" text-anchor="end"><tspan x="444.59999999999997" dy="14">SC0</tspan></text><text x="387.0" y="-32.6" dominant-baseline="hanging" fill="black" font-size="11" font-family="sans" text-anchor="middle"><tspan x="387.0" dy="11">TCA9548A</tspan><tspan x="387.0" dy="11">0x70</tspan></text><text x="644.4" y="-68.0" dominant-baseline="central" fill="black" font-size="14" font-family="sans" text-anchor="start"><tspan x="644.4" dy="14">GND</tspan></text><text x="644.4" y="-104.0" dominant-baseline="central" fill="black" font-size="14" font-family="sans" text-anchor="start"><tspan x="644.4" dy="14">VCC</tspan></text><text x="644.4" y="-140.0" dominant-baseline="central" fill="black" font-size="14" font-family="sans" text-anchor="start"><tspan x="644.4" dy="14">V+</tspan></text><text x="644.4" y="-176.0" dominant-baseline="central" fill="black" font-size="14" font-family="sans" text-anchor="start"><tspan x="644.4" dy="14">SDA</tspan></text><text x="644.4" y="-212.0" dominant-baseline="central" fill="black" font-size="14" font-family="sans" text-anchor="start"><tspan x="644.4" dy="14">SCL</tspan></text><text x="777.6" y="-68.0" dominant-baseline="central" fill="black" font-size="14" font-family="sans" text-anchor="end"><tspan x="777.6" dy="14">PWM 8-13</tspan></text><text x="777.6" y="-140.0" dominant-baseline="central" fill="black" font-size="14" font-family="sans" text-anchor="end"><tspan x="777.6" dy="14">PWM 6-7</tspan></text><text x="777.6" y="-212.0" dominant-baseline="central" fill="black" font-size="14" font-family="sans" text-anchor="end"><tspan x="777.6" dy="14">PWM 0-5</tspan></text><text x="711.0" y="-32.6" dominant-baseline="hanging" fill="black" font-size="11" font-family="sans" text-anchor="middle"><tspan x="711.0" dy="11">PCA9685</tspan><tspan x="711.0" dy="11">0x40 @ 200Hz</tspan></text><text x="896.4" y="274.0" dominant-baseline="central" fill="black" font-size="14" font-family="sans" text-anchor="start"><tspan x="896.4" dy="14">GND</tspan></text><text x="896.4" y="246.0" dominant-baseline="central" fill="black" font-size="14" font-family="sans" text-anchor="start"><tspan x="896.4" dy="14">VCC</tspan></text><text x="896.4" y="218.0" dominant-baseline="central" fill="black" font-size="14" font-family="sans" text-anchor="start"><tspan x="896.4" dy="14">VM</tspan></text><text x="896.4" y="189.99999999999997" dominant-baseline="central" fill="black" font-size="14" font-family="sans" text-anchor="start"><tspan x="896.4" dy="14">STBY</tspan></text><text x="896.4" y="162.0" dominant-baseline="central" fill="black" font-size="14" font-family="sans" text-anchor="start"><tspan x="896.4" dy="14">PWMB</tspan></text><text x="896.4" y="134.0" dominant-baseline="central" fill="black" font-size="14" font-family="sans" text-anchor="start"><tspan x="896.4" dy="14">BIN2</tspan></text><text x="896.4" y="105.99999999999999" dominant-baseline="central" fill="black" font-size="14" font-family="sans" text-anchor="start"><tspan x="896.4" dy="14">BIN1</tspan></text><text x="896.4" y="78.0" dominant-baseline="central" fill="black" font-size="14" font-family="sans" text-anchor="start"><tspan x="896.4" dy="14">PWMA</tspan></text><text x="896.4" y="50.0" dominant-baseline="central" fill="black" font-size="14" font-family="sans" text-anchor="start"><tspan x="896.4" dy="14">AIN2</tspan></text><text x="896.4" y="22.0" dominant-baseline="central" fill="black" font-size="14" font-family="sans" text-anchor="start"><tspan x="896.4" dy="14">AIN1</tspan></text><text x="1029.6000000000001" y="274.0" dominant-baseline="central" fill="black" font-size="14" font-family="sans" text-anchor="end"><tspan x="1029.6000000000001" dy="14">BO2</tspan></text><text x="1029.6000000000001" y="189.99999999999997" dominant-baseline="central" fill="black" font-size="14" font-family="sans" text-anchor="end"><tspan x="1029.6000000000001" dy="14">BO1</tspan></text><text x="1029.6000000000001" y="105.99999999999999" dominant-baseline="central" fill="black" font-size="14" font-family="sans" text-anchor="end"><tspan x="1029.6000000000001" dy="14">AO2</tspan></text><text x="1029.6000000000001" y="22.0" dominant-baseline="central" fill="black" font-size="14" font-family="sans" text-anchor="end"><tspan x="1029.6000000000001" dy="14">AO1</tspan></text><text x="963.0" y="309.40000000000003" dominant-baseline="hanging" fill="black" font-size="11" font-family="sans" text-anchor="middle"><tspan x="963.0" dy="11">TB6612FNG</tspan></text><text x="1179.0" y="243.39999999999998" dominant-baseline="hanging" fill="black" font-size="11" font-family="sans" text-anchor="middle"><tspan x="1179.0" dy="11">Left motor</tspan></text><text x="1179.0" y="75.39999999999999" dominant-baseline="hanging" fill="black" font-size="11" font-family="sans" text-anchor="middle"><tspan x="1179.0" dy="11">Right motor</tspan></text><text x="473.40000000000003" y="184.0" dominant-baseline="central" fill="black" font-size="14" font-family="sans" text-anchor="start"><tspan x="473.40000000000003" dy="14">GND</tspan></text><text x="473.40000000000003" y="160.00000000000003" dominant-baseline="central" fill="black" font-size="14" font-family="sans" text-anchor="start"><tspan x="473.40000000000003" dy="14">VCC</tspan></text><text x="473.40000000000003" y="136.0" dominant-baseline="central" fill="black" font-size="14" font-family="sans" text-anchor="start"><tspan x="473.40000000000003" dy="14">SDA</tspan></text><text x="473.40000000000003" y="112.0" dominant-baseline="central" fill="black" font-size="14" font-family="sans" text-anchor="start"><tspan x="473.40000000000003" dy="14">SCL</tspan></text><text x="522.0" y="219.4" dominant-baseline="hanging" fill="black" font-size="11" font-family="sans" text-anchor="middle"><tspan x="522.0" dy="11">SSD1306 OLED</tspan><tspan x="522.0" dy="11">0x3C, 128x64</tspan></text><text x="894.6" y="-136.0" dominant-baseline="central" fill="steelblue" font-size="10" font-family="sans" text-anchor="start"><tspan x="894.6" dy="10">Pan / Tilt SG90</tspan></text><text x="894.6" y="-208.0" dominant-baseline="central" fill="steelblue" font-size="10" font-family="sans" text-anchor="start"><tspan x="894.6" dy="10">2× RGB LED</tspan></text><text x="149.4" y="140.79999999999998" dominant-baseline="central" fill="black" font-size="14" font-family="sans" text-anchor="start"><tspan x="149.4" dy="14">GND</tspan></text><text x="149.4" y="116.80000000000001" dominant-baseline="central" fill="black" font-size="14" font-family="sans" text-anchor="start"><tspan x="149.4" dy="14">ECHO</tspan></text><text x="149.4" y="92.80000000000001" dominant-baseline="central" fill="black" font-size="14" font-family="sans" text-anchor="start"><tspan x="149.4" dy="14">TRIG</tspan></text><text x="149.4" y="68.8" dominant-baseline="central" fill="black" font-size="14" font-family="sans" text-anchor="start"><tspan x="149.4" dy="14">VCC</tspan></text><text x="198.0" y="176.2" dominant-baseline="hanging" fill="black" font-size="11" font-family="sans" text-anchor="middle"><tspan x="198.0" dy="11">HC-SR04P</tspan><tspan x="198.0" dy="11">ultrasonic</tspan></text><text x="198.0" y="-128.0" dominant-baseline="ideographic" fill="black" font-size="11" font-family="sans" text-anchor="middle"><tspan x="198.0" dy="11">100 Ω</tspan></text><text x="249.75" y="-148.70000000000002" dominant-baseline="ideographic" fill="black" font-size="11" font-family="sans" text-anchor="middle"><tspan x="249.75" dy="11">Piezo</tspan></text><text x="-36.0" y="-155.0" dominant-baseline="ideographic" fill="black" font-size="11" font-family="sans" text-anchor="middle"><tspan x="-36.0" dy="11">+3V3</tspan></text><text x="-36.0" y="-263.0" dominant-baseline="ideographic" fill="black" font-size="11" font-family="sans" text-anchor="middle"><tspan x="-36.0" dy="11">+5V</tspan></text><text x="288.0" y="-131.0" dominant-baseline="ideographic" fill="black" font-size="11" font-family="sans" text-anchor="middle"><tspan x="288.0" dy="11">+3V3</tspan></text><text x="567.0" y="-119.0" dominant-baseline="ideographic" fill="black" font-size="11" font-family="sans" text-anchor="middle"><tspan x="567.0" dy="11">+3V3</tspan></text><text x="567.0" y="-155.0" dominant-baseline="ideographic" fill="black" font-size="11" font-family="sans" text-anchor="middle"><tspan x="567.0" dy="11">+5V</tspan></text><text x="855.0" y="231.0" dominant-baseline="ideographic" fill="black" font-size="11" font-family="sans" text-anchor="middle"><tspan x="855.0" dy="11">+3V3</tspan></text><text x="855.0" y="203.0" dominant-baseline="ideographic" fill="black" font-size="11" font-family="sans" text-anchor="middle"><tspan x="855.0" dy="11">+5V</tspan></text><text x="414.0" y="145.00000000000003" dominant-baseline="ideographic" fill="black" font-size="11" font-family="sans" text-anchor="middle"><tspan x="414.0" dy="11">+3V3</tspan></text><text x="90.0" y="53.8" dominant-baseline="ideographic" fill="black" font-size="11" font-family="sans" text-anchor="middle"><tspan x="90.0" dy="11">+3V3</tspan></text></svg>
