<?xml version="1.0" standalone="no"?>
 <!DOCTYPE svg PUBLIC "-//W3C//DTD SVG 1.1//EN"
 "http://www.w3.org/Graphics/SVG/1.1/DTD/svg11.dtd">
<svg
  xmlns:svg="http://www.w3.org/2000/svg"
  xmlns="http://www.w3.org/2000/svg"
  xmlns:xlink="http://www.w3.org/1999/xlink"
  version="1.1"
  width="297.0022mm" height="210.0072mm" viewBox="0.0000 0.0000 297.0022 210.0072">
<title>SVG Image created as robocar_v3.svg date 2025/08/02 07:28:26 </title>
  <desc>Image generated by Eeschema-SVG </desc>
<g style="fill:#000000; fill-opacity:1.0000;stroke:#000000; stroke-opacity:1.0000;
stroke-linecap:round; stroke-linejoin:round;"
 transform="translate(0 0) scale(1 1)">
<path style="fill:none;
stroke:#840000; stroke-width:0.1524; stroke-opacity:1;
stroke-linecap:round; stroke-linejoin:round;fill:none"
d="M 49.2380,28.7300
50.0000,27.4600
" />
<path style="fill:none;
stroke:#840000; stroke-width:0.1524; stroke-opacity:1;
stroke-linecap:round; stroke-linejoin:round;fill:none"
d="M 50.0000,27.4600
50.7620,28.7300
" />
<path style="fill:none;
stroke:#840000; stroke-width:0.1524; stroke-opacity:1;
stroke-linecap:round; stroke-linejoin:round;fill:none"
d="M 50.0000,30.0000
50.0000,27.4600
" />
</g>
<g style="fill:none;
stroke:#006464; stroke-width:0.1524; stroke-opacity:1;
stroke-linecap:round; stroke-linejoin:round;">
<text x="50.0000" y="34.1910"
textLength="4.0737" font-size="1.6933" lengthAdjust="spacingAndGlyphs"
text-anchor="middle" opacity="0" stroke-opacity="0">+5V</text>
<g class="stroked-text"><desc>+5V</desc>
<path d="M48.3671 33.6517
L49.3348 33.6517
" />
<path d="M48.8509 34.1355
L48.8509 33.1679
" />
<path d="M50.5443 32.8655
L49.9395 32.8655
" />
<path d="M49.9395 32.8655
L49.8791 33.4703
" />
<path d="M49.8791 33.4703
L49.9395 33.4098
" />
<path d="M49.9395 33.4098
L50.0605 33.3493
" />
<path d="M50.0605 33.3493
L50.3629 33.3493
" />
<path d="M50.3629 33.3493
L50.4838 33.4098
" />
<path d="M50.4838 33.4098
L50.5443 33.4703
" />
<path d="M50.5443 33.4703
L50.6048 33.5912
" />
<path d="M50.6048 33.5912
L50.6048 33.8936
" />
<path d="M50.6048 33.8936
L50.5443 34.0146
" />
<path d="M50.5443 34.0146
L50.4838 34.0751
" />
<path d="M50.4838 34.0751
L50.3629 34.1355
" />
<path d="M50.3629 34.1355
L50.0605 34.1355
" />
<path d="M50.0605 34.1355
L49.9395 34.0751
" />
<path d="M49.9395 34.0751
L49.8791 34.0146
" />
<path d="M50.9676 32.8655
L51.3909 34.1355
" />
<path d="M51.3909 34.1355
L51.8143 32.8655
" />
</g><path style="fill:none;
stroke:#840000; stroke-width:0.1524; stroke-opacity:1;
stroke-linecap:round; stroke-linejoin:round;fill:none"
d="M 50.0000,70.0000
50.0000,71.2700
51.2700,71.2700
50.0000,72.5400
48.7300,71.2700
50.0000,71.2700
" />
</g>
<g style="fill:none;
stroke:#006464; stroke-width:0.1524; stroke-opacity:1;
stroke-linecap:round; stroke-linejoin:round;">
<text x="50.0000" y="74.4450"
textLength="4.0737" font-size="1.6933" lengthAdjust="spacingAndGlyphs"
text-anchor="middle" opacity="0" stroke-opacity="0">GND</text>
<g class="stroked-text"><desc>GND</desc>
<path d="M49.0324 73.1800
L48.9114 73.1195
" />
<path d="M48.9114 73.1195
L48.7300 73.1195
" />
<path d="M48.7300 73.1195
L48.5486 73.1800
" />
<path d="M48.5486 73.1800
L48.4276 73.3010
" />
<path d="M48.4276 73.3010
L48.3671 73.4219
" />
<path d="M48.3671 73.4219
L48.3067 73.6638
" />
<path d="M48.3067 73.6638
L48.3067 73.8452
" />
<path d="M48.3067 73.8452
L48.3671 74.0871
" />
<path d="M48.3671 74.0871
L48.4276 74.2081
" />
<path d="M48.4276 74.2081
L48.5486 74.3291
" />
<path d="M48.5486 74.3291
L48.7300 74.3895
" />
<path d="M48.7300 74.3895
L48.8509 74.3895
" />
<path d="M48.8509 74.3895
L49.0324 74.3291
" />
<path d="M49.0324 74.3291
L49.0928 74.2686
" />
<path d="M49.0928 74.2686
L49.0928 73.8452
" />
<path d="M49.0928 73.8452
L48.8509 73.8452
" />
<path d="M49.6371 74.3895
L49.6371 73.1195
" />
<path d="M49.6371 73.1195
L50.3628 74.3895
" />
<path d="M50.3628 74.3895
L50.3628 73.1195
" />
<path d="M50.9676 74.3895
L50.9676 73.1195
" />
<path d="M50.9676 73.1195
L51.2700 73.1195
" />
<path d="M51.2700 73.1195
L51.4514 73.1800
" />
<path d="M51.4514 73.1800
L51.5724 73.3010
" />
<path d="M51.5724 73.3010
L51.6329 73.4219
" />
<path d="M51.6329 73.4219
L51.6933 73.6638
" />
<path d="M51.6933 73.6638
L51.6933 73.8452
" />
<path d="M51.6933 73.8452
L51.6329 74.0871
" />
<path d="M51.6329 74.0871
L51.5724 74.2081
" />
<path d="M51.5724 74.2081
L51.4514 74.3291
" />
<path d="M51.4514 74.3291
L51.2700 74.3895
" />
<path d="M51.2700 74.3895
L50.9676 74.3895
" />
</g></g>
</svg>
